<svg xmlns="http://www.w3.org/2000/svg" xmlns:xlink="http://www.w3.org/1999/xlink" width="500" zoomAndPan="magnify" viewBox="0 0 375 374.999991" height="500" preserveAspectRatio="xMidYMid meet" version="1.0"><defs><filter x="0%" y="0%" width="100%" height="100%" id="9c07027931"><feColorMatrix values="0 0 0 0 1 0 0 0 0 1 0 0 0 0 1 0 0 0 1 0" color-interpolation-filters="sRGB"/></filter><mask id="6d0d82c694"><g filter="url(#9c07027931)"><rect x="-37.5" width="450" fill="#000000" y="-37.499999" height="449.999989" fill-opacity="0.41"/></g></mask><clipPath id="72c9b7876b"><path d="M 30 1 L 160 1 L 160 111 L 30 111 Z M 30 1 " clip-rule="nonzero"/></clipPath><clipPath id="7ac2a31477"><path d="M -0.0898438 66.925781 L 31.574219 -0.234375 L 167.25 63.734375 L 135.585938 130.894531 Z M -0.0898438 66.925781 " clip-rule="nonzero"/></clipPath><clipPath id="39328b012d"><path d="M -0.0898438 66.925781 L 31.574219 -0.234375 L 167.25 63.734375 L 135.585938 130.894531 Z M -0.0898438 66.925781 " clip-rule="nonzero"/></clipPath><clipPath id="6222f3f2c7"><rect x="0" width="167" y="0" height="130"/></clipPath></defs><g mask="url(#6d0d82c694)"><g transform="matrix(1, 0, 0, 1, 104, 122)"><g clip-path="url(#6222f3f2c7)"><g clip-path="url(#72c9b7876b)"><g clip-path="url(#7ac2a31477)"><g clip-path="url(#39328b012d)"><path fill="#ff914d" d="M 97.035156 39.492188 C 74.339844 29.160156 56.625 13.269531 34.171875 1.476562 C 32.753906 1.089844 31.027344 0.925781 30.808594 4.289062 C 30.863281 29.175781 29.320312 54.019531 31.304688 78.914062 C 31.359375 80.082031 31.695312 81.851562 33.445312 80.765625 C 40.546875 76.363281 48.78125 74.425781 55.996094 70.273438 C 57.175781 69.59375 58.523438 68.40625 60.144531 69 C 64.773438 70.695312 69.464844 72.261719 73.957031 74.273438 C 82.449219 77.945312 78.273438 64.660156 80.25 60.40625 C 80.796875 58.265625 78.164062 55.695312 81.710938 53.820312 C 87.4375 50.800781 91.527344 45.257812 97.75 42.847656 C 99 42.363281 97.777344 39.625 97.035156 39.492188 Z M 37.855469 11.648438 C 37.464844 11.4375 37.078125 11.210938 36.695312 10.988281 C 35.441406 8.148438 34.707031 6.464844 34.777344 6.5625 C 35.21875 7.1875 36.398438 9.050781 38.089844 11.769531 C 38.011719 11.726562 37.933594 11.6875 37.855469 11.648438 Z M 38.851562 14.933594 C 38.675781 14.847656 38.503906 14.761719 38.328125 14.679688 C 37.894531 13.699219 37.484375 12.785156 37.117188 11.949219 C 37.257812 12.03125 37.402344 12.109375 37.542969 12.1875 C 37.945312 12.414062 38.34375 12.632812 38.753906 12.839844 C 38.835938 12.964844 38.914062 13.097656 38.996094 13.226562 C 38.984375 13.351562 38.976562 13.476562 38.960938 13.601562 C 38.921875 14.042969 38.886719 14.488281 38.851562 14.933594 Z M 39.511719 14.054688 C 39.851562 14.605469 40.203125 15.179688 40.574219 15.773438 C 40.1875 15.578125 39.796875 15.390625 39.40625 15.203125 C 39.4375 14.820312 39.472656 14.4375 39.511719 14.054688 Z M 57.019531 67.679688 C 50.074219 70.6875 43.183594 73.839844 36.167969 76.664062 C 33.722656 77.648438 34.449219 74.964844 34.511719 74.1875 C 34.101562 55.761719 32.503906 11.574219 33.679688 11.300781 C 41.976562 26.816406 50.433594 49.152344 57.914062 65.035156 C 58.589844 66.4375 58.324219 67.109375 57.019531 67.679688 Z M 41.238281 18.121094 C 41.199219 18.539062 41.164062 18.957031 41.132812 19.375 C 40.835938 19.226562 40.53125 19.078125 40.226562 18.945312 C 39.898438 18.214844 39.582031 17.5 39.277344 16.8125 C 39.304688 16.488281 39.328125 16.160156 39.351562 15.835938 C 39.75 16.046875 40.148438 16.261719 40.550781 16.46875 C 40.769531 16.582031 40.988281 16.695312 41.207031 16.804688 C 41.242188 16.867188 41.28125 16.929688 41.320312 16.992188 C 41.289062 17.367188 41.269531 17.75 41.238281 18.121094 Z M 41.855469 17.851562 C 42.40625 18.746094 42.980469 19.679688 43.574219 20.644531 C 42.953125 20.296875 42.328125 19.964844 41.691406 19.652344 C 41.691406 19.652344 41.6875 19.648438 41.6875 19.648438 C 41.734375 19.121094 41.777344 18.59375 41.832031 18.066406 C 41.835938 17.996094 41.847656 17.925781 41.855469 17.851562 Z M 45.378906 24.386719 C 45.363281 24.589844 45.351562 24.796875 45.339844 25 C 44.300781 24.5 43.277344 23.972656 42.242188 23.46875 C 41.992188 22.90625 41.746094 22.355469 41.503906 21.808594 C 41.542969 21.324219 41.582031 20.839844 41.625 20.355469 C 41.625 20.34375 41.628906 20.332031 41.628906 20.320312 C 42.289062 20.664062 42.945312 21.023438 43.589844 21.390625 C 43.820312 21.519531 44.050781 21.660156 44.277344 21.796875 C 44.65625 22.40625 45.039062 23.03125 45.421875 23.660156 C 45.410156 23.902344 45.390625 24.144531 45.378906 24.386719 Z M 45.921875 24.472656 C 46.148438 24.84375 46.375 25.210938 46.605469 25.589844 C 46.449219 25.519531 46.292969 25.453125 46.136719 25.378906 C 46.046875 25.335938 45.957031 25.292969 45.863281 25.25 C 45.882812 25.019531 45.898438 24.785156 45.914062 24.558594 C 45.917969 24.527344 45.917969 24.5 45.921875 24.472656 Z M 41.054688 20.410156 C 41.042969 20.53125 41.042969 20.648438 41.035156 20.765625 C 40.894531 20.445312 40.75 20.125 40.613281 19.816406 C 40.769531 19.890625 40.925781 19.96875 41.078125 20.042969 C 41.074219 20.164062 41.0625 20.289062 41.054688 20.410156 Z M 47.558594 29.269531 C 47.519531 29.949219 47.488281 30.625 47.464844 31.308594 C 46.804688 30.96875 46.140625 30.640625 45.46875 30.328125 C 45.558594 29.234375 45.652344 28.140625 45.734375 27.046875 C 45.761719 26.671875 45.789062 26.292969 45.816406 25.914062 C 45.859375 25.933594 45.902344 25.953125 45.945312 25.972656 C 46.359375 26.167969 46.773438 26.359375 47.191406 26.546875 C 47.355469 26.816406 47.523438 27.085938 47.6875 27.355469 C 47.683594 27.433594 47.679688 27.507812 47.675781 27.582031 C 47.628906 28.144531 47.589844 28.703125 47.558594 29.269531 Z M 48.226562 28.238281 C 49.28125 29.960938 50.359375 31.730469 51.457031 33.519531 C 50.84375 33.160156 50.230469 32.808594 49.613281 32.464844 C 49.089844 32.171875 48.5625 31.886719 48.027344 31.605469 C 48.058594 30.808594 48.097656 30.015625 48.148438 29.222656 C 48.171875 28.894531 48.199219 28.566406 48.226562 28.238281 Z M 45.292969 25.667969 C 45.265625 26.097656 45.238281 26.527344 45.210938 26.957031 C 45.152344 27.890625 45.101562 28.820312 45.050781 29.753906 C 44.226562 27.914062 43.417969 26.101562 42.636719 24.351562 C 43.507812 24.816406 44.402344 25.246094 45.292969 25.667969 Z M 51.753906 37.226562 C 50.488281 36.613281 49.222656 36 47.949219 35.40625 C 47.953125 34.496094 47.964844 33.582031 47.992188 32.671875 C 47.996094 32.546875 48 32.425781 48.003906 32.300781 C 48.429688 32.53125 48.855469 32.761719 49.277344 33 C 50.195312 33.523438 51.09375 34.078125 51.992188 34.636719 C 51.914062 35.5 51.832031 36.363281 51.753906 37.226562 Z M 52.492188 35.21875 C 53.171875 36.332031 53.855469 37.449219 54.539062 38.566406 C 54.171875 38.394531 53.808594 38.21875 53.445312 38.042969 C 53.054688 37.851562 52.664062 37.664062 52.273438 37.472656 C 52.347656 36.722656 52.417969 35.972656 52.492188 35.21875 Z M 47.429688 32.648438 C 47.414062 33.46875 47.425781 34.285156 47.441406 35.101562 C 46.832031 33.738281 46.222656 32.378906 45.621094 31.027344 C 46.230469 31.347656 46.839844 31.667969 47.445312 31.992188 C 47.4375 32.210938 47.433594 32.429688 47.429688 32.648438 Z M 54.820312 43.140625 C 53.828125 42.667969 52.835938 42.203125 51.832031 41.761719 C 51.957031 40.546875 52.085938 39.328125 52.210938 38.113281 C 52.535156 38.273438 52.863281 38.429688 53.1875 38.59375 C 53.820312 38.902344 54.460938 39.21875 55.097656 39.535156 C 55.007812 40.738281 54.917969 41.9375 54.820312 43.140625 Z M 55.675781 40.433594 C 56.59375 41.9375 57.507812 43.4375 58.410156 44.921875 C 57.535156 44.46875 56.65625 44.027344 55.773438 43.59375 C 55.65625 43.535156 55.539062 43.484375 55.425781 43.425781 C 55.515625 42.429688 55.597656 41.433594 55.675781 40.433594 Z M 51.382812 41.566406 C 50.953125 41.378906 50.523438 41.195312 50.09375 41.011719 C 49.386719 39.4375 48.667969 37.835938 47.949219 36.230469 C 47.949219 36.152344 47.949219 36.078125 47.949219 36.003906 C 49.195312 36.632812 50.449219 37.25 51.699219 37.863281 C 51.589844 39.09375 51.488281 40.328125 51.382812 41.566406 Z M 59.0625 50.023438 C 59.261719 49.011719 59.464844 48.007812 59.675781 47 C 60.652344 48.605469 61.617188 50.1875 62.550781 51.722656 C 62.472656 51.679688 62.394531 51.636719 62.320312 51.597656 C 61.25 51.039062 60.160156 50.515625 59.0625 50.023438 Z M 58.988281 47.421875 C 58.882812 47.960938 58.777344 48.496094 58.671875 49.03125 C 58.625 49.28125 58.578125 49.53125 58.527344 49.78125 C 57.335938 49.257812 56.128906 48.78125 54.910156 48.339844 C 55.019531 47.46875 55.121094 46.59375 55.210938 45.71875 C 55.265625 45.152344 55.3125 44.585938 55.367188 44.019531 C 55.425781 44.046875 55.476562 44.074219 55.535156 44.101562 C 56.699219 44.675781 57.851562 45.277344 59 45.886719 C 59.070312 46.003906 59.140625 46.117188 59.210938 46.234375 C 59.1875 46.347656 59.167969 46.464844 59.148438 46.578125 C 59.09375 46.859375 59.042969 47.140625 58.988281 47.421875 Z M 54.382812 48.148438 C 53.957031 48 53.53125 47.851562 53.101562 47.710938 C 52.605469 46.601562 52.089844 45.460938 51.566406 44.296875 C 51.636719 43.640625 51.703125 42.984375 51.773438 42.328125 C 52.777344 42.785156 53.777344 43.253906 54.773438 43.734375 C 54.652344 45.207031 54.523438 46.679688 54.382812 48.148438 Z M 51.214844 43.515625 C 50.945312 42.914062 50.675781 42.3125 50.402344 41.703125 C 50.714844 41.84375 51.023438 41.988281 51.335938 42.128906 C 51.292969 42.589844 51.253906 43.050781 51.214844 43.515625 Z M 62.296875 56.621094 C 62.539062 55.304688 62.78125 53.992188 63.023438 52.679688 C 63.082031 52.707031 63.136719 52.738281 63.191406 52.769531 C 64.441406 54.820312 65.632812 56.777344 66.746094 58.605469 C 66.742188 58.65625 66.738281 58.707031 66.734375 58.757812 C 66.347656 58.5625 65.960938 58.367188 65.574219 58.175781 C 64.484375 57.644531 63.394531 57.125 62.296875 56.621094 Z M 62.324219 53.074219 C 62.132812 54.171875 61.933594 55.273438 61.742188 56.371094 C 60.535156 55.824219 59.320312 55.308594 58.09375 54.808594 C 58.097656 54.78125 58.105469 54.75 58.109375 54.722656 C 58.390625 53.359375 58.667969 51.996094 58.941406 50.632812 C 59.964844 51.105469 60.984375 51.605469 61.984375 52.125 C 62.140625 52.203125 62.292969 52.289062 62.445312 52.371094 C 62.40625 52.605469 62.363281 52.839844 62.324219 53.074219 Z M 54.84375 48.875 C 56.042969 49.347656 57.234375 49.851562 58.410156 50.382812 C 58.28125 51.035156 58.152344 51.679688 58.027344 52.328125 C 57.882812 53.085938 57.738281 53.84375 57.589844 54.601562 C 57.03125 54.378906 56.472656 54.160156 55.910156 53.949219 C 55.480469 53.003906 55.035156 52.007812 54.570312 50.972656 C 54.664062 50.273438 54.753906 49.574219 54.84375 48.875 Z M 54.191406 50.140625 C 53.921875 49.539062 53.648438 48.929688 53.367188 48.308594 C 53.691406 48.429688 54.015625 48.550781 54.335938 48.675781 C 54.289062 49.164062 54.242188 49.652344 54.191406 50.140625 Z M 57.988281 55.34375 C 59.210938 55.875 60.425781 56.414062 61.636719 56.96875 C 61.609375 57.128906 61.582031 57.285156 61.554688 57.445312 C 61.3125 58.824219 61.074219 60.207031 60.84375 61.585938 C 60.253906 61.363281 59.664062 61.140625 59.066406 60.921875 C 58.648438 60 58.128906 58.863281 57.539062 57.558594 C 57.699219 56.824219 57.84375 56.082031 57.988281 55.34375 Z M 57.171875 56.742188 C 56.859375 56.054688 56.53125 55.328125 56.1875 54.566406 C 56.625 54.746094 57.054688 54.941406 57.488281 55.128906 C 57.460938 55.269531 57.433594 55.410156 57.40625 55.550781 C 57.332031 55.945312 57.246094 56.34375 57.171875 56.742188 Z M 62.183594 57.226562 C 63.230469 57.710938 64.273438 58.207031 65.3125 58.722656 C 65.769531 58.949219 66.21875 59.179688 66.671875 59.410156 C 66.546875 60.816406 66.363281 62.21875 66.128906 63.609375 C 65.609375 63.410156 65.09375 63.210938 64.574219 63.011719 C 63.496094 62.59375 62.414062 62.179688 61.332031 61.773438 C 61.617188 60.253906 61.902344 58.742188 62.183594 57.226562 Z M 60.746094 62.140625 C 60.652344 62.71875 60.554688 63.296875 60.460938 63.878906 C 60.410156 63.777344 60.355469 63.679688 60.308594 63.578125 C 60.273438 63.542969 59.941406 62.828125 59.371094 61.585938 C 59.832031 61.769531 60.289062 61.953125 60.746094 62.140625 Z M 60.8125 64.472656 C 60.949219 63.761719 61.089844 63.046875 61.222656 62.332031 C 62.304688 62.761719 63.378906 63.195312 64.460938 63.617188 C 64.980469 63.820312 65.5 64.023438 66.015625 64.230469 C 65.800781 65.417969 65.550781 66.601562 65.25 67.773438 C 63.410156 66.910156 61.808594 65.964844 60.8125 64.472656 Z M 65.6875 67.972656 C 66.023438 66.808594 66.3125 65.628906 66.5625 64.441406 C 66.980469 64.605469 67.394531 64.773438 67.808594 64.933594 C 68.449219 65.179688 69.089844 65.445312 69.75 65.648438 C 69.675781 65.996094 69.597656 66.34375 69.53125 66.695312 C 69.351562 67.613281 69.175781 68.53125 69.027344 69.457031 C 67.886719 68.921875 66.753906 68.453125 65.6875 67.972656 Z M 74.652344 71.597656 C 72.761719 70.878906 70.867188 70.164062 69.601562 69.683594 C 69.792969 68.726562 69.972656 67.761719 70.179688 66.808594 C 70.246094 66.480469 70.324219 66.152344 70.398438 65.820312 C 70.597656 65.867188 70.796875 65.90625 71 65.9375 C 71.074219 65.945312 71.128906 65.929688 71.183594 65.90625 C 73.207031 69.234375 74.496094 71.351562 74.652344 71.597656 Z M 67.859375 64.277344 C 67.46875 64.125 67.078125 63.976562 66.6875 63.824219 C 66.949219 62.472656 67.15625 61.105469 67.296875 59.734375 C 67.363281 59.769531 67.425781 59.800781 67.492188 59.839844 C 68.425781 61.371094 69.292969 62.796875 70.078125 64.089844 C 70.050781 64.207031 70.023438 64.324219 70 64.441406 C 69.957031 64.632812 69.921875 64.820312 69.882812 65.007812 C 69.199219 64.800781 68.53125 64.539062 67.859375 64.277344 Z M 70.589844 64.9375 C 70.65625 65.042969 70.722656 65.152344 70.789062 65.257812 C 70.703125 65.238281 70.621094 65.210938 70.535156 65.191406 C 70.554688 65.105469 70.574219 65.019531 70.589844 64.9375 Z M 77.085938 58.390625 C 78.308594 59.191406 77 61.457031 76.824219 63.082031 C 76.671875 64.515625 76.460938 65.941406 76.246094 67.613281 C 75.726562 68.65625 72.785156 63.625 72.25 62.972656 C 71.5625 61.839844 72.941406 61.339844 73.542969 60.914062 C 74.792969 60.039062 75.894531 57.609375 77.085938 58.390625 Z M 91.203125 41.289062 C 92.542969 42.0625 92.9375 42.375 91.511719 43.480469 C 85.214844 48.335938 78.960938 53.242188 72.753906 58.199219 C 71.566406 59.148438 71.199219 58.9375 70.429688 57.683594 C 67.242188 52.472656 63.941406 47.128906 60.570312 41.757812 C 60.589844 41.648438 60.550781 41.527344 60.414062 41.457031 C 60.398438 41.449219 60.378906 41.441406 60.363281 41.429688 C 52.742188 29.3125 44.757812 17.066406 36.859375 5.929688 C 37.503906 6.230469 73.992188 31.363281 91.203125 41.289062 Z M 110.964844 108.105469 C 111.546875 108.546875 112.960938 108.574219 112.445312 109.6875 C 112.015625 110.613281 110.714844 110.796875 109.804688 110.503906 C 108.15625 109.703125 101.691406 108.246094 101.476562 106.617188 C 102.628906 104.21875 105.816406 105.675781 107.628906 105.9375 C 108.832031 106.703125 109.949219 107.335938 110.964844 108.105469 Z M 82.0625 78.90625 C 82.894531 80.074219 88.878906 87.15625 87.097656 88.222656 C 86.550781 88.421875 85.980469 88.539062 85.488281 87.890625 C 83.628906 85.429688 81.722656 83.011719 79.820312 80.589844 C 78.988281 79.441406 80.867188 78.242188 82.0625 78.90625 Z M 92.566406 93.921875 C 94.597656 96.167969 96.53125 98.511719 98.476562 100.835938 C 98.585938 100.964844 98.496094 101.261719 98.5 101.507812 C 97.550781 102.480469 96.648438 102.804688 95.648438 101.5625 C 94.089844 99.617188 92.53125 97.667969 90.894531 95.785156 C 89.550781 94.738281 91.585938 92.949219 92.566406 93.921875 Z M 130.019531 107.433594 C 130.210938 109.78125 122.460938 110.246094 120.648438 110.179688 C 119.570312 110.15625 119.320312 109.808594 119.382812 108.707031 C 122.164062 107.613281 125.304688 108.214844 128.09375 106.933594 C 128.679688 106.679688 129.765625 106.449219 130.019531 107.433594 Z M 159.25 74.417969 C 160.511719 74.84375 159.421875 75.929688 159.253906 76.722656 C 158.511719 78.234375 159.378906 80.421875 157.300781 81.179688 C 156.804688 81.332031 156.019531 81.519531 155.960938 80.871094 C 155.8125 79.253906 155.902344 77.613281 155.898438 76.480469 C 156.71875 74.574219 158.023438 74 159.25 74.417969 Z M 142.679688 98.722656 C 143.699219 98.328125 144.058594 99.441406 144.441406 100.371094 C 141.757812 101.808594 139.445312 103.457031 136.574219 103.589844 C 132.710938 102.5 141.644531 99.253906 142.679688 98.722656 Z M 153.332031 87.996094 C 155.136719 88.988281 152.34375 91.054688 151.46875 91.667969 C 150.347656 92.253906 149.496094 93.886719 147.90625 93.015625 C 147.359375 92.714844 147.332031 91.945312 147.984375 91.484375 C 149.71875 90.261719 150.351562 87.359375 153.332031 87.996094 Z M 149.40625 60.222656 C 150.019531 61.140625 155.21875 66.371094 152.265625 66.324219 C 150.484375 64.632812 149.113281 63.355469 147.773438 62.039062 C 147.324219 61.605469 146.566406 61.175781 147.359375 60.398438 C 148 59.769531 148.9375 59.695312 149.40625 60.222656 Z M 133.558594 58.390625 C 132.851562 58.503906 132.667969 57.59375 133.050781 57.269531 C 135.132812 55.519531 137.433594 56.910156 139.53125 56.75 C 140.132812 57.519531 141.847656 58.015625 141.15625 58.390625 C 138.78125 59.6875 136.136719 57.980469 133.558594 58.390625 Z M 129.234375 66.617188 C 128.40625 67.160156 127.492188 67.210938 126.617188 66.894531 C 126.382812 66.808594 126.347656 66.15625 126.046875 65.222656 C 128.511719 64.429688 130.84375 63.667969 133.1875 62.957031 C 133.273438 62.929688 133.683594 63.472656 133.628906 63.566406 C 132.644531 65.257812 130.730469 65.636719 129.234375 66.617188 Z M 129.234375 66.617188 " fill-opacity="1" fill-rule="nonzero"/></g></g></g></g></g></g></svg>