<svg xmlns="http://www.w3.org/2000/svg" xmlns:xlink="http://www.w3.org/1999/xlink" width="500" zoomAndPan="magnify" viewBox="0 0 375 374.999991" height="500" preserveAspectRatio="xMidYMid meet" version="1.0"><defs><clipPath id="df88246432"><path d="M 168 231 L 196 231 L 196 262.5 L 168 262.5 Z M 168 231 " clip-rule="nonzero"/></clipPath></defs><g clip-path="url(#df88246432)"><path fill="#ff9955" d="M 176.519531 231.46875 C 178.085938 231.167969 179.503906 234.085938 180.648438 238.328125 C 181.632812 241.101562 182.425781 243.929688 183.023438 246.8125 C 186.585938 247.011719 189.417969 247.367188 191.941406 248.382812 C 194.402344 249.378906 195.746094 250.777344 195.4375 251.71875 C 195.128906 252.660156 193.269531 252.929688 190.308594 252.832031 C 188.824219 252.78125 186.695312 252.621094 184.304688 252.335938 C 185.125 253.449219 185.871094 254.617188 186.242188 255.585938 C 187.011719 257.605469 187.824219 261.617188 186.871094 262.039062 C 185.917969 262.457031 182.9375 259.8125 181.515625 258.117188 C 180.613281 257.042969 179.683594 255.1875 178.953125 253.554688 C 176.871094 255 174.953125 256.199219 173.617188 256.960938 C 171.042969 258.429688 169.28125 259.070312 168.5625 258.371094 C 167.839844 257.671875 168.375 255.8125 170.101562 253.78125 C 171.855469 251.703125 174.203125 250.074219 177.261719 248.242188 C 176.484375 245.53125 175.882812 242.777344 175.460938 239.988281 C 175.199219 238.898438 175 237.792969 174.863281 236.679688 C 174.894531 234.59375 174.441406 231.898438 176.511719 231.460938 Z M 176.519531 231.46875 " fill-opacity="1" fill-rule="nonzero"/></g><path fill="#f7ae36" d="M 206.429688 185.628906 C 199.894531 172.941406 185.214844 162.902344 168.460938 166.707031 C 166.148438 167.238281 163.90625 167.988281 161.738281 168.953125 L 161.738281 233.242188 C 165.117188 234.828125 168.597656 236.136719 172.183594 237.167969 C 177.417969 238.679688 184.316406 239.023438 188.476562 238.621094 C 188.476562 238.621094 198.117188 237.382812 202.761719 230.355469 C 207.464844 223.234375 215.3125 202.867188 206.429688 185.628906 Z M 206.429688 185.628906 " fill-opacity="1" fill-rule="nonzero"/><path fill="#f7ae36" d="M 222.550781 157.933594 C 223.625 149.128906 223.210938 140.554688 217.894531 133.660156 C 212.34375 126.457031 201.378906 121.351562 192.359375 122.046875 C 183.496094 122.730469 174.660156 129.324219 171.101562 137.769531 C 167.863281 137.183594 164.59375 137.925781 161.738281 139.546875 L 161.738281 174.035156 C 166.761719 178.875 173.136719 182.21875 179.605469 184.929688 C 187.160156 188.097656 195.222656 190.574219 203.40625 190.167969 C 211.585938 189.761719 219.945312 186.0625 224.304688 179.128906 C 228.386719 172.636719 227.9375 163.222656 222.550781 157.933594 Z M 222.550781 157.933594 " fill-opacity="1" fill-rule="nonzero"/><path fill="#f7ae36" d="M 189.1875 123.011719 C 190.785156 120.089844 194.378906 116.058594 197.460938 114.8125 C 195.636719 116.292969 195.296875 119.277344 196.746094 121.125 C 198.25 115.890625 204.449219 112.546875 209.652344 114.160156 C 206.675781 113.566406 204.320312 117.300781 205.027344 120.25 C 205.734375 123.203125 208.4375 126.070312 210.871094 127.890625 C 210.871094 127.890625 204.519531 123.933594 199.683594 123.046875 C 195.128906 122.207031 189.1875 123.011719 189.1875 123.011719 Z M 189.1875 123.011719 " fill-opacity="1" fill-rule="nonzero"/><path fill="#000000" d="M 178.40625 149.472656 C 178.070312 151.675781 180.40625 151.214844 181.371094 150.042969 C 181.984375 149.574219 184.382812 146.226562 184.824219 144.328125 C 187.425781 138.703125 179.632812 141.007812 178.40625 149.472656 Z M 178.40625 149.472656 " fill-opacity="1" fill-rule="nonzero"/><path fill="#000000" d="M 208.640625 157.558594 C 209.023438 156.21875 209.246094 154.855469 209.304688 153.464844 C 209.320312 153.28125 209.277344 153.113281 209.175781 152.960938 C 209.152344 152.066406 208.660156 151.050781 207.632812 151.152344 C 205.839844 151.308594 205.292969 153.582031 204.917969 154.996094 C 204.492188 156.625 204.113281 158.332031 204.128906 160.03125 C 204.128906 160.578125 204.128906 161.332031 204.664062 161.652344 C 205.5 162.140625 206.636719 161.34375 207.167969 160.75 C 207.953125 159.875 208.34375 158.675781 208.640625 157.558594 Z M 208.640625 157.558594 " fill-opacity="1" fill-rule="nonzero"/><path fill="#ff9955" d="M 195.203125 169.21875 C 191.867188 173.835938 184.175781 176.300781 184.175781 176.300781 C 184.175781 176.300781 180.382812 169.476562 181.152344 163.878906 Z M 195.203125 169.21875 " fill-opacity="1" fill-rule="nonzero"/><path fill="#ff9955" d="M 193.347656 154.109375 C 190.414062 152.90625 187.464844 152.960938 184.207031 155.15625 C 182.421875 156.359375 180.753906 159.480469 180.660156 161.65625 C 180.574219 163.695312 181.671875 166.253906 182.515625 167.664062 C 184.390625 170.816406 184.761719 171.613281 184.589844 175.453125 C 187.230469 172.632812 188.632812 172.140625 190.335938 171.800781 C 192.214844 171.429688 193.972656 170.808594 195.371094 169.945312 C 198.152344 168.253906 199.570312 163.6875 198.808594 160.46875 C 198.050781 157.253906 194.949219 154.765625 193.347656 154.109375 Z M 193.347656 154.109375 " fill-opacity="1" fill-rule="nonzero"/><path fill="#f7ae36" d="M 207.933594 189.585938 C 204.355469 207.699219 187.214844 221.90625 178.675781 224.179688 C 176.707031 224.707031 172.753906 224.90625 170.539062 223.070312 C 168.324219 221.230469 168.355469 218.964844 170.292969 217.078125 C 167.078125 218.511719 164.675781 218.390625 163.089844 217.050781 C 160.917969 215.21875 161 210.460938 162.378906 208.042969 C 158.980469 209.324219 152.613281 208.042969 152.550781 204.3125 C 152.488281 200.578125 154.90625 197.320312 157.523438 194.777344 C 167.199219 185.339844 187.390625 187.5625 188.5 187.871094 C 199.597656 191.003906 207.933594 189.585938 207.933594 189.585938 Z M 207.933594 189.585938 " fill-opacity="1" fill-rule="nonzero"/><path fill="#f7ae36" d="M 171.367188 184.777344 C 168.914062 191.019531 164.839844 191.972656 159.316406 191.972656 C 154.210938 192.511719 148.304688 189.53125 147.820312 187.3125 C 147.316406 185.003906 147.820312 181.378906 154.339844 178.96875 C 148.601562 178.964844 147.523438 175.136719 147.609375 173.046875 C 147.699219 170.917969 149.390625 167.941406 152.195312 167.265625 C 146.707031 167.367188 146.632812 161.660156 150.914062 159.214844 C 155.324219 156.707031 160.246094 156.917969 164.132812 159.898438 C 168.023438 162.878906 169.945312 167.324219 171.078125 172.175781 C 172.269531 177.226562 172.640625 181.542969 171.367188 184.777344 Z M 171.367188 184.777344 " fill-opacity="1" fill-rule="nonzero"/></svg>