<svg xmlns="http://www.w3.org/2000/svg" xmlns:xlink="http://www.w3.org/1999/xlink" width="500" zoomAndPan="magnify" viewBox="0 0 375 374.999991" height="500" preserveAspectRatio="xMidYMid meet" version="1.0"><defs><filter x="0%" y="0%" width="100%" height="100%" id="35d8b96226"><feColorMatrix values="0 0 0 0 1 0 0 0 0 1 0 0 0 0 1 0 0 0 1 0" color-interpolation-filters="sRGB"/></filter><mask id="83741bbaca"><g filter="url(#35d8b96226)"><rect x="-37.5" width="450" fill="#000000" y="-37.499999" height="449.999989" fill-opacity="0.41"/></g></mask><clipPath id="c40945352a"><path d="M 0.5 12 L 146 12 L 146 132.21875 L 0.5 132.21875 Z M 0.5 12 " clip-rule="nonzero"/></clipPath><clipPath id="60cc697c65"><path d="M 130 69 L 150.5 69 L 150.5 92 L 130 92 Z M 130 69 " clip-rule="nonzero"/></clipPath><clipPath id="6ad414846b"><path d="M 147 84 L 150.5 84 L 150.5 87 L 147 87 Z M 147 84 " clip-rule="nonzero"/></clipPath><clipPath id="4036f77e7c"><rect x="0" width="151" y="0" height="133"/></clipPath></defs><g mask="url(#83741bbaca)"><g transform="matrix(1, 0, 0, 1, 112, 121)"><g clip-path="url(#4036f77e7c)"><path fill="#0a141e" d="M 86.707031 47.433594 C 86.347656 47.523438 85.898438 47.34375 85.539062 47.3125 C 85.117188 47.285156 84.699219 47.253906 84.28125 47.195312 C 83.410156 47.074219 82.570312 46.953125 81.703125 46.925781 C 80.085938 46.863281 78.167969 46.714844 76.730469 47.613281 C 76.519531 47.734375 76.519531 48.125 76.820312 48.183594 C 77.65625 48.335938 78.496094 48.304688 79.335938 48.273438 C 80.203125 48.246094 81.101562 48.246094 81.972656 48.304688 C 82.871094 48.335938 83.769531 48.453125 84.699219 48.484375 C 85.089844 48.484375 85.476562 48.453125 85.898438 48.484375 C 86.285156 48.515625 86.617188 48.574219 87.007812 48.453125 C 87.636719 48.214844 87.367188 47.253906 86.707031 47.433594 Z M 86.707031 47.433594 " fill-opacity="1" fill-rule="nonzero"/><path fill="#0a141e" d="M 36.785156 72.070312 C 36.636719 72.101562 36.757812 72.128906 36.785156 72.070312 Z M 36.785156 72.070312 " fill-opacity="1" fill-rule="nonzero"/><path fill="#0a141e" d="M 73.550781 63.816406 C 72.894531 63.667969 72.382812 63.789062 71.722656 63.847656 C 70.945312 63.90625 70.167969 63.789062 69.386719 63.816406 C 67.710938 63.878906 66.0625 64.027344 64.414062 64.207031 C 61.175781 64.597656 57.941406 65.109375 54.703125 65.738281 C 51.46875 66.367188 48.292969 67.269531 45.144531 68.230469 C 42.03125 69.160156 38.914062 69.878906 35.796875 70.78125 C 35.707031 70.808594 35.648438 70.839844 35.589844 70.871094 C 35.558594 70.601562 35.527344 70.328125 35.46875 70.089844 C 35.257812 68.769531 35.078125 67.480469 34.898438 66.160156 C 34.867188 65.949219 34.867188 65.707031 34.839844 65.5 C 35.347656 65.019531 36.277344 64.777344 36.90625 64.539062 C 37.59375 64.269531 38.253906 64.058594 39.003906 63.878906 C 39.78125 63.699219 40.503906 63.339844 41.3125 63.1875 C 42.03125 63.039062 42.777344 63.039062 43.527344 62.917969 C 45.328125 62.617188 47.003906 62.167969 48.832031 61.957031 C 50.539062 61.746094 52.21875 61.328125 53.894531 61.085938 C 54.34375 61.027344 54.253906 60.21875 53.777344 60.277344 C 51.886719 60.425781 50 60.789062 48.082031 60.847656 C 46.164062 60.90625 44.398438 61.628906 42.480469 61.808594 C 40.890625 61.957031 39.421875 62.40625 37.894531 62.828125 C 37.117188 63.039062 36.367188 63.398438 35.617188 63.699219 C 35.347656 63.816406 35.046875 63.90625 34.808594 64.027344 C 34.808594 63.367188 34.839844 62.738281 34.75 62.078125 C 34.75 61.988281 34.71875 61.898438 34.6875 61.835938 C 34.75 61.867188 34.808594 61.898438 34.867188 61.925781 C 34.839844 61.925781 34.867188 61.925781 34.957031 61.957031 C 34.988281 61.957031 35.019531 61.957031 35.046875 61.957031 C 35.078125 61.957031 35.078125 61.957031 35.078125 61.957031 C 35.078125 61.957031 35.078125 61.957031 35.109375 61.957031 C 35.257812 61.925781 35.347656 61.867188 35.496094 61.808594 C 35.40625 61.835938 35.648438 61.71875 35.679688 61.71875 C 35.769531 61.65625 35.886719 61.628906 35.976562 61.566406 C 36.277344 61.449219 36.605469 61.359375 36.90625 61.265625 C 37.445312 61.085938 37.984375 60.90625 38.554688 60.757812 C 40.953125 60.097656 43.410156 59.585938 45.804688 59.015625 C 46.226562 58.925781 46.046875 58.296875 45.625 58.386719 C 43.257812 58.808594 40.890625 59.167969 38.523438 59.617188 C 37.414062 59.828125 36.277344 60.097656 35.257812 60.578125 C 34.988281 60.699219 34.660156 60.9375 34.507812 61.207031 C 34.300781 60.578125 34.058594 59.886719 34.210938 59.316406 C 34.75 59.617188 35.347656 59.285156 35.917969 59.046875 C 36.605469 58.777344 37.355469 58.65625 38.046875 58.386719 C 39.484375 57.847656 40.953125 57.515625 42.390625 57.066406 C 42.628906 57.007812 42.597656 56.585938 42.328125 56.617188 C 41.582031 56.675781 40.832031 56.707031 40.082031 56.765625 C 39.304688 56.828125 38.613281 57.007812 37.863281 57.277344 C 37.175781 57.515625 36.457031 57.636719 35.769531 57.847656 C 35.257812 57.996094 34.6875 58.175781 34.269531 58.507812 C 34.121094 58.328125 33.820312 58.238281 33.609375 58.476562 C 32.859375 59.4375 33.160156 60.546875 33.460938 61.628906 C 33.851562 63.097656 33.460938 64.6875 33.671875 66.1875 C 33.878906 67.6875 34.121094 69.1875 34.300781 70.691406 C 34.390625 71.378906 34.328125 72.039062 34.269531 72.730469 C 34.238281 73.121094 34.359375 73.601562 34.808594 73.570312 C 34.988281 73.570312 35.199219 73.480469 35.289062 73.300781 C 35.46875 72.910156 35.527344 72.488281 35.558594 72.070312 C 35.976562 72.339844 36.546875 72.429688 36.636719 71.890625 C 36.757812 72.039062 36.757812 72.128906 36.726562 72.160156 C 36.785156 72.160156 36.875 72.128906 37.054688 72.160156 C 37.714844 72.160156 38.40625 71.710938 39.035156 71.5 C 40.59375 71.019531 42.238281 70.691406 43.828125 70.300781 C 47.242188 69.460938 50.570312 68.230469 54.015625 67.539062 C 57.371094 66.878906 60.757812 66.308594 64.171875 65.886719 C 66 65.648438 67.800781 65.347656 69.628906 65.257812 C 71.003906 65.199219 72.414062 65.378906 73.582031 64.476562 C 73.820312 64.207031 73.851562 63.878906 73.550781 63.816406 Z M 73.550781 63.816406 " fill-opacity="1" fill-rule="nonzero"/><path fill="#0a141e" d="M 39.601562 65.648438 C 38.464844 65.949219 37.355469 66.308594 36.246094 66.730469 C 35.707031 66.9375 35.226562 67.148438 35.167969 67.777344 C 35.136719 68.050781 35.46875 68.289062 35.707031 68.199219 C 40.171875 66.757812 44.726562 65.796875 49.3125 64.867188 C 52.039062 64.328125 54.765625 63.90625 57.492188 63.398438 C 60.308594 62.859375 63.066406 62.859375 65.910156 62.707031 C 66.628906 62.679688 66.628906 61.597656 65.910156 61.597656 C 63.15625 61.65625 60.429688 61.539062 57.703125 61.988281 C 54.464844 62.527344 51.257812 63.039062 48.054688 63.699219 C 45.207031 64.269531 42.417969 64.957031 39.601562 65.648438 Z M 39.601562 65.648438 " fill-opacity="1" fill-rule="nonzero"/><path fill="#0a141e" d="M 57.191406 81.28125 C 54.644531 81.492188 52.128906 81.640625 49.582031 81.703125 C 49.101562 81.703125 43.917969 82.09375 44.128906 81.101562 C 44.1875 80.863281 43.976562 80.683594 43.769531 80.742188 C 43.617188 80.773438 43.46875 80.800781 43.320312 80.832031 C 43.078125 80.863281 42.871094 81.160156 42.898438 81.402344 C 42.929688 82.753906 44.816406 82.933594 45.867188 83.050781 C 48.742188 83.324219 51.886719 83.050781 54.765625 82.84375 C 57.550781 82.632812 60.398438 82.574219 63.183594 82.183594 C 64.683594 81.972656 66.121094 81.460938 67.648438 81.253906 C 69.238281 81.042969 70.824219 80.980469 72.445312 80.863281 C 73.132812 80.800781 73.132812 79.75 72.445312 79.78125 C 70.078125 79.902344 67.679688 79.933594 65.34375 80.441406 C 62.617188 81.011719 59.917969 81.070312 57.191406 81.28125 Z M 57.191406 81.28125 " fill-opacity="1" fill-rule="nonzero"/><path fill="#0a141e" d="M 46.015625 79.933594 C 47.964844 80.410156 49.878906 80.773438 51.859375 80.472656 C 53.957031 80.140625 56.113281 80.261719 58.179688 79.8125 C 58.839844 79.660156 58.570312 78.671875 57.910156 78.792969 C 55.875 79.210938 53.804688 79.03125 51.769531 79.300781 C 50.78125 79.421875 49.789062 79.390625 48.800781 79.300781 C 47.875 79.210938 46.914062 79.089844 46.015625 79.363281 C 45.746094 79.421875 45.714844 79.871094 46.015625 79.933594 Z M 46.015625 79.933594 " fill-opacity="1" fill-rule="nonzero"/><path fill="#0a141e" d="M 94.226562 56.257812 C 93.449219 56.226562 92.699219 56.316406 91.921875 56.285156 C 91.589844 56.257812 91.261719 56.167969 90.871094 56.195312 C 90.480469 56.226562 90.210938 56.316406 89.914062 56.554688 C 89.734375 56.707031 89.734375 57.007812 89.972656 57.066406 C 90.632812 57.246094 91.261719 57.457031 91.949219 57.488281 C 92.699219 57.546875 93.476562 57.457031 94.226562 57.488281 C 94.558594 57.488281 94.828125 57.1875 94.828125 56.886719 C 94.828125 56.527344 94.558594 56.257812 94.226562 56.257812 Z M 94.226562 56.257812 " fill-opacity="1" fill-rule="nonzero"/><path fill="#0a141e" d="M 103.90625 63.039062 C 103.246094 62.917969 102.585938 62.707031 101.929688 62.585938 C 101.570312 62.496094 101.210938 62.4375 100.820312 62.40625 C 100.640625 62.40625 100.488281 62.378906 100.308594 62.378906 C 100.070312 62.378906 99.859375 62.46875 99.652344 62.585938 C 99.171875 62.828125 99.320312 63.546875 99.800781 63.699219 C 100.011719 63.757812 100.191406 63.789062 100.398438 63.789062 C 100.550781 63.789062 100.699219 63.789062 100.820312 63.816406 C 100.847656 63.816406 101.121094 63.847656 101 63.847656 C 101.058594 63.847656 101.148438 63.878906 101.210938 63.878906 C 101.359375 63.90625 101.507812 63.9375 101.660156 63.96875 C 102.289062 64.117188 102.917969 64.296875 103.546875 64.417969 C 103.90625 64.476562 104.324219 64.328125 104.414062 63.9375 C 104.476562 63.578125 104.296875 63.128906 103.90625 63.039062 Z M 103.90625 63.039062 " fill-opacity="1" fill-rule="nonzero"/><g clip-path="url(#c40945352a)"><path fill="#0a141e" d="M 144.355469 47.132812 C 143.339844 46.445312 142.199219 45.84375 141.121094 45.242188 C 138.785156 43.921875 136.265625 42.964844 133.808594 41.851562 C 131.472656 40.773438 129.105469 39.632812 126.738281 38.640625 C 125.570312 38.164062 124.371094 37.710938 123.203125 37.230469 C 122.964844 37.140625 122.695312 37.050781 122.394531 36.960938 C 122.332031 36.871094 122.242188 36.78125 122.09375 36.722656 C 121.824219 36.632812 121.523438 36.570312 121.253906 36.480469 C 120.476562 36.152344 119.695312 35.820312 118.949219 35.492188 C 118.976562 35.3125 118.886719 35.101562 118.679688 35.042969 C 116.519531 34.320312 114.363281 33.511719 112.265625 32.699219 C 111.578125 32.402344 110.886719 32.128906 110.167969 31.832031 C 106.960938 30.539062 103.726562 29.339844 100.550781 27.960938 C 99.140625 27.328125 97.734375 26.699219 96.324219 26.070312 C 95.636719 25.769531 94.976562 25.378906 94.289062 25.140625 C 93.808594 24.960938 93.296875 24.929688 92.847656 24.628906 C 92.640625 24.480469 92.398438 24.597656 92.25 24.777344 C 90.902344 24.207031 89.492188 23.757812 88.144531 23.21875 C 87.484375 22.949219 86.828125 22.648438 86.136719 22.4375 C 86.015625 22.410156 85.867188 22.347656 85.71875 22.320312 C 85.207031 22.078125 84.699219 21.839844 84.191406 21.628906 C 84.160156 21.628906 84.128906 21.597656 84.101562 21.597656 C 81.28125 20.398438 78.40625 19.378906 75.558594 18.148438 C 73.640625 17.335938 71.722656 16.585938 69.777344 15.835938 C 68.007812 15.148438 66.300781 14.308594 64.53125 13.617188 C 64.59375 13.195312 64.203125 12.625 63.722656 12.835938 C 63.09375 13.078125 62.765625 13.554688 62.257812 13.976562 C 62.226562 14.007812 62.164062 14.035156 62.136719 14.066406 C 62.046875 14.007812 61.957031 13.917969 61.835938 13.855469 C 61.207031 13.496094 60.429688 14.214844 60.816406 14.875 C 60.847656 14.90625 60.847656 14.90625 60.878906 14.9375 C 60.546875 15.148438 60.25 15.355469 59.917969 15.566406 C 59.769531 15.65625 59.617188 15.777344 59.46875 15.867188 C 59.5 15.628906 59.320312 15.355469 58.960938 15.417969 C 58 15.597656 57.042969 16.195312 56.261719 16.738281 C 55.335938 17.367188 54.40625 17.996094 53.476562 18.65625 C 51.230469 19.347656 49.042969 20.878906 47.304688 22.199219 C 44.15625 24.570312 41.042969 26.941406 37.925781 29.371094 C 34.988281 31.652344 32.113281 33.871094 28.90625 35.792969 C 26.777344 37.050781 23.933594 38.582031 22.613281 40.863281 C 21.746094 41.132812 21.023438 41.703125 20.277344 42.214844 C 19.289062 42.875 18.328125 43.59375 17.398438 44.402344 C 16.890625 44.855469 16.382812 45.304688 15.871094 45.722656 C 14.613281 44.792969 12.816406 44.34375 11.40625 44.074219 C 9.578125 43.714844 7.363281 43.535156 5.773438 44.703125 C 4.277344 45.8125 3.886719 47.675781 3.976562 49.445312 C 4.035156 50.976562 4.277344 52.476562 4.574219 53.976562 C 4.367188 54.125 4.1875 54.304688 4.003906 54.484375 C 4.003906 54.484375 3.976562 54.515625 3.976562 54.515625 C 3.617188 54.695312 3.226562 54.90625 2.898438 55.144531 C 2.238281 55.625 1.910156 56.105469 1.609375 56.855469 C 1.578125 56.945312 1.609375 57.066406 1.667969 57.125 C 1.519531 57.488281 1.429688 57.90625 1.21875 58.238281 C 1.097656 58.417969 1.1875 58.566406 1.339844 58.65625 C 1.308594 58.65625 1.308594 58.6875 1.277344 58.6875 C 1.128906 58.835938 0.980469 58.988281 0.859375 59.136719 C 0.738281 59.285156 0.621094 59.4375 0.558594 59.585938 C 0.558594 59.707031 0.53125 59.828125 0.53125 59.945312 C 0.5 60.1875 0.621094 60.457031 0.828125 60.546875 C 0.859375 60.578125 0.917969 60.578125 0.980469 60.578125 C 0.917969 60.789062 0.917969 61.027344 1.039062 61.265625 C 1.160156 61.566406 1.429688 61.71875 1.730469 61.746094 C 1.9375 61.777344 2.148438 61.746094 2.359375 61.835938 C 2.539062 61.898438 2.71875 61.65625 2.597656 61.507812 C 2.507812 61.328125 2.359375 61.207031 2.207031 61.058594 C 2.238281 61.027344 2.269531 60.996094 2.269531 60.96875 C 2.269531 60.96875 2.296875 60.96875 2.296875 60.9375 C 2.808594 61.085938 3.347656 61.238281 3.855469 61.386719 C 4.664062 61.628906 5.472656 61.835938 6.3125 62.019531 C 7.273438 65.949219 8.351562 69.847656 9.25 73.808594 C 9.910156 76.691406 10.328125 79.511719 10.628906 82.453125 C 10.746094 83.683594 10.957031 84.914062 11.046875 86.113281 C 11.078125 86.535156 11.105469 86.921875 11.136719 87.34375 C 11.136719 87.433594 11.167969 88.574219 11.226562 88.152344 C 11.167969 88.695312 11.4375 89.175781 12.007812 89.203125 C 12.035156 89.203125 12.097656 89.203125 12.125 89.203125 C 12.15625 89.472656 12.214844 89.773438 12.246094 90.042969 C 12.425781 91.304688 12.457031 92.566406 12.636719 93.824219 C 13.355469 98.507812 14.34375 103.128906 15.902344 107.597656 C 16.050781 108.019531 16.320312 108.316406 16.679688 108.5 C 16.769531 108.738281 16.832031 108.976562 16.832031 109.25 C 16.621094 109.339844 16.410156 109.457031 16.171875 109.636719 C 14.734375 110.71875 14.703125 112.398438 14.402344 114.019531 C 14.042969 115.851562 14.195312 117.800781 14.253906 119.632812 C 14.253906 120.019531 14.285156 120.441406 14.3125 120.832031 C 14.074219 122.480469 13.835938 124.132812 13.714844 125.78125 C 13.625 126.953125 13.503906 128.121094 13.625 129.292969 C 13.652344 129.683594 13.714844 130.011719 13.863281 130.375 C 13.953125 130.613281 14.222656 130.972656 14.253906 131.214844 C 14.285156 131.515625 14.582031 131.722656 14.851562 131.632812 C 14.914062 131.722656 14.972656 131.84375 15.03125 131.933594 C 15.242188 132.175781 15.660156 132.144531 15.871094 131.933594 C 16.019531 131.753906 16.171875 131.605469 16.320312 131.453125 C 16.5625 131.722656 17.039062 131.84375 17.488281 131.695312 C 17.789062 131.574219 18 131.363281 18.238281 131.152344 C 18.207031 131.214844 18.207031 131.273438 18.207031 131.332031 C 18.207031 131.695312 18.566406 131.902344 18.898438 131.964844 C 19.796875 132.113281 20.90625 131.753906 21.804688 131.574219 C 22.582031 131.421875 23.332031 131.152344 24.140625 131.09375 C 24.410156 131.125 24.679688 131.152344 24.949219 131.183594 C 25.101562 131.214844 25.21875 131.183594 25.308594 131.125 C 25.910156 131.183594 26.539062 131.273438 27.136719 131.363281 C 27.40625 131.394531 27.945312 131.332031 28.1875 131.453125 C 28.335938 131.515625 28.488281 131.753906 28.605469 131.902344 C 28.847656 132.171875 29.265625 132.023438 29.386719 131.695312 C 29.414062 131.605469 29.414062 131.511719 29.414062 131.421875 C 29.59375 131.273438 29.714844 131.0625 29.714844 130.824219 C 29.835938 129.832031 29.953125 129.054688 29.773438 128.0625 C 29.625 127.253906 29.414062 126.441406 29.175781 125.664062 C 29.054688 124.191406 28.875 122.75 28.488281 121.339844 C 27.527344 118.039062 26.03125 114.679688 23.664062 112.160156 C 22.644531 111.078125 21.175781 109.757812 19.617188 109.21875 C 19.617188 109.128906 19.648438 109.007812 19.617188 108.917969 C 19.558594 108.257812 19.378906 107.628906 19.136719 106.996094 C 19.378906 105.199219 18.148438 102.855469 17.667969 101.355469 C 16.832031 98.597656 16.261719 95.625 15.722656 92.804688 C 15.183594 90.074219 14.671875 87.34375 14.285156 84.582031 C 14.132812 83.53125 13.863281 82.511719 13.59375 81.523438 C 12.695312 74.832031 10.089844 66.039062 9.609375 64.507812 C 9.429688 63.90625 9.25 63.308594 9.070312 62.707031 C 10.539062 63.039062 12.007812 63.398438 13.472656 63.726562 C 13.5625 64.058594 13.835938 64.269531 14.132812 64.417969 C 14.703125 64.6875 15.363281 64.898438 15.929688 65.136719 C 17.28125 65.679688 18.75 66.097656 20.1875 66.429688 C 21.535156 66.757812 22.851562 67.300781 24.203125 67.628906 C 25.191406 67.867188 26.121094 68.167969 27.019531 68.589844 C 27.226562 70.359375 27.40625 72.101562 27.617188 73.871094 C 27.765625 75.3125 27.738281 77.410156 28.757812 78.550781 C 28.9375 78.761719 29.265625 78.640625 29.324219 78.402344 C 29.355469 78.3125 29.355469 78.222656 29.386719 78.132812 C 29.445312 78.191406 29.503906 78.25 29.59375 78.3125 C 29.625 78.339844 29.65625 78.339844 29.683594 78.339844 C 29.683594 78.371094 29.683594 78.371094 29.683594 78.402344 C 29.683594 78.613281 29.683594 78.820312 29.714844 79.03125 C 29.746094 79.363281 29.835938 79.660156 29.894531 79.992188 C 29.386719 80.382812 29.65625 80.921875 30.074219 81.191406 C 30.074219 81.640625 30.105469 82.09375 30.195312 82.574219 C 30.375 83.234375 30.582031 83.832031 31.0625 84.371094 C 31.214844 84.554688 31.511719 84.460938 31.601562 84.28125 C 31.664062 84.371094 31.722656 84.460938 31.78125 84.523438 C 32.023438 84.703125 32.410156 84.761719 32.621094 84.523438 C 32.769531 84.824219 32.949219 85.09375 33.160156 85.363281 C 33.519531 85.8125 33.820312 86.292969 34.238281 86.714844 C 34.6875 87.164062 35.199219 87.554688 35.707031 87.914062 C 36.21875 88.273438 36.726562 88.574219 37.296875 88.785156 C 37.835938 88.992188 38.34375 89.203125 38.882812 89.472656 C 39.453125 89.773438 39.960938 89.984375 40.59375 90.042969 C 41.070312 90.074219 41.582031 90.164062 42 89.925781 C 42.121094 89.863281 42.179688 89.773438 42.210938 89.683594 C 42.539062 89.742188 42.871094 89.835938 43.199219 89.894531 C 45.957031 90.375 48.683594 91.003906 51.46875 91.183594 C 56.023438 91.453125 61.476562 91.695312 65.492188 89.113281 C 67.082031 89.082031 68.726562 89.113281 70.316406 88.964844 C 71.304688 89.382812 72.382812 89.175781 73.460938 89.113281 C 74.75 89.023438 76.070312 88.964844 77.359375 88.84375 C 80.355469 88.574219 83.351562 88.304688 86.347656 87.882812 C 89.132812 87.492188 92.21875 87.285156 94.917969 86.382812 C 96.445312 85.875 98.03125 85.484375 99.5625 84.972656 C 100.910156 84.851562 102.226562 84.671875 103.457031 84.28125 C 104.625 83.921875 105.792969 83.59375 106.960938 83.203125 C 107.441406 83.203125 107.949219 83.113281 108.402344 83.050781 C 109.539062 82.84375 110.707031 82.542969 111.816406 82.121094 C 113.972656 81.3125 115.742188 79.933594 117.539062 78.519531 C 117.628906 78.460938 117.6875 78.371094 117.71875 78.28125 C 119.15625 77.292969 120.296875 75.699219 121.046875 74.230469 C 122.421875 71.558594 122.601562 68.378906 122.332031 65.4375 C 122.363281 65.410156 122.394531 65.347656 122.421875 65.320312 C 122.453125 65.257812 122.511719 65.199219 122.542969 65.136719 C 122.8125 64.898438 123.054688 64.660156 123.324219 64.449219 C 123.863281 63.96875 124.371094 63.488281 124.878906 62.976562 C 124.96875 62.917969 125.058594 62.859375 125.152344 62.828125 C 125.152344 62.828125 125.179688 62.828125 125.179688 62.796875 C 126.078125 62.46875 126.976562 62.136719 127.847656 61.777344 C 130.15625 60.757812 132.402344 59.46875 134.4375 58.027344 C 136.355469 56.675781 138.183594 55.355469 139.804688 53.644531 C 140.640625 52.746094 141.628906 52.023438 142.589844 51.273438 C 143.457031 50.585938 144.539062 50.046875 145.316406 49.234375 C 145.554688 49.292969 145.765625 49.054688 145.734375 48.816406 C 145.585938 47.882812 144.988281 47.554688 144.355469 47.132812 Z M 2.179688 61.238281 C 2.179688 61.238281 2.179688 61.265625 2.179688 61.238281 C 2.179688 61.328125 2.179688 61.296875 2.179688 61.238281 Z M 2.71875 58.957031 C 2.746094 58.925781 2.777344 58.898438 2.808594 58.867188 C 2.808594 58.867188 2.835938 58.867188 2.835938 58.867188 C 2.777344 58.898438 2.746094 58.925781 2.71875 58.957031 Z M 5.472656 58.746094 C 5.503906 58.746094 5.503906 58.71875 5.535156 58.71875 C 5.535156 58.746094 5.535156 58.746094 5.535156 58.777344 C 5.535156 58.746094 5.503906 58.746094 5.472656 58.746094 Z M 17.371094 129.472656 C 17.308594 129.472656 17.28125 129.472656 17.21875 129.503906 C 17.25 129.351562 17.25 129.203125 17.25 129.054688 C 17.308594 129.203125 17.371094 129.324219 17.460938 129.414062 C 17.429688 129.414062 17.398438 129.441406 17.371094 129.472656 Z M 22.3125 129.683594 C 22.222656 129.683594 22.105469 129.652344 22.015625 129.652344 C 22.015625 129.5625 22.042969 129.503906 22.042969 129.414062 C 22.464844 129.414062 22.851562 129.441406 23.273438 129.503906 C 22.914062 129.535156 22.613281 129.625 22.3125 129.683594 Z M 25.371094 120.621094 C 25.847656 121.492188 26.148438 122.421875 26.507812 123.320312 C 26.75 123.890625 27.019531 124.460938 27.226562 125.0625 C 27.378906 126.441406 27.585938 127.761719 27.40625 129.113281 C 26.929688 128.875 26.417969 128.664062 25.878906 128.484375 C 25.640625 128.394531 25.398438 128.304688 25.160156 128.242188 C 25.128906 127.492188 24.980469 126.710938 24.921875 126.082031 C 24.769531 124.640625 24.472656 123.261719 24.203125 121.820312 C 23.933594 120.320312 23.753906 118.820312 23.601562 117.320312 C 24.203125 118.371094 24.769531 119.511719 25.371094 120.621094 Z M 19.617188 111.710938 C 19.675781 111.738281 19.765625 111.769531 19.828125 111.828125 C 19.738281 112.007812 19.738281 112.21875 19.917969 112.371094 C 20.636719 112.9375 21.265625 113.71875 21.835938 114.53125 C 21.835938 114.679688 21.835938 114.828125 21.863281 114.949219 C 21.984375 115.730469 22.164062 116.480469 22.222656 117.261719 C 22.34375 118.699219 22.402344 120.109375 22.613281 121.550781 C 22.851562 123.050781 23.183594 124.523438 23.332031 126.050781 C 23.390625 126.621094 23.421875 127.191406 23.453125 127.761719 C 23.363281 127.734375 23.273438 127.734375 23.183594 127.703125 C 22.734375 127.644531 22.285156 127.613281 21.835938 127.644531 C 21.804688 127.460938 21.773438 127.3125 21.746094 127.191406 C 21.445312 125.511719 21.207031 123.800781 20.964844 122.121094 C 20.726562 120.53125 20.605469 118.941406 20.367188 117.351562 C 20.125 115.730469 20.035156 113.960938 19.289062 112.488281 C 19.226562 112.371094 19.167969 112.308594 19.078125 112.277344 C 19.316406 112.160156 19.496094 111.980469 19.617188 111.710938 Z M 17.160156 115.699219 C 17.191406 115.371094 17.488281 112.039062 18.207031 112.308594 C 18.296875 112.339844 18.386719 112.339844 18.476562 112.339844 C 18.359375 112.460938 18.238281 112.609375 18.238281 112.789062 C 18.207031 113.660156 18.539062 114.5 18.597656 115.371094 C 18.660156 116.210938 18.6875 117.050781 18.777344 117.890625 C 18.988281 119.449219 19.046875 121.042969 19.289062 122.601562 C 19.40625 123.472656 19.617188 124.34375 19.648438 125.242188 C 19.707031 126.082031 19.765625 126.894531 19.976562 127.734375 C 20.007812 127.824219 20.035156 127.941406 20.035156 128.03125 C 19.558594 128.183594 19.109375 128.394531 18.6875 128.632812 C 18.6875 128.601562 18.6875 128.574219 18.6875 128.542969 C 18.75 127.972656 18.75 127.371094 18.6875 126.773438 C 18.566406 125.632812 18.449219 124.433594 18.269531 123.292969 C 18.089844 122.179688 17.730469 121.132812 17.640625 120.019531 C 17.550781 119.03125 17.488281 118.101562 16.980469 117.230469 C 17.039062 116.691406 17.101562 116.210938 17.160156 115.699219 Z M 124.429688 39.242188 C 125.570312 39.722656 126.679688 40.203125 127.816406 40.683594 C 126.648438 40.261719 125.511719 39.84375 124.339844 39.390625 C 124.339844 39.300781 124.3125 39.242188 124.25 39.183594 C 124.28125 39.210938 124.371094 39.242188 124.429688 39.242188 Z M 116.25 36.300781 C 117.570312 36.871094 119.007812 37.171875 120.445312 37.53125 C 121.40625 38.191406 122.722656 38.640625 123.773438 39.003906 C 123.683594 39.003906 123.59375 39.03125 123.503906 39.09375 C 121.105469 38.164062 118.707031 37.261719 116.28125 36.363281 C 115.863281 36.183594 115.441406 36 115.023438 35.820312 C 115.410156 35.941406 115.832031 36.121094 116.25 36.300781 Z M 99.410156 29.28125 C 99.410156 29.28125 99.382812 29.28125 99.382812 29.28125 C 98.902344 29.070312 98.390625 28.921875 97.914062 28.738281 C 97.464844 28.53125 97.042969 28.320312 96.59375 28.109375 C 97.554688 28.46875 98.480469 28.890625 99.410156 29.28125 Z M 85.808594 24.207031 C 85.835938 24.207031 85.867188 24.238281 85.925781 24.238281 C 86.886719 24.628906 87.785156 25.199219 88.714844 25.679688 C 88.535156 25.621094 88.355469 25.558594 88.175781 25.5 C 87.636719 25.320312 87.097656 25.109375 86.527344 24.929688 C 86.285156 24.808594 86.015625 24.71875 85.777344 24.597656 C 85.808594 24.507812 85.835938 24.359375 85.808594 24.207031 Z M 82.390625 22.289062 C 82.421875 22.347656 82.453125 22.410156 82.480469 22.4375 C 82.210938 22.289062 81.941406 22.136719 81.671875 21.988281 C 81.914062 22.078125 82.152344 22.167969 82.390625 22.289062 Z M 67.558594 16.585938 C 69.117188 17.1875 70.644531 17.816406 72.234375 18.359375 C 72.355469 18.417969 72.472656 18.386719 72.59375 18.359375 C 73.074219 18.539062 73.582031 18.746094 74.0625 18.957031 C 74.363281 19.4375 75.082031 19.828125 75.46875 20.039062 C 75.738281 20.1875 75.980469 20.339844 76.21875 20.488281 C 74.902344 19.976562 73.613281 19.46875 72.265625 18.988281 C 71.304688 18.628906 70.316406 18.328125 69.355469 17.996094 C 69.386719 17.878906 69.355469 17.726562 69.265625 17.578125 C 68.90625 17.097656 68.308594 16.917969 67.800781 16.675781 C 67.648438 16.617188 67.5 16.527344 67.351562 16.46875 C 67.410156 16.527344 67.5 16.558594 67.558594 16.585938 Z M 58.988281 18.117188 C 59.890625 17.515625 60.9375 16.796875 61.925781 16.558594 C 62.105469 16.617188 62.316406 16.585938 62.464844 16.46875 C 62.527344 16.40625 62.585938 16.378906 62.644531 16.316406 C 62.707031 16.257812 62.734375 16.195312 62.765625 16.105469 C 63.003906 16.226562 63.246094 16.316406 63.484375 16.40625 C 63.453125 16.40625 63.425781 16.4375 63.363281 16.4375 C 62.707031 16.675781 62.015625 16.886719 61.355469 17.15625 C 60.667969 17.425781 60.007812 17.816406 59.320312 18.117188 C 59.050781 18.238281 58.75 18.328125 58.480469 18.449219 C 58.628906 18.359375 58.808594 18.238281 58.988281 18.117188 Z M 30.3125 37.023438 C 31.78125 36.121094 33.160156 35.132812 34.539062 34.109375 C 33.550781 34.921875 32.5625 35.761719 31.574219 36.542969 C 31.421875 36.660156 31.273438 36.78125 31.125 36.902344 C 30.613281 37.050781 30.105469 37.230469 29.59375 37.472656 C 29.835938 37.320312 30.074219 37.171875 30.3125 37.023438 Z M 13.175781 46.144531 C 13.414062 46.234375 13.625 46.324219 13.835938 46.414062 C 13.835938 46.445312 13.863281 46.503906 13.894531 46.535156 C 13.953125 46.59375 13.984375 46.652344 14.015625 46.746094 C 14.015625 46.746094 14.015625 46.804688 14.015625 46.835938 C 13.984375 46.835938 13.953125 46.804688 13.925781 46.804688 C 13.804688 46.773438 13.683594 46.714844 13.5625 46.683594 C 13.535156 46.652344 13.472656 46.652344 13.445312 46.625 C 13.414062 46.625 13.355469 46.59375 13.355469 46.59375 C 13.265625 46.5625 13.203125 46.535156 13.113281 46.503906 C 13.144531 46.355469 13.175781 46.234375 13.175781 46.144531 Z M 7.273438 50.136719 C 7.210938 50.464844 7.183594 50.796875 7.121094 51.09375 C 7.09375 50.40625 7.03125 49.683594 7.09375 48.996094 C 7.121094 48.484375 7.152344 47.945312 7.242188 47.433594 C 7.332031 46.953125 7.722656 46.835938 8.171875 46.683594 C 8.351562 46.625 8.5 46.625 8.679688 46.59375 C 8.890625 46.652344 9.128906 46.652344 9.371094 46.714844 C 9.789062 46.773438 10.207031 46.925781 10.597656 47.074219 C 11.375 47.34375 12.15625 47.554688 12.933594 47.792969 C 13.054688 47.824219 13.203125 47.882812 13.355469 47.914062 C 12.753906 48.425781 12.1875 48.90625 11.585938 49.386719 C 11.585938 49.386719 11.558594 49.414062 11.558594 49.414062 C 11.40625 49.386719 11.226562 49.386719 11.015625 49.476562 C 10.207031 49.925781 9.398438 50.375 8.621094 50.855469 C 8.648438 50.765625 8.648438 50.644531 8.648438 50.554688 C 8.828125 49.59375 7.421875 49.203125 7.273438 50.136719 Z M 23.722656 65.738281 C 23.480469 65.648438 23.242188 65.558594 23.003906 65.46875 C 23.871094 65.648438 24.710938 65.859375 25.578125 65.949219 C 25.789062 65.980469 25.941406 65.917969 26.058594 65.796875 C 26.269531 65.859375 26.507812 65.917969 26.71875 65.980469 C 26.71875 66.1875 26.75 66.398438 26.777344 66.609375 C 25.757812 66.308594 24.742188 66.007812 23.722656 65.738281 Z M 28.636719 58.296875 C 28.605469 58.328125 28.605469 58.328125 28.578125 58.355469 C 28.578125 58.296875 28.578125 58.238281 28.578125 58.207031 C 28.605469 58.175781 28.636719 58.175781 28.667969 58.148438 C 28.636719 58.175781 28.636719 58.238281 28.636719 58.296875 Z M 29.175781 64.296875 C 29.054688 63.398438 28.964844 62.46875 28.875 61.566406 C 28.875 61.539062 28.875 61.507812 28.875 61.476562 C 28.9375 61.476562 28.996094 61.476562 29.085938 61.449219 C 29.207031 62.316406 29.144531 63.21875 29.296875 64.117188 C 29.324219 64.207031 29.324219 64.328125 29.324219 64.417969 C 29.265625 64.328125 29.207031 64.296875 29.175781 64.296875 Z M 30.765625 74.679688 C 30.554688 72.789062 30.253906 70.929688 30.015625 69.070312 C 30.074219 69.398438 30.132812 69.730469 30.195312 70.058594 C 30.402344 71.589844 30.644531 73.089844 30.914062 74.621094 C 30.855469 74.621094 30.824219 74.652344 30.765625 74.679688 Z M 90.722656 83.59375 C 90.511719 83.683594 90.480469 83.863281 90.542969 84.011719 C 90.273438 84.074219 90.03125 84.101562 89.761719 84.164062 C 88.175781 84.460938 86.558594 84.492188 85 84.824219 C 81.761719 85.484375 78.554688 85.902344 75.289062 86.351562 C 75.019531 86.382812 74.722656 86.414062 74.453125 86.441406 C 74.480469 86.351562 74.480469 86.261719 74.480469 86.171875 C 75.679688 85.992188 76.878906 85.8125 78.078125 85.632812 C 81.550781 85.152344 85 84.523438 88.445312 83.921875 C 89.195312 83.800781 89.972656 83.683594 90.722656 83.59375 Z M 96.535156 83.113281 C 95.425781 83.082031 94.378906 83.203125 93.269531 83.203125 C 93.179688 83.203125 93.117188 83.203125 93.027344 83.203125 C 94.199219 83.023438 95.367188 82.871094 96.535156 82.722656 C 96.714844 82.871094 96.894531 82.992188 97.105469 83.082031 C 96.953125 83.113281 96.746094 83.140625 96.535156 83.113281 Z M 118.050781 65.886719 C 117.71875 65.828125 117.417969 65.707031 117.089844 65.648438 C 116.132812 65.5 115.171875 65.320312 114.242188 65.078125 C 113.34375 64.839844 112.445312 64.539062 111.515625 64.417969 C 111.066406 64.359375 110.648438 64.328125 110.199219 64.359375 C 109.777344 64.386719 109.328125 64.507812 108.910156 64.328125 C 108.640625 64.207031 108.339844 64.539062 108.582031 64.777344 C 109.121094 65.347656 110.046875 65.257812 110.769531 65.4375 C 111.667969 65.679688 112.503906 66.128906 113.40625 66.398438 C 114.304688 66.640625 115.292969 66.757812 116.191406 66.847656 C 116.609375 66.878906 117 66.910156 117.417969 67 C 117.777344 67.089844 118.257812 67.027344 118.617188 67.179688 C 118.378906 67.507812 118.167969 67.839844 118.019531 68.230469 C 117.808594 68.800781 117.75 69.429688 117.660156 70 C 115.652344 68.980469 113.40625 68.167969 111.246094 67.570312 C 106.035156 66.097656 100.789062 65.828125 95.425781 65.769531 C 90.511719 65.707031 85.449219 66.039062 80.5625 66.730469 C 78.105469 67.058594 75.621094 67.238281 73.191406 67.75 C 71.964844 67.988281 70.375 67.988281 69.566406 69.097656 C 69.085938 69.730469 70.136719 70.539062 70.675781 69.941406 C 71.125 69.429688 72.144531 69.550781 72.742188 69.488281 C 73.640625 69.398438 74.570312 69.28125 75.46875 69.1875 C 76.636719 69.097656 77.835938 68.949219 79.003906 68.800781 C 79.035156 68.917969 79.125 69.039062 79.304688 69.039062 C 80.144531 69.128906 80.984375 69.1875 81.792969 69.308594 C 82.570312 69.429688 83.378906 69.609375 84.160156 69.699219 C 84.191406 70.03125 84.398438 70.328125 84.820312 70.359375 C 91.230469 70.898438 97.734375 70.601562 104.117188 71.679688 C 106.871094 72.128906 109.597656 72.730469 112.386719 73.148438 C 113.675781 73.332031 115.082031 73.75 116.339844 74.140625 C 116.042969 74.980469 115.621094 75.789062 115.023438 76.480469 C 114.722656 76.660156 114.421875 76.871094 114.214844 77.140625 C 114.003906 77.171875 113.765625 77.230469 113.554688 77.261719 C 112.714844 77.472656 111.875 77.769531 111.066406 78.160156 C 109.71875 78.820312 108.402344 79.453125 106.992188 79.933594 C 106.84375 79.78125 106.632812 79.691406 106.363281 79.839844 C 105.671875 80.203125 104.894531 80.082031 104.144531 80.171875 C 103.398438 80.261719 102.675781 80.410156 101.929688 80.53125 C 100.25 80.800781 98.511719 80.953125 96.804688 81.132812 C 93.777344 81.460938 90.691406 81.882812 87.695312 82.390625 C 84.25 82.992188 80.804688 83.5625 77.328125 83.984375 C 75.738281 84.164062 74.179688 84.371094 72.625 84.644531 C 71.453125 84.851562 70.078125 85.03125 68.90625 85.511719 C 66.089844 85.484375 63.273438 85.484375 60.457031 85.632812 C 58.359375 85.722656 56.261719 85.875 54.195312 85.8125 C 52.96875 85.78125 51.738281 85.664062 50.511719 85.691406 C 50.421875 85.664062 50.359375 85.664062 50.269531 85.691406 C 49.519531 85.722656 48.773438 85.78125 48.054688 85.964844 C 47.84375 86.023438 47.753906 86.203125 47.753906 86.382812 C 47.394531 86.382812 47.035156 86.351562 46.734375 86.351562 C 45.566406 86.292969 44.425781 86.054688 43.257812 86.023438 C 43.257812 86.023438 43.230469 86.023438 43.230469 86.023438 C 42.960938 85.964844 42.6875 85.933594 42.417969 85.84375 C 41.492188 85.632812 40.683594 85.273438 39.8125 84.914062 C 39.273438 84.703125 38.675781 84.644531 38.136719 84.523438 C 38.015625 84.34375 37.863281 84.164062 37.714844 84.011719 C 37.566406 83.863281 37.414062 83.710938 37.265625 83.5625 C 37.085938 83.351562 36.9375 83.140625 36.757812 82.960938 C 36.15625 82.300781 35.378906 81.820312 34.660156 81.3125 C 36.578125 80.5 38.585938 79.871094 40.503906 79.179688 C 43.230469 78.191406 45.984375 77.199219 48.710938 76.210938 C 51.289062 75.28125 53.777344 74.289062 56.292969 73.179688 C 57.222656 72.761719 58.152344 72.371094 59.078125 72.039062 C 59.410156 71.980469 59.738281 71.949219 60.097656 71.890625 C 61.746094 71.621094 63.363281 71.261719 64.984375 70.839844 C 65.792969 70.628906 65.460938 69.609375 64.742188 69.578125 C 64.742188 69.308594 64.5625 69.039062 64.203125 69.070312 C 61.175781 69.308594 58.242188 69.460938 55.335938 70.359375 C 52.847656 71.109375 50.449219 71.980469 48.023438 72.878906 C 47.574219 73.03125 47.152344 73.148438 46.703125 73.300781 C 44.335938 74.109375 42.058594 75.070312 39.722656 75.878906 C 39.601562 75.609375 39.332031 75.402344 38.972656 75.519531 C 37.804688 75.851562 36.695312 76.332031 35.617188 76.902344 C 35.527344 76.929688 35.46875 76.992188 35.378906 77.019531 C 35.347656 77.019531 35.289062 77.050781 35.316406 77.050781 C 35.257812 77.082031 35.226562 77.082031 35.167969 77.109375 C 34.957031 77.199219 34.75 77.351562 34.570312 77.472656 C 34.328125 77.621094 34.121094 77.832031 33.96875 78.070312 C 33.671875 78.191406 33.371094 78.339844 33.070312 78.460938 C 33.039062 78.191406 33.039062 77.890625 33.011719 77.621094 C 32.921875 76.839844 32.769531 76.089844 32.589844 75.339844 C 32.203125 73.449219 31.902344 71.589844 31.632812 69.699219 C 31.363281 67.867188 31.035156 66.039062 30.734375 64.238281 C 30.464844 62.707031 30.285156 61.175781 30.105469 59.617188 C 30.132812 59.558594 30.132812 59.496094 30.164062 59.46875 C 30.253906 59.078125 30.375 58.71875 30.492188 58.328125 C 30.882812 58.058594 31.242188 57.785156 31.632812 57.488281 C 32.742188 56.738281 33.699219 55.777344 34.808594 55.054688 C 36.007812 54.304688 37.265625 53.675781 38.496094 52.957031 C 39.0625 52.625 39.664062 52.265625 40.230469 51.933594 C 40.382812 51.84375 40.503906 51.785156 40.652344 51.726562 C 40.683594 51.726562 40.742188 51.695312 40.773438 51.695312 C 41.101562 52.144531 41.941406 52.355469 42.300781 51.90625 C 42.898438 51.546875 43.46875 51.183594 44.066406 50.796875 C 45.6875 50.316406 47.273438 49.773438 48.921875 49.382812 C 51.199219 48.875 53.355469 48.003906 55.632812 47.523438 C 58.332031 46.984375 61.058594 46.625 63.753906 46.113281 C 69.207031 45.125 74.8125 44.644531 80.382812 44.582031 C 83.140625 44.554688 85.898438 44.734375 88.652344 44.792969 C 91.351562 44.882812 94.078125 44.882812 96.746094 45.125 C 99.800781 45.394531 102.796875 45.84375 105.855469 46.113281 C 107.023438 46.203125 108.191406 46.414062 109.328125 46.625 C 110.527344 46.984375 111.667969 47.40625 112.804688 47.914062 C 113.914062 48.425781 114.933594 49.503906 116.132812 49.683594 C 116.132812 49.683594 116.160156 49.683594 116.160156 49.683594 C 116.339844 49.863281 116.519531 50.042969 116.699219 50.226562 C 116.460938 50.285156 116.28125 50.523438 116.25 50.765625 C 116.28125 51.363281 116.371094 51.964844 116.460938 52.535156 C 114.601562 51.335938 112.625 50.554688 110.496094 49.953125 C 107.980469 49.234375 105.523438 48.363281 102.945312 47.945312 C 100.519531 47.523438 97.972656 47.195312 95.515625 47.195312 C 94.199219 47.195312 92.878906 47.132812 91.5625 47.105469 C 90.542969 47.074219 89.644531 46.984375 88.714844 47.464844 C 88.414062 47.613281 88.472656 48.15625 88.804688 48.246094 C 90.960938 48.695312 93.328125 48.605469 95.515625 48.605469 C 97.941406 48.605469 100.460938 48.933594 102.828125 49.355469 C 105.132812 49.773438 107.382812 50.523438 109.628906 51.183594 C 111.964844 51.875 114.242188 52.476562 116.339844 53.765625 C 116.429688 53.824219 116.492188 53.824219 116.582031 53.855469 C 116.609375 54.367188 116.671875 54.875 116.730469 55.355469 C 115.503906 55.117188 114.304688 54.726562 113.105469 54.574219 C 111.007812 54.335938 108.96875 53.945312 106.871094 53.675781 C 104.65625 53.40625 102.40625 53.074219 100.160156 53.015625 C 98.480469 52.984375 96.054688 52.625 94.585938 53.585938 C 94.40625 53.707031 94.40625 54.035156 94.648438 54.066406 C 96.625 54.425781 98.601562 54.335938 100.609375 54.425781 C 102.886719 54.515625 105.164062 54.847656 107.441406 55.144531 C 109.539062 55.417969 111.667969 55.714844 113.765625 56.046875 C 114.84375 56.195312 115.890625 56.464844 116.941406 56.585938 C 117.089844 57.457031 117.269531 58.328125 117.417969 59.226562 C 113.972656 58.238281 110.46875 57.335938 106.902344 56.765625 C 105.015625 56.464844 103.097656 56.375 101.179688 56.40625 C 100.398438 56.40625 98.363281 56.105469 98.210938 57.246094 C 98.183594 57.367188 98.332031 57.457031 98.421875 57.457031 C 98.902344 57.457031 99.292969 57.605469 99.769531 57.667969 C 100.609375 57.785156 101.449219 57.726562 102.316406 57.726562 C 104.175781 57.726562 106.035156 57.964844 107.890625 58.265625 C 111.1875 58.835938 114.421875 59.707031 117.660156 60.488281 C 117.75 60.9375 117.839844 61.417969 117.929688 61.867188 C 117.839844 61.835938 117.71875 61.808594 117.628906 61.777344 C 116.941406 61.566406 116.222656 61.476562 115.503906 61.359375 C 114.003906 61.117188 112.503906 60.847656 111.007812 60.578125 C 109.507812 60.308594 108.039062 60.066406 106.511719 59.917969 C 105.855469 59.828125 105.195312 59.796875 104.535156 59.828125 C 103.9375 59.886719 103.335938 59.976562 102.738281 59.917969 C 102.378906 59.886719 102.289062 60.398438 102.558594 60.546875 C 103.695312 61.207031 105.042969 61.148438 106.304688 61.359375 C 107.832031 61.597656 109.390625 61.808594 110.917969 62.046875 C 112.414062 62.289062 113.914062 62.527344 115.410156 62.738281 C 116.3125 62.859375 117.269531 63.097656 118.199219 63.246094 C 118.378906 64.117188 118.558594 64.988281 118.738281 65.859375 C 118.558594 65.980469 118.320312 65.949219 118.050781 65.886719 Z M 104.386719 68.410156 C 103.964844 68.378906 103.515625 68.347656 103.097656 68.320312 C 99.292969 68.140625 95.546875 67.898438 91.769531 67.808594 C 92.488281 67.777344 93.207031 67.777344 93.929688 67.777344 C 97.433594 67.808594 100.910156 67.929688 104.386719 68.410156 Z M 58.210938 45.605469 C 58.242188 45.605469 58.269531 45.574219 58.300781 45.574219 C 58.269531 45.605469 58.242188 45.605469 58.210938 45.605469 Z M 77.359375 43.261719 C 77.296875 43.292969 77.238281 43.324219 77.179688 43.382812 C 75.710938 43.445312 74.242188 43.5625 72.773438 43.683594 C 73.164062 43.625 73.550781 43.59375 73.972656 43.535156 C 75.082031 43.351562 76.21875 43.324219 77.359375 43.261719 Z M 74.363281 41.582031 C 75.351562 41.371094 76.367188 41.164062 77.386719 41.101562 C 77.746094 41.074219 78.105469 41.074219 78.496094 41.074219 C 78.4375 41.164062 78.40625 41.253906 78.347656 41.371094 C 78.316406 41.371094 78.285156 41.371094 78.285156 41.371094 C 76.9375 41.464844 75.679688 41.433594 74.363281 41.582031 Z M 95.785156 43.234375 C 96.355469 43.292969 96.953125 43.351562 97.523438 43.445312 C 97.882812 43.535156 98.242188 43.625 98.574219 43.683594 C 99.023438 43.742188 99.5 43.832031 99.949219 43.894531 C 99.949219 44.011719 99.949219 44.132812 100.011719 44.253906 C 98.574219 44.074219 97.132812 43.953125 95.664062 43.863281 C 95.816406 43.652344 95.84375 43.445312 95.785156 43.234375 Z M 117.210938 48.933594 C 116.609375 48.304688 115.980469 47.703125 115.261719 47.222656 C 115.230469 47.195312 115.171875 47.164062 115.113281 47.132812 C 115.742188 47.34375 116.402344 47.523438 117 47.824219 C 117.03125 47.855469 117.089844 47.882812 117.121094 47.882812 C 117.121094 47.945312 117.121094 48.003906 117.121094 48.066406 C 117.121094 48.363281 117.179688 48.632812 117.210938 48.933594 Z M 119.308594 70.449219 C 119.1875 70.507812 119.097656 70.570312 119.039062 70.71875 C 118.976562 70.691406 118.949219 70.660156 118.886719 70.628906 C 118.976562 70.121094 119.039062 69.640625 119.097656 69.128906 C 119.128906 68.917969 119.1875 68.738281 119.246094 68.589844 C 119.277344 69.097656 119.308594 69.667969 119.367188 70.210938 C 119.367188 70.300781 119.335938 70.390625 119.308594 70.449219 Z M 124.820312 58.238281 C 124.460938 58.535156 124.160156 58.867188 123.832031 59.195312 C 123.53125 59.496094 123.144531 59.707031 122.902344 60.097656 C 122.8125 60.21875 122.875 60.335938 122.933594 60.398438 C 122.632812 60.636719 122.332031 60.90625 122.003906 61.148438 C 121.914062 61.207031 121.824219 61.265625 121.734375 61.359375 C 121.675781 60.996094 121.644531 60.605469 121.585938 60.246094 C 121.433594 58.6875 121.253906 57.214844 120.925781 55.6875 C 120.566406 54.125 120.445312 52.566406 119.996094 51.003906 C 119.847656 50.464844 119.757812 49.746094 119.515625 49.175781 C 119.578125 49.203125 119.605469 49.234375 119.667969 49.234375 C 120.445312 49.476562 120.6875 48.335938 119.996094 48.066406 C 119.636719 47.914062 119.308594 47.703125 119.007812 47.496094 C 119.007812 47.433594 119.007812 47.40625 118.976562 47.34375 C 119.246094 46.984375 118.949219 46.414062 118.4375 46.535156 C 118.378906 46.5625 118.320312 46.5625 118.257812 46.59375 C 118.257812 46.59375 118.257812 46.59375 118.230469 46.59375 C 118.140625 46.292969 117.71875 46.203125 117.480469 46.445312 C 117.328125 46.355469 117.179688 46.234375 117 46.175781 C 116.101562 45.722656 115.113281 45.394531 114.183594 45.0625 C 112.117188 44.285156 109.929688 43.953125 107.769531 43.445312 C 105.613281 42.933594 103.425781 42.574219 101.238281 42.183594 C 100.070312 41.972656 98.871094 41.914062 97.703125 41.613281 C 96.953125 41.433594 96.324219 41.164062 95.546875 41.28125 C 95.304688 41.222656 95.035156 41.191406 94.796875 41.164062 C 93.058594 40.953125 91.320312 40.804688 89.582031 40.652344 C 87.816406 40.503906 86.015625 40.441406 84.21875 40.441406 C 84.011719 40.441406 83.828125 40.441406 83.621094 40.441406 C 83.558594 40.171875 83.351562 39.933594 82.992188 39.902344 C 81.101562 39.753906 79.214844 39.484375 77.328125 39.542969 C 75.589844 39.601562 73.882812 39.992188 72.175781 40.324219 C 68.25 41.074219 64.414062 41.824219 60.609375 42.964844 C 59.109375 43.414062 57.582031 43.832031 56.082031 44.285156 C 55.964844 44.164062 55.8125 44.105469 55.632812 44.132812 C 53.265625 44.402344 51.109375 44.703125 48.832031 45.453125 C 46.585938 46.175781 44.398438 46.652344 42.210938 47.613281 C 41.910156 47.734375 41.609375 47.882812 41.3125 48.035156 C 41.160156 47.972656 40.980469 48.003906 40.800781 48.125 C 40.472656 48.335938 40.140625 48.542969 39.8125 48.726562 C 38.523438 49.324219 37.207031 49.894531 35.917969 50.523438 C 34.867188 51.035156 33.761719 51.425781 32.742188 51.964844 C 32.050781 52.324219 31.304688 52.65625 30.945312 53.34375 C 30.554688 53.464844 30.195312 53.796875 30.015625 54.125 C 29.714844 54.664062 29.566406 55.296875 29.386719 55.894531 C 29.234375 55.507812 28.578125 55.296875 28.214844 55.777344 C 28.035156 56.015625 27.707031 56.136719 27.496094 56.375 C 27.257812 56.707031 27.136719 57.097656 27.046875 57.488281 C 26.898438 58.238281 26.898438 59.015625 26.957031 59.765625 C 26.957031 59.765625 26.929688 59.765625 26.929688 59.765625 C 26.148438 60.546875 26.480469 62.257812 26.539062 63.246094 C 26.570312 63.699219 26.597656 64.148438 26.597656 64.597656 C 25.519531 64.179688 24.382812 63.789062 23.300781 63.398438 C 22.433594 63.066406 21.65625 62.648438 20.753906 62.378906 C 19.617188 62.046875 18.476562 61.777344 17.339844 61.476562 C 15.121094 60.90625 12.90625 60.15625 10.65625 59.765625 C 9.820312 59.617188 8.980469 59.496094 8.140625 59.378906 C 8.140625 59.316406 8.140625 59.285156 8.140625 59.226562 C 8.082031 58.117188 8.082031 57.007812 8.109375 55.894531 C 8.199219 55.804688 8.289062 55.714844 8.378906 55.597656 C 8.5 55.445312 8.5 55.296875 8.46875 55.144531 C 8.738281 54.90625 9.011719 54.695312 9.25 54.484375 C 10.179688 53.644531 11.40625 53.226562 12.425781 52.535156 C 14.671875 51.003906 16.652344 49.175781 18.6875 47.40625 C 20.84375 45.515625 23.300781 44.195312 25.699219 42.691406 C 27.976562 41.253906 30.074219 39.691406 32.140625 38.011719 C 32.261719 37.980469 32.410156 37.921875 32.53125 37.890625 C 32.859375 37.832031 33.011719 37.5625 33.011719 37.320312 C 35.257812 35.460938 37.445312 33.542969 39.78125 31.800781 C 42.03125 30.121094 44.21875 28.441406 46.316406 26.578125 C 46.523438 26.398438 46.734375 26.21875 46.945312 26.039062 C 47.003906 26.039062 47.035156 26.039062 47.09375 26.007812 C 48.621094 25.167969 50.058594 24.210938 51.527344 23.25 C 52.667969 22.5 53.835938 21.839844 54.976562 21.058594 C 55.425781 20.96875 55.84375 20.878906 56.234375 20.757812 C 57.339844 20.367188 58.449219 19.859375 59.558594 19.4375 C 60.667969 19.019531 61.6875 18.417969 62.824219 17.996094 C 63.304688 17.816406 63.785156 17.636719 64.261719 17.425781 C 64.171875 17.90625 64.5625 18.476562 65.164062 18.359375 C 66.0625 18.175781 67.738281 19.019531 68.578125 19.289062 C 69.957031 19.738281 71.335938 20.25 72.714844 20.726562 C 74.332031 21.328125 75.949219 21.988281 77.566406 22.648438 C 78.046875 23.339844 79.1875 23.609375 79.90625 23.910156 C 81.523438 24.597656 83.140625 25.199219 84.789062 25.800781 C 88.714844 27.539062 92.667969 29.28125 96.65625 30.960938 C 101.988281 33.179688 107.589844 34.832031 113.046875 36.722656 C 116.042969 37.742188 118.976562 38.882812 121.914062 40.023438 C 122.304688 40.171875 122.664062 40.324219 123.054688 40.472656 C 123.082031 41.101562 123.324219 41.761719 123.441406 42.332031 C 123.832031 44.132812 124.042969 45.992188 124.402344 47.824219 C 124.730469 49.566406 124.96875 51.335938 125.511719 53.015625 C 125.78125 53.855469 125.988281 54.664062 126.140625 55.507812 C 126.230469 56.046875 126.257812 56.644531 126.378906 57.214844 C 125.808594 57.515625 125.300781 57.847656 124.820312 58.238281 Z M 130.394531 54.695312 C 129.644531 55.117188 128.894531 55.597656 128.175781 56.046875 C 128.085938 55.085938 127.757812 54.066406 127.515625 53.253906 C 127.007812 51.605469 126.617188 49.984375 126.257812 48.304688 C 125.898438 46.59375 125.511719 44.914062 125.089844 43.234375 C 124.941406 42.601562 124.789062 41.941406 124.582031 41.3125 C 124.550781 41.222656 124.519531 41.101562 124.460938 40.984375 C 124.550781 41.011719 124.609375 41.042969 124.699219 41.074219 C 125.929688 41.554688 127.15625 42.0625 128.386719 42.574219 C 128.445312 42.722656 128.507812 42.875 128.535156 43.023438 C 128.746094 43.652344 128.925781 44.253906 129.046875 44.945312 C 129.285156 46.414062 129.613281 47.792969 130.003906 49.234375 C 130.363281 50.675781 130.722656 52.175781 130.875 53.644531 C 130.902344 53.886719 130.902344 54.15625 130.902344 54.457031 C 130.753906 54.546875 130.574219 54.636719 130.394531 54.695312 Z M 133 56.316406 C 133 56.285156 133 56.257812 133 56.226562 C 133.121094 56.167969 133.242188 56.078125 133.359375 56.015625 C 133.269531 56.105469 133.152344 56.226562 133 56.316406 Z M 133.449219 53.046875 C 133.300781 53.136719 133.152344 53.253906 132.972656 53.34375 C 132.792969 51.816406 132.433594 50.316406 132.042969 48.84375 C 131.683594 47.464844 131.171875 46.175781 130.902344 44.765625 C 130.8125 44.375 130.722656 43.984375 130.605469 43.59375 C 131.382812 43.953125 132.160156 44.285156 132.941406 44.644531 C 133.089844 45.0625 133.089844 45.542969 133.210938 45.964844 C 133.332031 46.414062 133.601562 46.835938 133.71875 47.285156 C 133.871094 47.824219 133.960938 48.394531 134.050781 48.933594 C 134.230469 50.015625 134.46875 51.09375 134.679688 52.175781 C 134.257812 52.445312 133.871094 52.746094 133.449219 53.046875 Z M 135.90625 49.113281 C 135.667969 48.035156 135.546875 46.953125 135.070312 45.933594 C 135.007812 45.8125 135.007812 45.695312 134.949219 45.605469 C 136.6875 46.445312 138.453125 47.285156 140.164062 48.125 C 140.433594 48.273438 140.703125 48.15625 140.851562 47.972656 C 140.882812 48.003906 140.941406 48.035156 140.972656 48.066406 C 140.941406 48.066406 140.910156 48.09375 140.882812 48.09375 C 140.164062 48.394531 139.53125 48.816406 138.875 49.203125 C 137.945312 49.746094 137.136719 50.40625 136.296875 51.066406 C 136.175781 50.375 136.058594 49.746094 135.90625 49.113281 Z M 141.0625 49.503906 C 139.984375 50.136719 138.964844 50.914062 137.914062 51.574219 C 137.824219 51.636719 137.734375 51.695312 137.644531 51.726562 C 138.273438 51.214844 138.902344 50.703125 139.59375 50.285156 C 140.222656 49.894531 140.820312 49.414062 141.511719 49.113281 C 141.71875 49.023438 141.960938 48.933594 142.171875 48.84375 C 141.78125 49.085938 141.421875 49.292969 141.0625 49.503906 Z M 141.0625 49.503906 " fill-opacity="1" fill-rule="nonzero"/></g><g clip-path="url(#60cc697c65)"><path fill="#0a141e" d="M 150.050781 78.582031 C 150.5 78.101562 150.289062 77.410156 149.691406 77.203125 C 149.542969 77.140625 149.421875 77.140625 149.269531 77.171875 C 148.671875 77.140625 148.074219 77.230469 147.535156 77.441406 C 146.996094 77.140625 146.335938 77.082031 145.734375 76.8125 C 144.65625 76.332031 143.609375 75.910156 142.648438 75.222656 C 141.691406 74.5 140.792969 73.570312 140.011719 72.671875 C 139.203125 71.738281 138.902344 70.71875 138.484375 69.609375 C 138.304688 69.160156 137.554688 68.890625 137.316406 69.460938 C 136.957031 70.300781 136.957031 71.230469 136.714844 72.101562 C 136.476562 72.96875 136.175781 73.808594 135.878906 74.652344 C 135.546875 75.609375 135.457031 76.390625 134.707031 77.140625 C 134.257812 77.589844 133.78125 77.832031 133.121094 77.832031 C 132.671875 77.832031 132.042969 77.953125 131.621094 77.859375 C 130.632812 77.621094 130.246094 79.089844 131.203125 79.363281 C 131.863281 79.542969 132.550781 79.660156 133.210938 79.8125 C 133.871094 79.960938 134.378906 80.410156 134.980469 80.710938 C 136.207031 81.34375 137.4375 81.820312 138.574219 82.632812 C 139.804688 83.503906 140.402344 84.792969 140.730469 86.203125 C 140.792969 86.382812 140.820312 86.59375 140.851562 86.773438 C 140.851562 86.804688 140.820312 86.832031 140.820312 86.863281 C 140.640625 87.613281 140.792969 88.183594 140.910156 88.902344 C 140.972656 89.292969 140.910156 89.652344 141 90.042969 C 141.0625 90.375 141.269531 90.644531 141.300781 91.003906 C 141.449219 91.90625 142.769531 91.785156 142.980469 91.003906 C 143.21875 90.105469 142.890625 89.382812 142.800781 88.484375 C 142.738281 88.003906 142.679688 87.523438 142.621094 87.074219 C 142.980469 85.8125 143.609375 84.582031 144.207031 83.472656 C 144.835938 82.332031 145.554688 81.222656 146.515625 80.351562 C 147.085938 79.871094 147.652344 79.421875 148.402344 79.273438 C 149.089844 79.0625 149.570312 79.121094 150.050781 78.582031 Z M 142.679688 82.511719 C 142.410156 83.023438 142.109375 83.59375 141.871094 84.132812 C 141.511719 83.292969 141.0625 82.511719 140.402344 81.914062 C 139.234375 80.800781 137.675781 80.023438 136.175781 79.421875 C 135.757812 79.242188 135.367188 79.03125 134.980469 78.792969 C 135.726562 78.3125 136.328125 77.5625 136.714844 76.78125 C 137.195312 75.820312 137.316406 74.679688 137.644531 73.660156 C 137.824219 73.121094 137.976562 72.582031 138.09375 72.011719 C 138.246094 72.308594 138.425781 72.609375 138.664062 72.910156 C 139.382812 73.839844 140.253906 74.742188 141.152344 75.519531 C 142.019531 76.269531 143.007812 76.960938 144.085938 77.351562 C 144.65625 77.5625 145.257812 77.800781 145.855469 77.980469 C 146.003906 78.011719 146.125 78.042969 146.273438 78.070312 C 144.71875 79.152344 143.519531 80.953125 142.679688 82.511719 Z M 142.679688 82.511719 " fill-opacity="1" fill-rule="nonzero"/></g><path fill="#0a141e" d="M 133.210938 72.039062 C 133.0625 71.949219 132.882812 71.890625 132.671875 71.890625 C 132.523438 71.890625 132.402344 71.921875 132.25 71.980469 C 132.132812 72.011719 132.011719 72.101562 131.921875 72.191406 C 131.832031 72.28125 131.742188 72.398438 131.710938 72.519531 C 131.652344 72.640625 131.621094 72.789062 131.621094 72.941406 C 131.621094 73.03125 131.652344 73.121094 131.652344 73.210938 C 131.710938 73.390625 131.800781 73.539062 131.921875 73.660156 C 131.980469 73.71875 132.070312 73.78125 132.132812 73.808594 C 132.28125 73.902344 132.460938 73.960938 132.671875 73.960938 C 132.820312 73.960938 132.941406 73.929688 133.089844 73.871094 C 133.210938 73.839844 133.332031 73.75 133.421875 73.660156 C 133.511719 73.570312 133.601562 73.449219 133.628906 73.332031 C 133.691406 73.210938 133.71875 73.058594 133.71875 72.910156 C 133.71875 72.820312 133.691406 72.730469 133.691406 72.640625 C 133.628906 72.460938 133.539062 72.308594 133.421875 72.191406 C 133.359375 72.128906 133.269531 72.070312 133.210938 72.039062 Z M 133.210938 72.039062 " fill-opacity="1" fill-rule="nonzero"/><path fill="#0a141e" d="M 145.347656 69.96875 C 145.285156 70 145.226562 70.03125 145.195312 70.03125 C 145.195312 70.03125 145.195312 70.03125 145.167969 70.03125 C 145.078125 70.089844 144.957031 70.179688 144.867188 70.238281 C 144.867188 70.238281 144.867188 70.238281 144.835938 70.269531 C 144.777344 70.359375 144.6875 70.449219 144.628906 70.539062 C 144.566406 70.628906 144.507812 70.75 144.476562 70.871094 C 144.417969 71.109375 144.417969 71.351562 144.476562 71.589844 C 144.539062 71.710938 144.566406 71.800781 144.628906 71.921875 C 144.746094 72.128906 144.898438 72.28125 145.105469 72.398438 C 145.257812 72.488281 145.4375 72.550781 145.617188 72.550781 C 145.796875 72.582031 145.976562 72.582031 146.15625 72.519531 C 146.335938 72.488281 146.484375 72.398438 146.605469 72.28125 C 146.753906 72.191406 146.875 72.070312 146.964844 71.890625 C 147.054688 71.710938 147.113281 71.5 147.144531 71.320312 C 147.144531 71.320312 147.144531 71.320312 147.144531 71.289062 C 147.144531 71.289062 147.144531 71.261719 147.144531 71.261719 C 147.144531 71.230469 147.144531 71.230469 147.144531 71.199219 C 147.144531 71.199219 147.144531 71.167969 147.144531 71.167969 C 147.144531 71.167969 147.144531 71.167969 147.144531 71.199219 C 147.144531 71.167969 147.144531 71.167969 147.144531 71.140625 C 147.144531 71.109375 147.144531 71.078125 147.144531 71.050781 C 147.144531 71.078125 147.144531 71.109375 147.144531 71.140625 C 147.144531 71.078125 147.175781 70.988281 147.144531 70.929688 C 147.144531 70.75 147.085938 70.601562 146.996094 70.449219 C 146.933594 70.359375 146.84375 70.269531 146.785156 70.179688 C 146.695312 70.121094 146.605469 70.03125 146.515625 69.96875 C 146.363281 69.878906 146.214844 69.820312 146.035156 69.820312 C 145.855469 69.789062 145.675781 69.789062 145.527344 69.847656 C 145.464844 69.910156 145.40625 69.941406 145.347656 69.96875 Z M 147.113281 71.558594 C 147.085938 71.648438 147.023438 71.738281 146.996094 71.828125 C 147.085938 71.710938 147.113281 71.558594 147.113281 71.410156 C 147.113281 71.441406 147.113281 71.5 147.113281 71.558594 Z M 147.113281 71.558594 " fill-opacity="1" fill-rule="nonzero"/><g clip-path="url(#6ad414846b)"><path fill="#0a141e" d="M 150.320312 85.511719 C 150.351562 85.363281 150.351562 85.214844 150.289062 85.0625 C 150.261719 84.972656 150.230469 84.882812 150.171875 84.792969 C 150.082031 84.613281 149.929688 84.492188 149.78125 84.402344 C 149.691406 84.34375 149.511719 84.28125 149.453125 84.253906 C 149.242188 84.164062 149 84.191406 148.792969 84.253906 C 148.730469 84.253906 148.703125 84.28125 148.640625 84.3125 C 148.582031 84.34375 148.550781 84.34375 148.492188 84.371094 C 148.371094 84.402344 148.253906 84.433594 148.164062 84.523438 C 148.132812 84.523438 148.132812 84.554688 148.101562 84.554688 C 148.042969 84.613281 147.953125 84.671875 147.894531 84.734375 C 147.832031 84.792969 147.773438 84.882812 147.714844 84.941406 C 147.683594 85.03125 147.652344 85.121094 147.59375 85.214844 C 147.535156 85.363281 147.535156 85.511719 147.5625 85.664062 C 147.5625 85.753906 147.59375 85.84375 147.652344 85.933594 C 147.683594 86.023438 147.714844 86.113281 147.804688 86.171875 C 147.863281 86.261719 147.921875 86.324219 148.011719 86.382812 C 148.132812 86.472656 148.253906 86.535156 148.371094 86.59375 C 148.640625 86.683594 148.910156 86.652344 149.179688 86.59375 C 149.242188 86.5625 149.332031 86.5625 149.390625 86.535156 C 149.363281 86.535156 149.300781 86.535156 149.269531 86.5625 C 149.363281 86.5625 149.421875 86.535156 149.480469 86.503906 C 149.480469 86.503906 149.453125 86.503906 149.453125 86.535156 C 149.453125 86.535156 149.480469 86.535156 149.480469 86.535156 C 149.480469 86.535156 149.511719 86.535156 149.511719 86.535156 C 149.632812 86.535156 149.722656 86.503906 149.8125 86.441406 C 149.929688 86.351562 150.019531 86.261719 150.109375 86.144531 C 150.171875 86.054688 150.199219 85.933594 150.199219 85.84375 C 150.199219 85.8125 150.199219 85.78125 150.199219 85.753906 C 150.289062 85.601562 150.320312 85.542969 150.320312 85.511719 Z M 150.320312 85.511719 " fill-opacity="1" fill-rule="nonzero"/></g><path fill="#0a141e" d="M 135.097656 85.121094 C 135.007812 85.0625 134.917969 84.972656 134.828125 84.914062 C 134.617188 84.792969 134.378906 84.734375 134.140625 84.734375 C 133.960938 84.734375 133.78125 84.761719 133.628906 84.851562 C 133.449219 84.914062 133.332031 85.003906 133.179688 85.121094 C 133.0625 85.242188 132.941406 85.394531 132.910156 85.574219 C 132.820312 85.722656 132.792969 85.902344 132.792969 86.082031 C 132.820312 86.203125 132.820312 86.324219 132.851562 86.441406 C 132.910156 86.683594 133.03125 86.863281 133.210938 87.042969 C 133.300781 87.101562 133.390625 87.195312 133.480469 87.253906 C 133.691406 87.375 133.929688 87.433594 134.167969 87.433594 C 134.347656 87.433594 134.527344 87.402344 134.679688 87.3125 C 134.859375 87.253906 134.980469 87.164062 135.128906 87.042969 C 135.25 86.921875 135.367188 86.773438 135.398438 86.59375 C 135.488281 86.441406 135.519531 86.261719 135.519531 86.082031 C 135.488281 85.964844 135.488281 85.84375 135.457031 85.722656 C 135.398438 85.484375 135.277344 85.273438 135.097656 85.121094 Z M 135.097656 85.121094 " fill-opacity="1" fill-rule="nonzero"/><path fill="#0a141e" d="M 105.554688 22.199219 C 106.214844 21.839844 106.542969 21.296875 106.933594 20.667969 C 107.261719 20.128906 107.710938 19.648438 108.101562 19.136719 C 109.179688 18.539062 110.4375 18.117188 111.605469 17.789062 C 113.015625 17.367188 114.484375 17.039062 115.980469 17.21875 C 116.699219 17.308594 117.300781 17.457031 117.898438 17.90625 C 118.4375 18.296875 118.796875 18.566406 119.515625 18.449219 C 120.085938 18.328125 120.234375 17.667969 120.027344 17.21875 C 119.964844 17.097656 119.90625 17.039062 119.816406 16.949219 C 119.457031 16.46875 118.917969 16.105469 118.347656 15.867188 C 118.167969 15.265625 117.75 14.785156 117.507812 14.125 C 117.058594 12.894531 116.550781 11.785156 116.402344 10.464844 C 116.25 9.144531 116.28125 7.675781 116.492188 6.386719 C 116.640625 5.394531 117.179688 4.644531 117.539062 3.746094 C 117.71875 3.292969 117.179688 2.785156 116.730469 2.933594 C 115.953125 3.203125 115.351562 3.863281 114.632812 4.285156 C 113.703125 4.824219 112.714844 5.214844 111.785156 5.726562 C 110.949219 6.203125 110.289062 6.566406 109.269531 6.503906 C 108.640625 6.476562 108.25 6.234375 107.832031 5.816406 C 107.5 5.484375 107.023438 5.214844 106.8125 4.824219 C 106.304688 3.953125 104.953125 4.734375 105.464844 5.605469 C 105.855469 6.292969 106.484375 6.984375 106.78125 7.707031 C 107.023438 8.304688 107.082031 8.964844 107.320312 9.566406 C 107.832031 10.855469 108.28125 12.144531 108.429688 13.527344 C 108.582031 14.996094 107.949219 16.316406 107.171875 17.515625 C 107.140625 17.578125 107.082031 17.636719 107.050781 17.699219 C 106.992188 17.726562 106.902344 17.757812 106.84375 17.816406 C 106.183594 18.238281 105.914062 18.835938 105.464844 19.4375 C 105.285156 19.679688 105.042969 19.828125 104.894531 20.039062 C 104.683594 20.339844 104.625 20.667969 104.414062 20.96875 C 103.816406 21.75 104.863281 22.558594 105.554688 22.199219 Z M 119.066406 16.796875 C 119.039062 16.828125 119.007812 16.828125 118.976562 16.855469 C 119.007812 16.828125 119.039062 16.828125 119.066406 16.796875 Z M 109 9.414062 C 108.789062 8.933594 108.640625 8.394531 108.492188 7.886719 C 109.328125 8.066406 110.289062 7.976562 111.097656 7.707031 C 111.546875 7.554688 111.90625 7.316406 112.296875 7.046875 C 112.863281 6.65625 113.523438 6.386719 114.125 6.085938 C 114.574219 5.84375 114.992188 5.605469 115.441406 5.335938 C 115.351562 5.605469 115.292969 5.875 115.230469 6.175781 C 115.050781 7.464844 114.992188 8.816406 115.140625 10.105469 C 115.261719 11.246094 115.472656 12.417969 115.980469 13.464844 C 116.222656 13.976562 116.460938 14.546875 116.730469 15.027344 C 116.820312 15.175781 116.910156 15.296875 117 15.417969 C 116.699219 15.355469 116.371094 15.296875 116.101562 15.296875 C 114.332031 15.148438 112.625 15.535156 110.949219 16.078125 C 110.496094 16.226562 110.046875 16.378906 109.597656 16.527344 C 109.898438 15.746094 110.109375 14.96875 110.109375 14.125 C 110.136719 12.597656 109.628906 10.824219 109 9.414062 Z M 109 9.414062 " fill-opacity="1" fill-rule="nonzero"/><path fill="#0a141e" d="M 110.257812 2.902344 C 110.378906 3.023438 110.558594 3.113281 110.707031 3.175781 C 110.796875 3.175781 110.886719 3.203125 110.976562 3.203125 C 111.15625 3.203125 111.335938 3.144531 111.515625 3.054688 C 111.636719 2.992188 111.726562 2.902344 111.816406 2.785156 C 111.90625 2.695312 111.964844 2.574219 111.996094 2.425781 C 112.054688 2.242188 112.054688 2.0625 111.996094 1.855469 C 111.964844 1.765625 111.9375 1.671875 111.875 1.613281 C 111.785156 1.464844 111.667969 1.34375 111.488281 1.222656 C 111.398438 1.195312 111.308594 1.164062 111.246094 1.105469 C 110.976562 1.011719 110.679688 1.074219 110.4375 1.195312 C 110.347656 1.253906 110.289062 1.285156 110.226562 1.375 C 110.136719 1.464844 110.046875 1.582031 110.019531 1.703125 C 109.957031 1.824219 109.929688 1.972656 109.929688 2.09375 C 109.929688 2.242188 109.957031 2.363281 110.019531 2.484375 C 110.078125 2.695312 110.136719 2.785156 110.257812 2.902344 Z M 110.257812 2.902344 " fill-opacity="1" fill-rule="nonzero"/><path fill="#0a141e" d="M 120.386719 11.066406 C 120.476562 11.214844 120.597656 11.335938 120.777344 11.425781 C 120.984375 11.546875 121.226562 11.605469 121.464844 11.605469 C 121.585938 11.605469 121.703125 11.574219 121.824219 11.546875 C 122.035156 11.484375 122.183594 11.394531 122.332031 11.246094 C 122.332031 11.246094 122.332031 11.246094 122.363281 11.246094 C 122.363281 11.246094 122.363281 11.214844 122.394531 11.214844 C 122.394531 11.214844 122.421875 11.1875 122.421875 11.1875 C 122.484375 11.125 122.511719 11.097656 122.542969 11.066406 C 122.574219 11.035156 122.574219 11.035156 122.601562 11.007812 C 122.722656 10.886719 122.785156 10.734375 122.84375 10.554688 C 122.875 10.4375 122.875 10.316406 122.902344 10.195312 C 122.875 10.074219 122.875 9.957031 122.84375 9.835938 C 122.8125 9.65625 122.722656 9.503906 122.601562 9.386719 C 122.511719 9.234375 122.394531 9.144531 122.242188 9.054688 C 122.152344 9.027344 122.035156 8.964844 121.914062 8.933594 C 121.914062 8.933594 121.914062 8.933594 121.882812 8.933594 C 121.882812 8.933594 121.882812 8.933594 121.855469 8.933594 C 121.824219 8.933594 121.523438 8.90625 121.496094 8.875 C 121.433594 8.875 121.316406 8.90625 121.316406 8.90625 C 121.316406 8.90625 121.195312 8.90625 121.136719 8.933594 C 121.136719 8.933594 121.136719 8.933594 121.105469 8.933594 C 120.984375 8.996094 120.894531 9.027344 120.777344 9.085938 C 120.625 9.175781 120.507812 9.296875 120.386719 9.445312 C 120.296875 9.535156 120.234375 9.625 120.207031 9.746094 C 120.175781 9.804688 120.144531 9.867188 120.144531 9.894531 C 120.085938 10.136719 120.085938 10.375 120.144531 10.617188 C 120.207031 10.796875 120.296875 10.945312 120.386719 11.066406 Z M 122.421875 11.1875 Z M 122.304688 11.277344 C 122.273438 11.304688 122.242188 11.335938 122.183594 11.367188 C 122.09375 11.394531 122.003906 11.425781 121.914062 11.484375 C 122.0625 11.457031 122.183594 11.367188 122.304688 11.277344 Z M 122.304688 11.277344 " fill-opacity="1" fill-rule="nonzero"/><path fill="#0a141e" d="M 114.125 21.417969 C 114.09375 21.417969 114.09375 21.417969 114.125 21.417969 C 114.0625 21.386719 113.882812 21.296875 113.824219 21.296875 C 113.824219 21.296875 113.792969 21.296875 113.792969 21.296875 C 113.765625 21.296875 113.765625 21.296875 113.734375 21.269531 C 113.644531 21.269531 113.523438 21.238281 113.433594 21.238281 C 113.34375 21.238281 113.226562 21.269531 113.136719 21.269531 C 113.046875 21.296875 112.953125 21.328125 112.863281 21.386719 C 112.746094 21.449219 112.625 21.539062 112.566406 21.660156 C 112.503906 21.71875 112.445312 21.808594 112.414062 21.898438 C 112.355469 21.988281 112.355469 22.078125 112.324219 22.167969 C 112.296875 22.257812 112.296875 22.378906 112.324219 22.46875 C 112.324219 22.617188 112.386719 22.738281 112.445312 22.890625 C 112.445312 22.917969 112.476562 22.917969 112.476562 22.949219 C 112.476562 22.949219 112.476562 22.980469 112.476562 22.980469 C 112.535156 23.070312 112.59375 23.128906 112.65625 23.21875 C 112.746094 23.277344 112.804688 23.339844 112.894531 23.398438 C 112.925781 23.429688 112.953125 23.429688 112.984375 23.457031 C 113.046875 23.488281 113.105469 23.519531 113.164062 23.578125 C 113.164062 23.578125 113.164062 23.578125 113.195312 23.578125 C 113.226562 23.578125 113.253906 23.609375 113.316406 23.609375 C 113.316406 23.609375 113.34375 23.640625 113.34375 23.640625 C 113.433594 23.699219 113.523438 23.757812 113.644531 23.789062 C 113.703125 23.789062 113.792969 23.820312 113.855469 23.820312 C 113.914062 23.820312 114.003906 23.789062 114.0625 23.789062 C 114.183594 23.757812 114.273438 23.699219 114.363281 23.640625 C 114.394531 23.640625 114.394531 23.609375 114.421875 23.578125 C 114.453125 23.546875 114.511719 23.546875 114.542969 23.519531 C 114.664062 23.429688 114.753906 23.339844 114.84375 23.21875 C 114.871094 23.128906 114.902344 23.039062 114.960938 22.949219 C 115.023438 22.738281 115.023438 22.558594 114.960938 22.347656 C 114.933594 22.230469 114.871094 22.109375 114.8125 22.019531 C 114.722656 21.808594 114.542969 21.660156 114.332031 21.539062 C 114.183594 21.449219 114.035156 21.417969 113.882812 21.359375 C 113.972656 21.386719 114.0625 21.449219 114.152344 21.476562 C 114.183594 21.449219 114.152344 21.449219 114.125 21.417969 Z M 114.125 21.417969 " fill-opacity="1" fill-rule="nonzero"/><path fill="#0a141e" d="M 101.777344 13.4375 C 101.867188 13.496094 101.957031 13.585938 102.046875 13.648438 C 102.257812 13.765625 102.496094 13.828125 102.738281 13.828125 C 102.917969 13.828125 103.097656 13.796875 103.246094 13.707031 C 103.425781 13.648438 103.546875 13.554688 103.695312 13.4375 C 103.816406 13.316406 103.9375 13.167969 103.964844 12.988281 C 104.054688 12.835938 104.085938 12.65625 104.085938 12.476562 C 104.054688 12.355469 104.054688 12.234375 104.027344 12.117188 C 103.964844 11.875 103.847656 11.695312 103.667969 11.515625 C 103.578125 11.457031 103.488281 11.367188 103.398438 11.304688 C 103.1875 11.1875 102.945312 11.125 102.707031 11.125 C 102.527344 11.125 102.347656 11.15625 102.199219 11.246094 C 102.019531 11.304688 101.898438 11.394531 101.75 11.515625 C 101.628906 11.636719 101.507812 11.785156 101.480469 11.964844 C 101.390625 12.117188 101.359375 12.296875 101.359375 12.476562 C 101.390625 12.597656 101.390625 12.714844 101.417969 12.835938 C 101.507812 13.046875 101.628906 13.257812 101.777344 13.4375 Z M 101.777344 13.4375 " fill-opacity="1" fill-rule="nonzero"/><path fill="#0a141e" d="M 16.050781 21.808594 C 16.082031 21.898438 16.082031 21.957031 16.109375 21.988281 C 16.140625 22.019531 16.171875 22.078125 16.171875 22.109375 C 16.230469 22.230469 16.292969 22.320312 16.382812 22.410156 C 16.5625 22.589844 16.742188 22.679688 16.980469 22.769531 C 17.101562 22.796875 17.21875 22.796875 17.339844 22.828125 C 17.578125 22.828125 17.820312 22.769531 18.027344 22.648438 C 18.179688 22.558594 18.296875 22.4375 18.417969 22.289062 C 18.539062 22.167969 18.628906 22.019531 18.660156 21.839844 C 18.71875 21.597656 18.71875 21.359375 18.660156 21.117188 C 18.597656 20.878906 18.476562 20.699219 18.296875 20.519531 C 18.269531 20.488281 18.269531 20.488281 18.238281 20.457031 C 18.238281 20.457031 18.207031 20.429688 18.207031 20.429688 C 18.117188 20.339844 18 20.277344 17.910156 20.1875 C 17.820312 20.15625 17.699219 20.097656 17.609375 20.066406 C 17.429688 20.007812 17.25 20.007812 17.070312 20.039062 C 16.949219 20.039062 16.832031 20.066406 16.742188 20.128906 C 16.589844 20.1875 16.441406 20.277344 16.320312 20.398438 C 16.261719 20.488281 16.171875 20.578125 16.109375 20.667969 C 16.082031 20.757812 16.019531 20.878906 15.992188 20.96875 C 15.929688 21.148438 15.929688 21.328125 15.960938 21.507812 C 15.960938 21.628906 16.019531 21.71875 16.050781 21.808594 Z M 16.050781 21.808594 " fill-opacity="1" fill-rule="nonzero"/><path fill="#0a141e" d="M 10.628906 30.359375 C 10.65625 30.449219 10.71875 30.539062 10.746094 30.628906 C 10.925781 30.960938 11.195312 31.199219 11.527344 31.410156 C 11.707031 31.46875 11.855469 31.5625 12.035156 31.621094 C 12.425781 31.710938 12.785156 31.710938 13.175781 31.621094 C 13.445312 31.5625 13.683594 31.441406 13.894531 31.230469 C 14.132812 31.082031 14.3125 30.871094 14.433594 30.628906 C 14.523438 30.480469 14.582031 30.300781 14.644531 30.121094 C 14.734375 29.910156 14.761719 29.671875 14.761719 29.429688 C 14.761719 29.128906 14.703125 28.859375 14.582031 28.621094 C 14.492188 28.351562 14.34375 28.140625 14.132812 27.929688 C 13.863281 27.660156 13.5625 27.480469 13.203125 27.390625 C 12.636719 27.210938 11.976562 27.328125 11.46875 27.660156 C 11.316406 27.78125 11.167969 27.871094 11.046875 27.988281 C 10.835938 28.167969 10.6875 28.410156 10.597656 28.679688 C 10.507812 28.859375 10.449219 29.039062 10.449219 29.21875 C 10.386719 29.488281 10.386719 29.789062 10.476562 30.058594 C 10.539062 30.179688 10.597656 30.269531 10.628906 30.359375 Z M 10.628906 30.359375 " fill-opacity="1" fill-rule="nonzero"/><path fill="#0a141e" d="M 23.003906 28.199219 C 23.003906 28.199219 23.03125 28.230469 23.03125 28.230469 C 23.03125 28.261719 23.0625 28.261719 23.0625 28.289062 C 23.0625 28.320312 23.09375 28.320312 23.09375 28.351562 C 23.183594 28.53125 23.332031 28.710938 23.511719 28.800781 C 23.664062 28.949219 23.871094 29.039062 24.082031 29.101562 C 24.230469 29.128906 24.382812 29.128906 24.53125 29.160156 C 24.769531 29.160156 24.980469 29.128906 25.160156 29.011719 C 25.308594 28.980469 25.429688 28.890625 25.519531 28.800781 C 25.699219 28.679688 25.847656 28.53125 25.941406 28.351562 C 26 28.230469 26.058594 28.078125 26.121094 27.960938 C 26.179688 27.78125 26.179688 27.570312 26.148438 27.390625 C 26.148438 27.390625 26.148438 27.359375 26.148438 27.359375 C 26.148438 26.96875 26.058594 26.820312 25.910156 26.488281 C 25.820312 26.371094 25.730469 26.28125 25.640625 26.160156 C 25.519531 26.070312 25.429688 25.980469 25.308594 25.890625 C 25.191406 25.828125 25.039062 25.769531 24.921875 25.710938 C 24.710938 25.648438 24.472656 25.621094 24.261719 25.679688 C 24.113281 25.679688 23.960938 25.710938 23.84375 25.800781 C 23.691406 25.828125 23.574219 25.917969 23.480469 26.007812 C 23.363281 26.070312 23.273438 26.1875 23.183594 26.308594 C 23.03125 26.460938 22.941406 26.667969 22.882812 26.878906 C 22.882812 26.878906 22.882812 26.878906 22.882812 26.910156 C 22.882812 26.910156 22.882812 26.910156 22.882812 26.941406 C 22.882812 27 22.851562 27.089844 22.851562 27.148438 C 22.851562 27.238281 22.824219 27.300781 22.824219 27.390625 C 22.824219 27.390625 22.824219 27.417969 22.824219 27.417969 C 22.851562 27.570312 22.851562 27.71875 22.882812 27.839844 C 22.882812 27.929688 22.941406 28.050781 23.003906 28.199219 Z M 25.550781 28.53125 C 25.460938 28.589844 25.371094 28.648438 25.308594 28.738281 C 25.308594 28.738281 25.28125 28.738281 25.28125 28.710938 C 25.371094 28.648438 25.460938 28.621094 25.550781 28.53125 Z M 25.550781 28.53125 " fill-opacity="1" fill-rule="nonzero"/><path fill="#0a141e" d="M 44.039062 99.554688 C 43.828125 99.195312 43.527344 98.894531 43.167969 98.6875 C 42.929688 98.535156 42.660156 98.476562 42.390625 98.417969 C 42.148438 98.386719 41.910156 98.324219 41.640625 98.296875 C 41.429688 98.324219 41.222656 98.355469 41.011719 98.386719 C 40.832031 98.476562 40.621094 98.535156 40.441406 98.625 C 40.292969 98.746094 40.113281 98.867188 39.960938 98.984375 C 39.722656 99.195312 39.574219 99.464844 39.484375 99.738281 C 39.363281 99.917969 39.332031 100.125 39.332031 100.335938 C 39.273438 100.546875 39.273438 100.757812 39.332031 100.964844 C 39.332031 101.175781 39.394531 101.386719 39.484375 101.566406 C 39.574219 101.867188 39.753906 102.105469 39.960938 102.316406 C 40.082031 102.46875 40.382812 102.648438 40.5625 102.796875 C 40.59375 102.828125 40.652344 102.855469 40.710938 102.886719 C 41.101562 103.097656 41.492188 103.21875 41.941406 103.21875 C 42.390625 103.21875 42.777344 103.097656 43.167969 102.886719 C 43.320312 102.765625 43.5 102.648438 43.648438 102.496094 C 43.949219 102.195312 44.15625 101.835938 44.277344 101.417969 C 44.367188 101.085938 44.398438 100.757812 44.308594 100.457031 C 44.335938 100.15625 44.21875 99.828125 44.039062 99.554688 Z M 44.039062 99.554688 " fill-opacity="1" fill-rule="nonzero"/><path fill="#0a141e" d="M 54.464844 105.648438 C 54.433594 105.496094 54.40625 105.289062 54.40625 105.109375 C 54.40625 105.109375 54.40625 105.078125 54.40625 105.078125 C 54.40625 105.046875 54.40625 105.019531 54.375 104.988281 C 54.316406 104.808594 54.253906 104.628906 54.164062 104.476562 C 54.046875 104.328125 53.957031 104.207031 53.835938 104.058594 C 53.6875 103.9375 53.566406 103.847656 53.417969 103.726562 C 53.386719 103.726562 53.386719 103.699219 53.355469 103.699219 C 53.355469 103.699219 53.328125 103.699219 53.328125 103.699219 C 53.175781 103.636719 52.96875 103.546875 52.816406 103.488281 C 52.789062 103.488281 52.789062 103.488281 52.757812 103.457031 C 52.636719 103.425781 52.488281 103.425781 52.367188 103.398438 C 52.246094 103.398438 52.128906 103.335938 51.976562 103.367188 C 51.769531 103.367188 51.558594 103.398438 51.347656 103.457031 C 51.019531 103.546875 50.71875 103.726562 50.449219 103.96875 C 50.210938 104.207031 50.03125 104.507812 49.941406 104.867188 C 49.699219 105.738281 50.089844 106.667969 50.871094 107.148438 C 51.019531 107.238281 51.199219 107.296875 51.347656 107.328125 C 51.378906 107.328125 51.410156 107.359375 51.410156 107.359375 C 51.410156 107.359375 51.378906 107.359375 51.378906 107.359375 C 51.4375 107.386719 51.46875 107.417969 51.527344 107.449219 C 51.828125 107.628906 52.15625 107.71875 52.488281 107.71875 C 52.847656 107.71875 53.148438 107.628906 53.445312 107.449219 C 53.746094 107.269531 53.957031 107.058594 54.136719 106.757812 C 54.316406 106.457031 54.40625 106.128906 54.40625 105.796875 C 54.464844 105.738281 54.464844 105.707031 54.464844 105.648438 Z M 51.199219 107.179688 C 51.199219 107.179688 51.167969 107.148438 51.167969 107.148438 C 51.199219 107.179688 51.230469 107.179688 51.257812 107.207031 C 51.230469 107.207031 51.199219 107.207031 51.199219 107.179688 Z M 51.5 107.328125 C 51.5 107.328125 51.527344 107.328125 51.558594 107.328125 C 51.558594 107.328125 51.527344 107.328125 51.5 107.328125 Z M 51.5 107.328125 " fill-opacity="1" fill-rule="nonzero"/><path fill="#0a141e" d="M 43.378906 108.707031 C 43.140625 108.558594 42.898438 108.5 42.628906 108.46875 C 42.359375 108.410156 42.089844 108.410156 41.851562 108.5 C 41.519531 108.589844 41.222656 108.769531 40.980469 109.007812 C 40.742188 109.25 40.5625 109.546875 40.472656 109.878906 C 40.382812 110.238281 40.382812 110.570312 40.472656 110.929688 C 40.53125 111.078125 40.59375 111.230469 40.683594 111.410156 C 40.773438 111.527344 40.890625 111.679688 40.980469 111.800781 C 41.101562 111.890625 41.25 112.007812 41.371094 112.097656 C 41.609375 112.25 41.851562 112.308594 42.089844 112.339844 C 42.269531 112.398438 42.449219 112.398438 42.628906 112.339844 C 42.808594 112.339844 42.960938 112.277344 43.140625 112.21875 C 43.320312 112.160156 43.4375 112.097656 43.589844 111.980469 C 43.796875 111.828125 43.976562 111.648438 44.097656 111.4375 C 44.277344 111.140625 44.367188 110.808594 44.367188 110.449219 C 44.367188 110.089844 44.277344 109.757812 44.097656 109.457031 C 43.917969 109.128906 43.679688 108.886719 43.378906 108.707031 Z M 43.378906 108.707031 " fill-opacity="1" fill-rule="nonzero"/></g></g></g></svg>