<svg xmlns="http://www.w3.org/2000/svg" xmlns:xlink="http://www.w3.org/1999/xlink" width="500" zoomAndPan="magnify" viewBox="0 0 375 374.999991" height="500" preserveAspectRatio="xMidYMid meet" version="1.0"><defs><clipPath id="5704a8db74"><path d="M 156.066406 189 L 173 189 L 173 207 L 156.066406 207 Z M 156.066406 189 " clip-rule="nonzero"/></clipPath><clipPath id="a6303514af"><path d="M 156.066406 199 L 162 199 L 162 207 L 156.066406 207 Z M 156.066406 199 " clip-rule="nonzero"/></clipPath><clipPath id="0c3f3d1da2"><path d="M 192 154.152344 L 207 154.152344 L 207 170 L 192 170 Z M 192 154.152344 " clip-rule="nonzero"/></clipPath><clipPath id="efddc347b9"><path d="M 156.066406 154.152344 L 208 154.152344 L 208 207.402344 L 156.066406 207.402344 Z M 156.066406 154.152344 " clip-rule="nonzero"/></clipPath></defs><path fill="#f5d7c4" d="M 157.917969 200.019531 C 158.066406 197.257812 158.789062 194.53125 160.019531 192.054688 C 160.21875 191.652344 160.453125 191.238281 160.839844 191.015625 C 161.503906 190.640625 162.386719 190.996094 162.851562 191.601562 C 163.316406 192.207031 163.464844 192.988281 163.597656 193.738281 C 164.890625 193.203125 166.480469 193.488281 167.507812 194.4375 C 168.535156 195.382812 168.199219 196.367188 167.773438 197.699219 C 168.375 197.109375 170.246094 197.925781 170.710938 198.628906 C 171.175781 199.335938 171.0625 200.304688 170.625 201.027344 C 170.1875 201.746094 169.476562 202.257812 168.746094 202.679688 C 167.308594 203.507812 165.71875 204.074219 164.082031 204.339844 C 163.628906 204.410156 163.136719 204.457031 162.726562 204.242188 C 161.84375 203.769531 161.933594 202.507812 161.609375 201.558594 C 161.125 200.140625 159.335938 199.332031 157.917969 200.019531 Z M 157.917969 200.019531 " fill-opacity="1" fill-rule="nonzero"/><g clip-path="url(#5704a8db74)"><path stroke-linecap="butt" transform="matrix(0.125239, 0, 0, 0.125301, 149.192572, 149.845757)" fill="none" stroke-linejoin="miter" d="M 69.670219 400.42507 C 70.855457 378.384444 76.625696 356.624391 86.450697 336.859529 C 88.041411 333.648519 89.91284 330.343983 93.000697 328.567016 C 98.303079 325.57423 105.352127 328.411142 109.063794 333.243246 C 112.775461 338.075349 113.960699 344.310321 115.021175 350.295894 C 125.345224 346.024938 138.039749 348.300703 146.242845 355.876194 C 154.445941 363.420511 151.763559 371.276575 148.363797 381.907203 C 153.167131 377.199799 168.10737 383.715345 171.819037 389.32682 C 175.530704 394.969469 174.62618 402.700835 171.132847 408.468184 C 167.639513 414.204358 161.962846 418.288265 156.130226 421.65515 C 144.65213 428.264221 131.957605 432.784575 118.888795 434.904466 C 115.270699 435.465613 111.340699 435.839712 108.065699 434.125094 C 101.01665 430.352936 101.734031 420.283456 99.145222 412.707965 C 95.277602 401.391491 80.992363 394.938295 69.670219 400.42507 Z M 69.670219 400.42507 " stroke="#000000" stroke-width="1" stroke-opacity="1" stroke-miterlimit="10"/></g><path fill="#f1c22a" d="M 160.667969 190.03125 C 169.027344 180.363281 177.453125 170.628906 187.46875 162.695312 C 188.175781 162.136719 188.941406 161.566406 189.835938 161.492188 C 191.070312 161.390625 192.15625 162.246094 193.09375 163.050781 C 195.304688 164.949219 197.515625 166.84375 199.726562 168.742188 C 200.539062 169.4375 201.429688 170.34375 201.246094 171.394531 C 201.136719 172.023438 200.65625 172.519531 200.199219 172.964844 C 191.007812 181.984375 181.433594 190.597656 172.046875 199.417969 C 171.871094 199.589844 171.699219 199.765625 171.53125 199.949219 C 171.558594 199.621094 171.695312 199.300781 171.917969 199.058594 C 171.796875 199.253906 171.675781 199.453125 171.554688 199.648438 C 170.804688 199.140625 170.050781 198.632812 169.300781 198.125 C 168.824219 197.808594 168.332031 197.46875 168.0625 196.960938 C 167.761719 196.394531 167.753906 195.636719 167.242188 195.242188 " fill-opacity="1" fill-rule="nonzero"/><g clip-path="url(#a6303514af)"><path fill="#424454" d="M 157.121094 206.210938 C 156.707031 203.949219 157.003906 201.558594 157.953125 199.464844 C 159.117188 199.878906 160.246094 200.527344 160.96875 201.53125 C 161.691406 202.535156 161.9375 203.941406 161.351562 205.03125 " fill-opacity="1" fill-rule="nonzero"/></g><path stroke-linecap="butt" transform="matrix(0.125239, 0, 0, 0.125301, 149.192572, 149.845757)" fill-opacity="1" fill="#c4d5f5" fill-rule="nonzero" stroke-linejoin="miter" d="M 423.495011 169.419353 C 388.031437 144.572989 358.681196 115.081571 330.734527 82.005044 C 328.800717 79.729279 327.771431 72.496712 329.455717 70.065073 C 330.859289 68.007532 332.730718 77.42234 331.763813 75.1154 C 325.494527 60.151467 357.371196 84.09376 366.042149 94.630863 C 374.681912 105.167966 384.881198 113.741052 393.708104 124.122281 C 401.162628 132.820067 409.927153 140.395558 419.627392 146.443481 C 423.027154 148.563372 426.645249 150.589737 428.953345 153.863098 C 431.23025 157.136458 431.729297 162.124436 423.495011 169.419353 Z M 423.495011 169.419353 " stroke="#000000" stroke-width="1" stroke-opacity="1" stroke-miterlimit="10"/><g clip-path="url(#0c3f3d1da2)"><path fill="#ed7994" d="M 192.292969 159.023438 C 195.746094 162.398438 199.199219 165.777344 202.652344 169.15625 C 202.738281 169.242188 202.839844 169.332031 202.964844 169.332031 C 203.085938 169.332031 203.183594 169.246094 203.273438 169.160156 C 204.585938 167.917969 205.9375 166.59375 206.480469 164.871094 C 207.121094 162.851562 206.492188 160.574219 205.191406 158.90625 C 203.890625 157.234375 201.992188 156.117188 200.003906 155.382812 C 198.859375 154.960938 197.605469 154.652344 196.429688 154.980469 C 195.566406 155.21875 194.832031 155.777344 194.152344 156.359375 C 193.398438 156.996094 192.65625 157.71875 192.292969 159.023438 Z M 192.292969 159.023438 " fill-opacity="1" fill-rule="nonzero"/></g><g clip-path="url(#efddc347b9)"><path fill="#000000" d="M 158.796875 207.128906 C 158.296875 207.214844 157.863281 207.3125 157.421875 207.332031 C 156.558594 207.371094 156.070312 206.867188 156.085938 205.855469 C 156.109375 204.253906 156.324219 202.660156 156.617188 201.089844 C 157.1875 198.003906 158.035156 194.980469 159.109375 192.035156 C 159.574219 190.769531 160.410156 189.671875 161.285156 188.664062 C 162.523438 187.238281 163.738281 185.789062 164.996094 184.375 C 167.480469 181.582031 170.042969 178.867188 172.632812 176.171875 C 175.792969 172.878906 179.109375 169.734375 182.464844 166.640625 C 184.746094 164.535156 186.976562 162.355469 189.46875 160.480469 C 189.710938 160.296875 189.660156 160.0625 189.625 159.804688 C 189.476562 158.742188 190.175781 157.835938 191.234375 157.9375 C 192.09375 158.019531 192.507812 157.570312 193.011719 157.066406 C 193.644531 156.433594 194.125 155.636719 194.941406 155.203125 C 196.886719 154.179688 198.878906 154.335938 200.863281 155.050781 C 202.523438 155.648438 204.066406 156.441406 205.292969 157.765625 C 208.132812 160.832031 208.570312 163.601562 206.09375 167.15625 C 205.65625 167.78125 205.152344 168.339844 204.558594 168.835938 C 204.078125 169.234375 203.644531 169.617188 203.675781 170.441406 C 203.707031 171.445312 202.570312 171.96875 201.449219 171.652344 C 198.5625 174.917969 195.210938 177.695312 192.089844 180.707031 C 189.921875 182.800781 187.800781 184.949219 185.625 187.03125 C 182.363281 190.144531 179.179688 193.332031 176.03125 196.550781 C 174.574219 198.039062 172.988281 199.398438 171.699219 201.0625 C 170.949219 202.03125 169.832031 202.671875 168.730469 203.210938 C 167.109375 204.007812 165.445312 204.722656 163.765625 205.394531 C 162.152344 206.039062 160.488281 206.515625 158.796875 207.128906 Z M 192.28125 172.074219 C 193.882812 170.609375 195.480469 169.144531 197.144531 167.617188 C 196.109375 166.679688 195.097656 165.761719 194.03125 164.796875 C 184.03125 173.882812 174.226562 183.070312 164.980469 193.125 C 166.933594 193.1875 167.820312 194.371094 168.601562 195.722656 C 171.640625 192.464844 174.695312 189.378906 177.765625 186.304688 C 182.523438 181.535156 187.230469 176.710938 192.28125 172.074219 Z M 179.347656 177.121094 C 181.878906 174.726562 184.386719 172.3125 186.941406 169.941406 C 189.027344 168.007812 191.160156 166.128906 193.101562 164.375 C 192.214844 163.382812 191.355469 162.414062 190.484375 161.449219 C 190.226562 161.167969 190.007812 161.300781 189.792969 161.546875 C 188.222656 163.347656 186.425781 164.925781 184.699219 166.570312 C 182.003906 169.132812 179.253906 171.636719 176.589844 174.226562 C 174.1875 176.558594 171.84375 178.949219 169.519531 181.359375 C 166.761719 184.214844 164.0625 187.128906 161.347656 190.210938 C 162.707031 190.542969 163.648438 191.296875 164.285156 192.421875 C 165.765625 190.839844 167.179688 189.300781 168.617188 187.785156 C 172.0625 184.15625 175.648438 180.664062 179.347656 177.121094 Z M 192.230469 178.519531 C 194.949219 176.015625 197.671875 173.507812 200.566406 170.84375 C 199.867188 170.207031 199.113281 169.613281 198.476562 168.910156 C 198.027344 168.410156 197.75 168.5 197.335938 168.894531 C 194.335938 171.746094 191.292969 174.550781 188.320312 177.429688 C 182.945312 182.628906 177.773438 188.027344 172.535156 193.359375 C 171.378906 194.535156 170.21875 195.710938 168.957031 196.953125 C 170.238281 197.378906 170.816406 198.445312 171.546875 199.421875 C 178.183594 192.164062 185.085938 185.300781 192.230469 178.519531 Z M 196.375 161.515625 C 197.800781 162.957031 199.308594 164.316406 200.644531 165.847656 C 201.34375 166.648438 202.0625 167.433594 202.773438 168.222656 C 203.003906 168.476562 203.304688 168.789062 203.570312 168.363281 C 204.003906 167.664062 204.699219 167.226562 205.171875 166.550781 C 207.0625 163.84375 206.636719 160.957031 204.597656 158.625 C 203.109375 156.929688 201.152344 156.074219 199.011719 155.570312 C 197.734375 155.273438 196.46875 155.484375 195.40625 156.117188 C 194.546875 156.628906 193.914062 157.527344 193.199219 158.269531 C 193.003906 158.472656 193 158.742188 193.261719 158.917969 C 194.363281 159.648438 195.269531 160.609375 196.375 161.515625 Z M 166.015625 202.878906 C 167.195312 202.359375 168.371094 201.832031 169.457031 201.144531 C 169.847656 200.894531 170.636719 200.667969 170.304688 200.03125 C 169.800781 199.066406 169.207031 198.070312 167.859375 198.09375 C 167.289062 198.105469 166.984375 197.828125 167.046875 197.21875 C 167.074219 196.96875 167.0625 196.71875 167.070312 196.46875 C 167.09375 195.140625 165.855469 194.125 164.582031 194.503906 C 163.914062 194.703125 163.578125 194.503906 163.367188 193.914062 C 163.265625 193.628906 163.167969 193.339844 163.058594 193.054688 C 162.71875 192.160156 161.464844 191.300781 160.59375 191.363281 C 159.792969 193.898438 159.105469 196.464844 158.453125 199.078125 C 161.121094 199.734375 162.59375 201.429688 163.023438 204.042969 C 164.089844 203.847656 164.949219 203.269531 166.015625 202.878906 Z M 191.089844 160.472656 C 192.496094 161.789062 193.871094 163.140625 195.316406 164.410156 C 197.183594 166.054688 198.984375 167.761719 200.65625 169.605469 C 200.960938 169.945312 201.183594 170.378906 201.644531 170.578125 C 202.019531 170.742188 202.359375 170.792969 202.613281 170.449219 C 202.867188 170.105469 202.753906 169.800781 202.453125 169.5 C 201.710938 168.757812 201.007812 167.972656 200.277344 167.214844 C 197.542969 164.375 194.886719 161.457031 191.738281 159.050781 C 191.449219 158.832031 191.296875 158.835938 191.027344 159.007812 C 190.320312 159.472656 190.636719 159.921875 191.089844 160.472656 Z M 158.808594 200.476562 C 158.507812 200.300781 158.265625 200.226562 158.152344 200.691406 C 157.769531 202.304688 157.703125 203.953125 157.503906 205.585938 C 157.496094 205.652344 157.570312 205.726562 157.640625 205.871094 C 158.925781 205.742188 160.085938 205.148438 161.296875 204.757812 C 161.65625 204.644531 161.597656 204.308594 161.542969 204.054688 C 161.21875 202.476562 160.457031 201.210938 158.808594 200.476562 Z M 158.808594 200.476562 " fill-opacity="1" fill-rule="nonzero"/></g></svg>