<svg xmlns="http://www.w3.org/2000/svg" xmlns:xlink="http://www.w3.org/1999/xlink" width="500" zoomAndPan="magnify" viewBox="0 0 375 374.999991" height="500" preserveAspectRatio="xMidYMid meet" version="1.0"><defs><filter x="0%" y="0%" width="100%" height="100%" id="27c4920628"><feColorMatrix values="0 0 0 0 1 0 0 0 0 1 0 0 0 0 1 0 0 0 1 0" color-interpolation-filters="sRGB"/></filter><mask id="36d6fbdaa1"><g filter="url(#27c4920628)"><rect x="-37.5" width="450" fill="#000000" y="-37.499999" height="449.999989" fill-opacity="0.41"/></g></mask><clipPath id="96db0d5ab5"><path d="M 2 0.0390625 L 139 0.0390625 L 139 131.800781 L 2 131.800781 Z M 2 0.0390625 " clip-rule="nonzero"/></clipPath><clipPath id="ebc9181040"><rect x="0" width="141" y="0" height="132"/></clipPath></defs><g mask="url(#36d6fbdaa1)"><g transform="matrix(1, 0, 0, 1, 118, 113)"><g clip-path="url(#ebc9181040)"><g clip-path="url(#96db0d5ab5)"><path fill="#000000" d="M 129.597656 47.144531 C 126.957031 45.472656 123.796875 44.984375 120.5625 44.925781 C 111.722656 31.140625 94.957031 19.257812 78 20.242188 C 75.707031 20.445312 74.863281 23.9375 77.421875 24.519531 C 91.820312 26.734375 105.875 33.132812 114.703125 45.132812 C 106.484375 45.542969 98.316406 45.691406 90.101562 45.972656 C 80.214844 45.726562 71.335938 48.941406 70.050781 59.96875 C 69.601562 64.066406 70.738281 67.167969 72.195312 70.890625 C 72.894531 72.671875 75.558594 72.023438 75.117188 70.082031 C 73.992188 65.136719 73.867188 58.246094 77.273438 54.117188 C 80.597656 50.09375 86.488281 50.34375 91.230469 50.1875 C 99.875 49.898438 108.523438 49.621094 117.167969 49.339844 C 119.761719 49.257812 122.550781 49.003906 125.078125 49.726562 C 133.996094 52.109375 132.769531 69.433594 133.578125 76.96875 C 133.78125 82.410156 132.773438 86.753906 127.246094 88.71875 C 117.335938 92.160156 105.820312 90.230469 96.503906 95.464844 C 92.378906 97.683594 90.242188 102.175781 86.226562 104.535156 C 89.769531 98.160156 90.414062 89.9375 81.707031 91.5 C 79.742188 91.496094 78.445312 90.261719 77.398438 88.683594 C 74.855469 84.847656 76.035156 80.160156 76.15625 75.871094 C 76.230469 73.355469 72.410156 72.84375 71.773438 75.277344 C 69.214844 84.050781 71.511719 96.4375 83.027344 95.230469 C 84.425781 95.261719 84.597656 95.40625 84.691406 96.882812 C 84.585938 100.035156 83.171875 103.15625 81.179688 105.582031 C 80.386719 106.539062 80.472656 108.476562 82.007812 108.71875 C 88.195312 109.679688 91.621094 104.871094 95.304688 100.769531 C 96.238281 99.730469 97.28125 98.597656 98.632812 98.109375 C 105.835938 97 113.148438 96.097656 120.421875 94.964844 C 109 123.410156 71.785156 135.628906 45.585938 119.738281 C 21.957031 106.367188 11.679688 76.015625 22.140625 50.980469 C 26.089844 51.589844 30.039062 52.222656 34 52.757812 C 37.582031 53.242188 42.636719 52.957031 45.410156 55.441406 C 50.039062 59.589844 53.230469 65.816406 60.441406 64.679688 C 61.957031 64.441406 62.085938 62.492188 61.269531 61.542969 C 59.910156 59.953125 55.082031 51.707031 58.847656 51.027344 C 71 52.832031 73.742188 40.417969 71.039062 31 C 70.410156 28.597656 66.566406 29.042969 66.65625 31.589844 C 66.808594 35.761719 67.984375 40.402344 65.578125 44.167969 C 64.464844 45.910156 62.953125 47.378906 60.773438 47.355469 C 59.28125 47.34375 57.964844 46.871094 56.511719 47.460938 C 51.652344 49.433594 53.707031 56.078125 56.214844 60.625 C 52.792969 59.160156 50.179688 54.835938 47.484375 52.757812 C 38.519531 46.441406 26.902344 47.949219 16.648438 45.449219 C 11.652344 44.421875 7.097656 42.347656 6.597656 36.660156 C 6.109375 31.109375 6.992188 25.171875 7.648438 19.65625 C 8.753906 4.539062 14.742188 3.703125 28.28125 4.976562 C 34.511719 5.171875 40.738281 5.371094 46.96875 5.566406 C 52.480469 5.742188 60.238281 4.847656 64.683594 8.835938 C 69.082031 12.789062 68.984375 20.46875 67.710938 25.761719 C 67.242188 27.703125 69.917969 28.335938 70.628906 26.566406 C 76.339844 15.449219 70.902344 2.539062 57.753906 1.734375 C 50.460938 0.996094 42.972656 1.199219 35.644531 0.976562 C 29.089844 0.777344 21.882812 -0.300781 15.398438 0.949219 C 2.847656 3.375 3.0625 20.074219 2.386719 29.976562 C 0.84375 42.949219 5.886719 48.828125 18.765625 50.464844 C -0.992188 100.535156 50.8125 149.273438 99.289062 124.976562 C 111.871094 118.59375 122.089844 107.414062 126.191406 93.796875 C 133.589844 92.28125 138.398438 86.546875 138.015625 78.933594 C 137.96875 72.558594 137.25 66.019531 136.226562 59.730469 C 135.449219 54.988281 133.886719 49.863281 129.597656 47.144531 Z M 129.597656 47.144531 " fill-opacity="1" fill-rule="nonzero"/></g><path fill="#000000" d="M 43.640625 25.3125 C 46.265625 23.386719 47.882812 20.59375 47.160156 17.273438 C 45.648438 10.730469 37.1875 9.652344 32.316406 13.160156 C 31.335938 13.769531 31.953125 15.523438 33.132812 15.101562 C 35.4375 14.273438 38.128906 13.644531 40.480469 14.636719 C 42.316406 15.410156 43.777344 17.394531 43.121094 19.328125 C 42.25 21.261719 39.847656 21.910156 38.292969 23.214844 C 35.84375 24.878906 33.355469 28.8125 35.785156 31.449219 C 37.972656 33.132812 39.785156 31.242188 39.726562 28.84375 C 39.992188 27.621094 42.242188 26.246094 43.640625 25.3125 Z M 43.640625 25.3125 " fill-opacity="1" fill-rule="nonzero"/><path fill="#000000" d="M 36.613281 42 C 39.722656 43.738281 42.375 39.191406 39.347656 37.320312 C 36.234375 35.585938 33.585938 40.132812 36.613281 42 Z M 36.613281 42 " fill-opacity="1" fill-rule="nonzero"/><path fill="#000000" d="M 110.375 71.9375 C 111.222656 70.949219 112.035156 69.933594 112.828125 68.902344 C 113.722656 67.742188 114.921875 66.546875 114.417969 64.953125 C 114.136719 64.066406 113.308594 63.347656 112.34375 63.371094 C 110.738281 63.414062 110.0625 64.601562 109.203125 65.753906 C 107.082031 68.464844 104.851562 71.242188 102.230469 73.488281 C 100.683594 71.574219 99.15625 69.6875 97.308594 68.042969 C 96.023438 66.671875 93.777344 68.4375 94.722656 70.039062 C 95.851562 72.28125 97.113281 74.445312 98.730469 76.378906 C 102.761719 81.1875 107.707031 75.203125 110.375 71.9375 Z M 102.378906 73.59375 C 102.5625 73.71875 102.457031 73.652344 102.347656 73.589844 C 102.355469 73.59375 102.378906 73.59375 102.378906 73.59375 Z M 102.101562 73.558594 C 102.101562 73.558594 102.105469 73.5625 102.105469 73.5625 C 101.964844 73.636719 101.964844 73.636719 102.101562 73.558594 Z M 102.101562 73.558594 " fill-opacity="1" fill-rule="nonzero"/><path fill="#000000" d="M 121.21875 37.726562 C 121.570312 36.648438 121.6875 35.5 121.855469 34.378906 C 121.820312 34.640625 121.785156 34.902344 121.75 35.164062 C 121.902344 34.140625 122.269531 33.195312 122.003906 32.164062 C 122.035156 32.398438 122.066406 32.636719 122.101562 32.875 C 122.195312 31.210938 120.648438 29.601562 118.945312 30.140625 C 115.824219 31.199219 114.496094 36.890625 116.964844 39.132812 C 118.386719 40.351562 120.773438 39.515625 121.21875 37.726562 Z M 121.21875 37.726562 " fill-opacity="1" fill-rule="nonzero"/><path fill="#000000" d="M 127.476562 40.722656 C 128.453125 39.269531 130.652344 37.730469 130.109375 35.757812 C 130.09375 34.597656 128.976562 33.613281 127.820312 33.957031 C 125.628906 34.058594 124.984375 36.453125 123.929688 37.988281 C 122.589844 40.203125 125.6875 42.589844 127.476562 40.722656 Z M 127.476562 40.722656 " fill-opacity="1" fill-rule="nonzero"/><path fill="#000000" d="M 137.578125 39.835938 C 135.664062 38.894531 133.699219 40.421875 131.972656 41.15625 C 130.46875 41.96875 130.480469 44.328125 131.972656 45.148438 C 133.242188 45.933594 134.589844 45.003906 135.839844 44.625 C 138.046875 44.066406 140.003906 41.484375 137.578125 39.835938 Z M 137.578125 39.835938 " fill-opacity="1" fill-rule="nonzero"/></g></g></g></svg>