<svg xmlns="http://www.w3.org/2000/svg" xmlns:xlink="http://www.w3.org/1999/xlink" width="500" zoomAndPan="magnify" viewBox="0 0 375 374.999991" height="500" preserveAspectRatio="xMidYMid meet" version="1.0"><defs><filter x="0%" y="0%" width="100%" height="100%" id="dc67c290e4"><feColorMatrix values="0 0 0 0 1 0 0 0 0 1 0 0 0 0 1 0 0 0 1 0" color-interpolation-filters="sRGB"/></filter><mask id="a0d2ef6360"><g filter="url(#dc67c290e4)"><rect x="-37.5" width="450" fill="#000000" y="-37.499999" height="449.999989" fill-opacity="0.41"/></g></mask><clipPath id="5ce9357b99"><path d="M 1 0.554688 L 242.753906 0.554688 L 242.753906 60.554688 L 1 60.554688 Z M 1 0.554688 " clip-rule="nonzero"/></clipPath><clipPath id="eb1efce479"><rect x="0" width="243" y="0" height="61"/></clipPath></defs><g mask="url(#a0d2ef6360)"><g transform="matrix(1, 0, 0, 1, 66, 157)"><g clip-path="url(#eb1efce479)"><g clip-path="url(#5ce9357b99)"><path fill="#000000" d="M 122.445312 0.6875 C 120.6875 0.800781 118.65625 1.566406 116.890625 2.777344 C 116.789062 2.847656 116.457031 3.070312 116.152344 3.273438 C 115.847656 3.472656 114.960938 4.066406 114.179688 4.589844 C 113.402344 5.109375 112.542969 5.667969 112.277344 5.832031 C 106.84375 9.140625 104.390625 10.203125 96.578125 12.640625 C 89.960938 14.703125 86.738281 15.589844 80.429688 17.082031 C 70.015625 19.542969 67.707031 20.324219 67.585938 21.421875 C 67.472656 22.410156 68.894531 22.835938 77.039062 24.246094 C 80.59375 24.859375 82.976562 25.488281 84.574219 26.226562 C 85.960938 26.867188 85.828125 27.257812 83.605469 29.109375 C 80.105469 32.023438 78.839844 34.203125 78.839844 37.304688 C 78.839844 38.34375 78.832031 38.382812 78.636719 38.769531 C 78.191406 39.652344 78.171875 40.867188 78.578125 42.417969 C 79.371094 45.429688 79.355469 45.363281 79.257812 45.425781 C 79.003906 45.582031 77.113281 45.839844 76.195312 45.839844 C 73.683594 45.847656 71.085938 44.933594 68.292969 43.054688 C 67.140625 42.28125 66.621094 41.882812 63.449219 39.332031 C 54.480469 32.121094 48.878906 30.96875 40.175781 34.539062 C 38.996094 35.027344 37.722656 35.601562 33.503906 37.570312 C 27.109375 40.550781 23.363281 41.761719 19.222656 42.183594 C 13.589844 42.757812 5.261719 40.75 2.507812 38.148438 C 2.015625 37.679688 1.765625 37.625 1.476562 37.914062 C 0.476562 38.914062 4.332031 41.195312 9.023438 42.375 C 16.054688 44.144531 21.851562 43.722656 28.816406 40.9375 C 30.644531 40.203125 31.535156 39.804688 36.996094 37.261719 C 42.648438 34.628906 45.402344 33.796875 48.476562 33.789062 C 52.292969 33.785156 56.832031 35.597656 60.714844 38.679688 C 60.859375 38.792969 61.375 39.199219 61.863281 39.578125 C 62.351562 39.960938 62.9375 40.429688 63.167969 40.621094 C 68.035156 44.683594 71.007812 46.359375 74.308594 46.894531 C 75.558594 47.09375 78.273438 46.957031 79.433594 46.632812 C 79.566406 46.597656 79.582031 46.628906 79.621094 47.003906 C 79.910156 49.769531 79.539062 51.898438 77.835938 57.300781 C 77.550781 58.191406 77.5 58.445312 77.472656 59.082031 L 77.4375 59.824219 L 77.714844 60.101562 C 78.132812 60.519531 78.472656 60.5 80.125 59.960938 C 81.613281 59.476562 82.113281 59.351562 83.714844 59.0625 C 87.945312 58.300781 88.054688 57.917969 85.960938 51 C 84.554688 46.359375 83.144531 44.699219 80.90625 45.0625 L 80.523438 45.125 L 80.222656 43.980469 C 80.058594 43.347656 79.835938 42.492188 79.726562 42.074219 C 79.617188 41.660156 79.511719 41.144531 79.488281 40.933594 L 79.445312 40.546875 L 79.707031 40.976562 C 81.164062 43.382812 83.570312 42.859375 83.570312 40.132812 C 83.570312 38.878906 83.101562 38.078125 82.109375 37.625 C 81.652344 37.417969 80.539062 37.320312 80.15625 37.457031 C 79.90625 37.542969 79.902344 37.527344 80.015625 36.566406 C 80.28125 34.226562 81.363281 32.585938 84.277344 30.089844 C 85.773438 28.804688 86.214844 28.355469 86.472656 27.832031 C 87.503906 25.761719 84.820312 24.375 77.246094 23.070312 C 73.585938 22.4375 69.933594 21.707031 69.367188 21.492188 C 68.734375 21.253906 72.570312 20.167969 81.535156 18.050781 C 87.753906 16.578125 93.398438 14.972656 100.3125 12.707031 C 105.839844 10.894531 109.832031 8.941406 114.742188 5.648438 C 115.519531 5.125 116.460938 4.496094 116.84375 4.238281 C 119.507812 2.460938 121.085938 1.855469 123.03125 1.863281 C 124.652344 1.871094 125.496094 2.136719 130.121094 4.101562 C 138.726562 7.753906 143.234375 9.292969 151.8125 11.503906 C 166.019531 15.164062 178.160156 16.976562 193.046875 17.65625 L 194.070312 17.703125 L 191.9375 18.175781 C 179.03125 21.035156 170.523438 24.089844 156.792969 30.78125 C 150.121094 34.035156 148.375 34.6875 144.679688 35.316406 C 140.289062 36.058594 138.265625 36.007812 130.332031 34.941406 C 128.503906 34.695312 125.78125 34.335938 124.277344 34.144531 C 120.6875 33.679688 111.902344 32.480469 107.296875 31.824219 C 97.539062 30.433594 95.671875 30.457031 94.113281 31.996094 C 93.003906 33.097656 92.710938 34.25 91.976562 40.410156 C 91.824219 41.703125 91.574219 43.757812 91.421875 44.976562 C 90.5625 51.855469 90.921875 52.179688 101.074219 53.632812 C 109.65625 54.859375 114.527344 55.300781 120.265625 55.375 C 136.058594 55.574219 145.632812 52.882812 152.261719 46.382812 L 152.753906 45.898438 L 153.207031 46.183594 C 157.007812 48.585938 161.136719 48.480469 167.746094 45.808594 C 168.433594 45.53125 169.878906 44.945312 170.960938 44.507812 C 177.46875 41.882812 178.035156 41.953125 181.058594 45.777344 C 185.839844 51.8125 187.703125 51.859375 195.726562 46.15625 C 195.832031 46.078125 196.367188 45.691406 196.910156 45.292969 C 202.042969 41.550781 203.660156 41.476562 207.394531 44.820312 C 211.320312 48.328125 212.695312 49.347656 215.398438 50.761719 C 221.550781 53.980469 226.019531 54.050781 241.683594 51.183594 L 242.71875 50.996094 L 242.738281 50.390625 C 242.75 50.058594 242.738281 49.789062 242.714844 49.789062 C 242.6875 49.789062 241.996094 49.914062 241.171875 50.0625 C 227.195312 52.625 222.644531 52.710938 217.59375 50.507812 C 214.367188 49.101562 212.542969 47.824219 208.007812 43.777344 C 205.808594 41.8125 204.753906 41.308594 202.847656 41.308594 C 200.757812 41.308594 199.738281 41.769531 196.320312 44.25 C 192.921875 46.71875 191.953125 47.347656 190.164062 48.242188 C 186.972656 49.847656 185.460938 49.410156 182.867188 46.125 C 178.3125 40.367188 178.023438 40.324219 168.957031 44.027344 C 161.210938 47.191406 158.289062 47.484375 154.425781 45.488281 C 153.464844 44.992188 153.511719 45.085938 153.972656 44.527344 C 156.46875 41.496094 156.964844 38.125 155.160156 36.441406 C 153.578125 34.960938 151.328125 35.96875 150.242188 38.644531 C 149.34375 40.863281 149.738281 43.011719 151.367188 44.738281 L 151.808594 45.207031 L 151.167969 45.792969 C 145.574219 50.921875 138.683594 53.347656 127.597656 54.09375 C 125.773438 54.214844 117.828125 54.21875 115.980469 54.09375 C 108.894531 53.628906 97.367188 52.074219 94.46875 51.199219 C 92.179688 50.507812 91.992188 49.9375 92.5625 45.394531 C 92.695312 44.328125 92.945312 42.269531 93.121094 40.824219 C 94.136719 32.328125 94.316406 32.027344 98.34375 32.039062 C 100.261719 32.042969 100.6875 32.089844 106.675781 32.941406 C 111.742188 33.660156 118.960938 34.648438 122.273438 35.078125 C 123.625 35.253906 126.828125 35.675781 129.394531 36.015625 C 138.484375 37.222656 140.566406 37.269531 145.476562 36.390625 C 148.859375 35.78125 150.613281 35.105469 157.546875 31.742188 C 166.328125 27.476562 171.035156 25.507812 178.050781 23.171875 C 183.324219 21.414062 186.863281 20.5 196.863281 18.3125 L 198.9375 17.859375 L 200.597656 17.804688 C 203.191406 17.722656 203.484375 17.65625 203.578125 17.148438 C 203.734375 16.308594 202.652344 16.105469 200.082031 16.496094 C 197.191406 16.929688 182.949219 16.019531 174.488281 14.859375 C 165.050781 13.566406 152.769531 10.800781 143.261719 7.832031 C 139.5 6.65625 136.777344 5.613281 129.949219 2.734375 C 125.523438 0.867188 124.390625 0.558594 122.445312 0.6875 M 153.824219 36.984375 C 154.816406 37.261719 155.3125 38.789062 154.917969 40.339844 C 154.65625 41.363281 153.914062 42.722656 152.996094 43.855469 L 152.613281 44.328125 L 152.308594 44.03125 C 151.027344 42.78125 150.621094 40.953125 151.253906 39.324219 C 151.914062 37.640625 152.910156 36.730469 153.824219 36.984375 M 81.785156 38.820312 C 82.746094 39.417969 82.566406 41.679688 81.59375 41.246094 C 81.027344 40.996094 80.152344 39.507812 80.152344 38.796875 C 80.152344 38.503906 81.304688 38.523438 81.785156 38.820312 M 82.167969 46.390625 C 83.273438 46.960938 83.992188 48.449219 85.238281 52.765625 C 86.089844 55.722656 86.292969 56.980469 85.953125 57.222656 C 85.695312 57.40625 84.777344 57.660156 83.679688 57.851562 C 81.949219 58.15625 79.941406 58.6875 78.660156 59.179688 C 78.53125 59.230469 78.648438 58.742188 79.152344 57.125 C 80.683594 52.183594 81.15625 49.191406 80.785156 46.777344 C 80.710938 46.296875 80.699219 46.328125 80.996094 46.253906 C 81.351562 46.164062 81.835938 46.222656 82.167969 46.390625 " fill-opacity="1" fill-rule="evenodd"/></g></g></g></g></svg>