<svg xmlns="http://www.w3.org/2000/svg" xmlns:xlink="http://www.w3.org/1999/xlink" width="500" zoomAndPan="magnify" viewBox="0 0 375 374.999991" height="500" preserveAspectRatio="xMidYMid meet" version="1.0"><defs><filter x="0%" y="0%" width="100%" height="100%" id="840d34ae4f"><feColorMatrix values="0 0 0 0 1 0 0 0 0 1 0 0 0 0 1 0 0 0 1 0" color-interpolation-filters="sRGB"/></filter><mask id="740932d006"><g filter="url(#840d34ae4f)"><rect x="-37.5" width="450" fill="#000000" y="-37.499999" height="449.999989" fill-opacity="0.41"/></g></mask><clipPath id="43b5e88178"><path d="M 6 1.078125 L 107 1.078125 L 107 109.828125 L 6 109.828125 Z M 6 1.078125 " clip-rule="nonzero"/></clipPath><clipPath id="8c32b8b03a"><path d="M 0.273438 53 L 12 53 L 12 68 L 0.273438 68 Z M 0.273438 53 " clip-rule="nonzero"/></clipPath><clipPath id="978ccba76c"><path d="M 112 16 L 124.726562 16 L 124.726562 25 L 112 25 Z M 112 16 " clip-rule="nonzero"/></clipPath><clipPath id="a37f4d27df"><rect x="0" width="125" y="0" height="111"/></clipPath></defs><g mask="url(#740932d006)"><g transform="matrix(1, 0, 0, 1, 125, 132)"><g clip-path="url(#a37f4d27df)"><g clip-path="url(#43b5e88178)"><path fill="#efe3d4" d="M 6.5 97.890625 C 6.75 96.105469 7.964844 94.523438 9.476562 93.582031 C 10.195312 93.183594 10.023438 92.21875 10.121094 91.5 C 10.046875 90.980469 10.59375 90.632812 10.492188 90.136719 C 10.445312 89.839844 10.492188 89.542969 10.765625 89.367188 C 11.289062 89.046875 11.363281 88.453125 11.660156 87.980469 C 13.046875 86.222656 14.460938 84.539062 15.902344 82.828125 C 16.222656 82.457031 16.421875 81.8125 16.792969 81.539062 C 17.140625 81.417969 17.339844 81.144531 17.4375 80.773438 C 17.511719 80.5 17.6875 80.253906 17.910156 80.054688 C 18.578125 79.335938 19.074219 78.46875 19.570312 77.652344 C 20.042969 77.355469 20.316406 76.882812 20.664062 76.460938 C 21.503906 75.421875 22.546875 74.605469 23.339844 73.539062 C 24.035156 72.746094 24.679688 71.976562 25.351562 71.1875 C 25.449219 71.011719 25.746094 71.035156 25.769531 70.839844 C 25.921875 70.195312 26.714844 70.070312 26.886719 69.453125 C 26.886719 69.425781 26.9375 69.402344 26.988281 69.378906 C 27.308594 69.277344 27.484375 69.03125 27.558594 68.707031 C 27.558594 68.609375 27.65625 68.535156 27.730469 68.484375 C 28.277344 68.039062 28.597656 67.371094 29.070312 66.851562 C 29.390625 66.429688 29.691406 65.910156 30.234375 65.6875 C 30.382812 65.636719 30.410156 65.4375 30.457031 65.289062 C 30.632812 64.644531 31.300781 64.324219 31.675781 63.828125 C 32.21875 63.011719 32.914062 62.316406 33.558594 61.574219 C 34.378906 61.101562 35.292969 60.804688 36.0625 60.285156 C 37.203125 59.667969 38.59375 59.742188 39.261719 58.425781 C 39.3125 58.328125 39.335938 58.179688 39.4375 58.128906 C 39.933594 57.882812 40.207031 57.4375 40.503906 57.039062 C 40.75 56.621094 41.347656 56.59375 41.46875 56.125 C 41.171875 55.15625 40.402344 54.4375 40.207031 53.449219 C 40.207031 53.398438 40.15625 53.324219 40.105469 53.324219 C 39.734375 53.226562 39.710938 52.878906 39.585938 52.605469 C 39.289062 52.035156 39.214844 51.34375 38.792969 50.824219 C 38.542969 50.523438 38.394531 50.152344 38.296875 49.78125 C 38.148438 49.164062 37.699219 48.691406 37.550781 48.097656 C 37.503906 47.550781 37.230469 47.082031 37.054688 46.5625 C 36.90625 46.117188 36.78125 45.695312 36.832031 45.222656 C 36.855469 44.851562 36.882812 44.503906 36.460938 44.308594 C 35.839844 43.613281 36.410156 42.574219 35.863281 41.828125 C 35.46875 41.113281 35.667969 40.21875 35.566406 39.453125 C 35.371094 37.125 35.617188 34.792969 35.988281 32.492188 C 36.238281 31.003906 36.4375 29.519531 36.632812 28.03125 C 36.855469 26.546875 37.425781 25.183594 37.800781 23.746094 C 37.949219 23.175781 38.519531 22.753906 38.644531 22.160156 C 38.964844 20.722656 40.15625 19.734375 40.550781 18.296875 C 40.75 17.726562 41.199219 17.328125 41.617188 16.957031 C 43.082031 15.445312 44.421875 13.835938 45.933594 12.375 C 46.480469 11.78125 46.828125 11.039062 47.496094 10.542969 C 48.859375 9.304688 50.050781 7.890625 51.613281 6.875 C 52.40625 6.230469 53.449219 6.058594 54.316406 5.585938 C 56.324219 4.496094 58.632812 4.226562 60.691406 3.210938 C 60.964844 3.058594 61.285156 2.9375 61.582031 2.960938 C 62.277344 2.984375 62.875 2.664062 63.542969 2.589844 C 63.867188 2.539062 64.210938 2.539062 64.484375 2.34375 C 64.757812 2.144531 65.082031 2.09375 65.429688 2.070312 C 66.644531 1.996094 67.808594 1.597656 69 1.449219 C 69.371094 1.402344 69.742188 1.5 70.089844 1.351562 C 70.660156 1.128906 71.179688 1.300781 71.726562 1.425781 C 73.464844 1.574219 75.222656 1.746094 76.984375 1.773438 C 79.042969 1.996094 81.078125 2.640625 83.109375 3.085938 C 83.507812 3.257812 83.855469 3.605469 84.300781 3.628906 C 85.121094 3.753906 85.589844 4.421875 86.335938 4.671875 C 87.601562 5.09375 88.640625 5.957031 89.855469 6.527344 C 91.070312 7.125 92.1875 7.941406 93.253906 8.808594 C 93.972656 9.328125 94.59375 9.972656 95.261719 10.515625 C 96.03125 11.136719 96.898438 11.707031 97.320312 12.671875 C 97.421875 12.871094 97.59375 13.019531 97.769531 13.117188 C 98.636719 13.710938 98.957031 14.753906 99.726562 15.421875 C 99.925781 15.621094 100.097656 15.84375 100.222656 16.117188 C 100.496094 16.910156 101.164062 17.476562 101.5625 18.195312 C 102.257812 19.808594 103.472656 21.09375 104.042969 22.78125 C 104.414062 23.917969 105.109375 24.910156 105.355469 26.097656 C 105.40625 26.742188 105.804688 27.3125 105.777344 27.933594 C 105.753906 28.402344 105.804688 28.847656 105.925781 29.292969 C 106.175781 30.261719 106.226562 31.25 106.398438 32.21875 C 106.472656 32.566406 106.546875 32.886719 106.449219 33.234375 C 106.398438 33.40625 106.375 33.65625 106.449219 33.804688 C 106.820312 34.472656 106.449219 35.214844 106.671875 35.882812 C 106.671875 35.933594 106.671875 36.058594 106.621094 36.105469 C 106.300781 36.503906 106.472656 36.949219 106.496094 37.394531 C 106.546875 38.1875 106.671875 39.003906 106.375 39.773438 C 106.273438 39.996094 106.523438 40.246094 106.375 40.441406 C 106.050781 40.9375 106.175781 41.632812 106.175781 42.175781 C 105.53125 45.324219 104.960938 48.542969 103.597656 51.464844 C 101.960938 55.257812 100.148438 59.144531 97.046875 61.96875 C 96.800781 62.492188 96.207031 62.761719 96.03125 63.355469 C 95.5625 63.628906 95.1875 64.027344 94.941406 64.523438 C 94.816406 64.746094 94.691406 64.941406 94.394531 64.941406 C 94.246094 64.941406 94.121094 65.066406 94.023438 65.214844 C 93.625 65.882812 93.007812 66.304688 92.363281 66.578125 C 90.996094 67.296875 89.832031 68.210938 88.46875 68.882812 C 88.246094 69.003906 88.070312 69.179688 87.824219 69.253906 C 85.960938 69.773438 84.128906 70.417969 82.316406 71.085938 C 81.671875 71.359375 80.855469 71.261719 80.234375 71.632812 C 79.960938 71.78125 79.714844 71.855469 79.441406 71.855469 C 77.28125 72.277344 75.175781 72.871094 72.941406 72.96875 C 71.726562 73.042969 70.609375 72.574219 69.445312 72.523438 C 69.097656 72.425781 68.777344 72.203125 68.378906 72.398438 C 68.328125 72.398438 68.253906 72.398438 68.207031 72.398438 C 67.660156 71.929688 66.867188 72.324219 66.320312 71.878906 C 66 71.953125 65.773438 71.679688 65.503906 71.679688 C 64.757812 71.679688 64.039062 71.457031 63.34375 71.285156 C 62.824219 71.136719 62.277344 71.285156 61.757812 71.085938 C 61.484375 70.988281 61.160156 70.9375 60.839844 71.011719 C 60.765625 71.035156 60.617188 71.011719 60.566406 70.988281 C 60.246094 70.691406 59.824219 70.738281 59.449219 70.617188 C 58.507812 70.320312 57.464844 70.367188 56.597656 69.722656 C 56.425781 69.601562 56.101562 69.453125 55.902344 69.675781 C 55.632812 69.972656 55.308594 70.21875 55.160156 70.617188 C 53.796875 73.886719 54.367188 75.296875 51.738281 78.320312 C 51.390625 78.742188 50.992188 79.136719 50.769531 79.65625 C 50.695312 79.832031 50.570312 79.929688 50.398438 80.003906 C 50.175781 80.105469 50.027344 80.253906 50.050781 80.550781 C 50.050781 80.699219 50.050781 80.847656 49.925781 80.921875 C 49.578125 81.144531 49.40625 81.515625 49.109375 81.789062 C 48.539062 82.359375 47.992188 82.976562 47.347656 83.523438 C 46.925781 83.96875 46.652344 84.585938 46.035156 84.835938 C 44.273438 86.964844 42.4375 89.070312 40.675781 91.226562 C 39.214844 93.257812 37.277344 94.867188 35.59375 96.726562 C 34.304688 97.988281 33.0625 99.277344 31.773438 100.542969 C 30.457031 102.027344 28.96875 103.367188 27.605469 104.800781 C 27.210938 105.074219 26.613281 105 26.339844 105.519531 C 26.144531 105.84375 25.871094 105.917969 25.523438 105.964844 C 24.828125 106.066406 24.109375 106.214844 23.339844 106.214844 C 23.21875 107.105469 22.496094 107.601562 22.125 108.320312 C 22.074219 108.445312 21.925781 108.519531 21.777344 108.542969 C 21.457031 108.59375 21.183594 108.667969 21.082031 109.039062 C 21.035156 109.238281 20.8125 109.285156 20.613281 109.3125 C 19.894531 109.460938 19.222656 109.757812 18.480469 109.757812 C 17.339844 109.78125 16.148438 109.609375 15.058594 109.359375 C 14.535156 108.988281 13.964844 108.839844 13.371094 108.667969 C 12.925781 108.542969 12.453125 108.492188 12.15625 108.074219 C 11.484375 107.699219 10.617188 107.625 10.121094 106.957031 C 9.773438 106.535156 9.253906 106.238281 9.007812 105.742188 C 8.855469 105.445312 8.683594 105.175781 8.410156 104.976562 C 8.3125 104.902344 8.210938 104.800781 8.210938 104.703125 C 8.261719 104.257812 7.988281 104.035156 7.691406 103.835938 C 7.246094 103.488281 7.292969 102.820312 7.046875 102.398438 C 6.773438 102.078125 6.699219 101.78125 6.75 101.382812 C 6.75 101.011719 6.351562 100.765625 6.476562 100.34375 C 6.601562 99.527344 6.328125 98.683594 6.550781 97.867188 Z M 6.5 97.890625 " fill-opacity="1" fill-rule="nonzero"/></g><path fill="#febf00" d="M 13.199219 92.390625 C 13.617188 91.003906 14.785156 89.988281 15.875 89.097656 C 16.023438 89.292969 15.851562 89.515625 16.050781 89.691406 C 16.421875 89.691406 16.792969 89.640625 17.214844 89.617188 C 17.191406 90.085938 16.519531 90.160156 16.59375 90.65625 C 17.164062 90.90625 17.363281 90.113281 17.933594 90.136719 C 18.578125 89.714844 19.148438 89.046875 19.570312 88.378906 C 19.820312 87.933594 20.015625 87.4375 20.511719 87.164062 C 20.636719 87.089844 20.710938 86.941406 20.761719 86.792969 C 21.578125 85.628906 22.84375 84.785156 23.167969 83.273438 C 23.886719 82.035156 23.789062 80.476562 24.605469 79.285156 C 24.878906 78.839844 24.902344 78.296875 25.199219 77.875 C 25.226562 77.824219 25.199219 77.726562 25.199219 77.652344 C 25.027344 77.007812 25.273438 76.460938 25.621094 75.964844 C 26.988281 74.058594 28.671875 72.398438 29.960938 70.441406 C 30.234375 69.996094 30.632812 69.648438 30.855469 69.179688 C 30.90625 69.054688 31.054688 68.929688 31.152344 68.832031 C 31.75 68.335938 32.167969 67.691406 32.863281 67.296875 C 32.964844 67.246094 33.039062 67.148438 33.085938 67.046875 C 33.234375 66.675781 33.558594 66.480469 33.855469 66.28125 C 34.601562 65.734375 35.21875 65.042969 35.941406 64.449219 C 36.460938 63.976562 36.535156 63.976562 37.054688 64.472656 C 37.351562 64.375 37.652344 64.273438 37.972656 64.175781 C 38.121094 64.125 38.269531 64.027344 38.417969 64.125 C 38.765625 64.398438 39.089844 64.222656 39.386719 64.050781 C 39.882812 63.777344 40.429688 63.851562 40.972656 63.851562 C 41.617188 63.925781 41.320312 64.644531 42.265625 64.472656 C 42.414062 64.222656 42.511719 63.730469 42.882812 63.878906 C 43.15625 64.027344 43.453125 64.148438 43.652344 64.375 C 44.472656 65.214844 45.117188 66.179688 45.238281 67.371094 C 45.289062 67.890625 45.613281 68.460938 45.015625 68.929688 C 45.289062 69.253906 45.164062 69.675781 45.339844 69.996094 C 45.636719 70.640625 45.660156 71.335938 45.785156 72.003906 C 45.785156 72.597656 45.464844 73.167969 45.238281 73.6875 C 45.066406 74.007812 44.992188 74.40625 44.71875 74.628906 C 43.355469 76.015625 42.585938 77.921875 41.296875 79.359375 C 40.875 79.707031 40.527344 80.105469 40.15625 80.476562 C 38.71875 82.234375 37.253906 83.992188 35.914062 85.851562 C 34.847656 87.140625 34.003906 88.601562 32.914062 89.863281 C 32.019531 90.855469 31.054688 91.773438 30.382812 92.910156 C 29.839844 93.65625 29.046875 94.273438 29.070312 95.339844 C 29.046875 95.585938 28.722656 95.6875 28.820312 95.984375 C 29.019531 95.933594 29.292969 95.613281 29.441406 96.058594 C 28.996094 96.851562 29.019531 97 29.8125 97.617188 C 29.316406 98.609375 28.425781 99.152344 27.679688 99.871094 C 27.085938 100.566406 26.515625 101.257812 25.769531 101.804688 C 25.574219 101.929688 25.523438 102.101562 25.523438 102.351562 C 25.523438 103.367188 24.777344 103.265625 23.960938 103.292969 C 21.953125 103.539062 20.265625 101.804688 19.644531 100.046875 C 19.273438 99.550781 18.851562 99.054688 18.207031 98.78125 C 17.191406 98.4375 16.472656 97.644531 15.703125 96.949219 C 14.683594 96.058594 13.890625 95.015625 13.667969 93.628906 C 13.617188 93.308594 13.617188 92.9375 13.296875 92.6875 C 13.195312 92.613281 13.171875 92.441406 13.222656 92.316406 Z M 32.09375 72.5 C 31.699219 72.574219 31.550781 72.84375 31.425781 73.191406 C 31.824219 73.191406 31.921875 73.09375 32.09375 72.5 Z M 25.273438 100.070312 C 25.078125 100.195312 24.828125 100.242188 24.679688 100.515625 C 25.050781 100.589844 25.175781 100.34375 25.273438 100.070312 Z M 25.273438 100.070312 " fill-opacity="1" fill-rule="nonzero"/><path fill="#4a71f6" d="M 48.09375 37.644531 C 48.09375 37.59375 48.140625 37.542969 48.167969 37.496094 C 48.6875 36.949219 48.066406 36.257812 48.4375 35.710938 C 49.007812 34.71875 48.761719 33.433594 49.480469 32.464844 C 49.554688 32.367188 49.554688 32.242188 49.53125 32.144531 C 49.480469 31.671875 49.703125 31.226562 49.878906 30.832031 C 50.25 30.039062 50.570312 29.21875 51.066406 28.476562 C 51.539062 27.785156 51.761719 26.941406 52.507812 26.472656 C 52.605469 26.421875 52.65625 26.296875 52.730469 26.199219 C 52.878906 25.976562 53.027344 25.800781 53.273438 25.703125 C 53.96875 25.15625 54.539062 24.414062 55.210938 23.820312 C 56.324219 22.632812 57.765625 21.839844 59.078125 20.921875 C 59.476562 20.351562 60.121094 20.128906 60.617188 19.660156 C 60.765625 19.507812 60.964844 19.410156 61.160156 19.335938 C 61.855469 19.089844 62.527344 18.792969 63.144531 18.34375 C 63.941406 18.046875 64.757812 17.800781 65.578125 17.703125 C 66.394531 17.625 67.238281 17.355469 68.082031 17.703125 C 68.207031 17.75 68.304688 17.703125 68.429688 17.652344 C 68.578125 17.625 68.726562 17.550781 68.875 17.578125 C 69.59375 17.625 70.289062 17.328125 71.007812 17.578125 C 71.105469 17.601562 71.230469 17.578125 71.355469 17.550781 C 72.398438 17.355469 73.289062 18.074219 74.332031 18.097656 C 75.449219 18.097656 76.363281 19.0625 77.503906 18.742188 C 78.375 18.566406 79.21875 19.113281 79.886719 19.582031 C 80.433594 19.90625 81.003906 20.253906 81.398438 20.722656 C 82.265625 21.738281 83.457031 22.480469 84.128906 23.695312 C 85.21875 24.738281 86.210938 25.949219 86.929688 27.289062 C 87.375 28.351562 88.195312 29.246094 88.515625 30.359375 C 88.566406 30.804688 88.714844 31.226562 88.9375 31.597656 C 89.410156 32.316406 89.238281 33.160156 89.535156 33.902344 C 90.078125 34.792969 89.855469 35.859375 90.179688 36.800781 C 90.203125 36.898438 90.253906 37.046875 90.230469 37.148438 C 90.054688 37.519531 90.230469 37.890625 90.230469 38.289062 C 90.230469 39.378906 90.128906 40.46875 90.230469 41.558594 C 90.230469 41.679688 90.230469 41.78125 90.128906 41.878906 C 89.855469 42.398438 89.929688 43.042969 89.957031 43.613281 C 89.980469 44.207031 89.734375 44.777344 89.609375 45.347656 C 89.535156 45.695312 89.359375 46.066406 89.210938 46.4375 C 89.039062 46.832031 89.039062 47.304688 88.640625 47.601562 C 88.515625 47.699219 88.542969 47.851562 88.515625 47.972656 C 88.441406 49.0625 87.675781 49.808594 87.328125 50.796875 C 87.277344 50.972656 87.152344 51.09375 87.003906 51.195312 C 86.609375 51.492188 86.382812 51.988281 86.011719 52.308594 C 85.765625 52.605469 85.390625 52.628906 85.167969 52.855469 C 84.375 53.722656 83.308594 54.265625 82.441406 54.984375 C 81.894531 55.949219 80.730469 55.503906 80.011719 56.222656 C 79.761719 56.46875 79.464844 56.769531 79.019531 56.769531 C 78.894531 56.769531 78.769531 56.867188 78.671875 56.964844 C 78.324219 57.363281 77.777344 57.484375 77.40625 57.832031 C 77.332031 57.90625 77.234375 57.933594 77.132812 57.90625 C 76.761719 57.859375 76.4375 58.03125 76.167969 58.253906 C 75 59.023438 73.5625 59.171875 72.371094 59.890625 C 72.246094 59.9375 72.125 60.039062 72.074219 60.160156 C 71.800781 60.78125 70.734375 60.460938 70.164062 60.582031 C 70.113281 60.804688 70.339844 60.878906 70.339844 61.128906 C 69.46875 61.25 68.628906 61.175781 67.734375 61.203125 C 67.386719 61.203125 67.039062 61.152344 66.765625 60.929688 C 66.46875 60.683594 66.148438 60.632812 65.800781 60.804688 C 65.601562 60.90625 65.378906 60.878906 65.179688 60.78125 C 64.808594 60.558594 64.410156 60.433594 63.988281 60.382812 C 63.292969 60.285156 62.648438 60.011719 62.03125 59.714844 C 61.238281 59.34375 60.367188 59.195312 59.648438 58.726562 C 56.476562 56.964844 53.5 54.960938 51.339844 52.011719 C 50.84375 51.316406 50.25 50.648438 50.152344 49.730469 C 50.125 49.507812 50 49.285156 49.851562 49.113281 C 49.28125 48.59375 49.554688 47.800781 49.234375 47.179688 C 49.035156 46.785156 48.785156 46.414062 48.910156 45.917969 C 48.761719 45.074219 48.265625 44.28125 48.242188 43.390625 C 48.242188 43.019531 48.214844 42.648438 48.117188 42.300781 C 47.695312 40.789062 48.042969 39.277344 48.191406 37.742188 Z M 48.09375 37.644531 " fill-opacity="1" fill-rule="nonzero"/><path fill="#fc7c2c" d="M 54.144531 88.007812 C 56.746094 85.851562 57.417969 86.792969 60.269531 86.125 C 62.179688 86.125 64.113281 85.925781 66.023438 86.246094 C 67.164062 86.59375 68.402344 86.542969 69.519531 86.917969 C 69.941406 87.039062 70.265625 86.992188 70.585938 86.769531 C 71.257812 86.320312 71.976562 85.949219 72.742188 85.652344 C 76.363281 84.289062 80.359375 83.871094 84.175781 84.488281 C 84.375 84.511719 84.574219 84.5625 84.671875 84.316406 C 84.921875 83.621094 85.515625 83.199219 85.988281 82.679688 C 86.507812 82.0625 87.425781 82.0625 88.019531 81.492188 C 89.882812 80.253906 92.238281 79.78125 94.445312 79.878906 C 96.402344 79.878906 98.363281 80.203125 100.222656 80.796875 C 101.089844 80.972656 101.933594 81.195312 102.726562 81.640625 C 103.570312 82.183594 104.613281 82.285156 105.40625 82.953125 C 106.496094 83.300781 107.339844 84.042969 108.132812 84.8125 C 108.257812 84.933594 108.332031 85.082031 108.382812 85.257812 C 108.480469 85.851562 108.058594 86.421875 107.441406 86.46875 C 106.96875 86.46875 106.472656 86.519531 106.101562 86.125 C 105.457031 85.800781 104.761719 85.554688 104.117188 85.183594 C 102.851562 84.390625 101.363281 84.242188 100.050781 83.597656 C 99.976562 83.546875 99.851562 83.546875 99.777344 83.546875 C 99.40625 83.546875 99.179688 83.199219 98.808594 83.25 C 98.386719 83.324219 98.015625 83.003906 97.621094 83.003906 C 96.652344 83.300781 95.757812 82.53125 94.792969 82.730469 C 94.171875 82.855469 93.550781 82.753906 92.957031 83.027344 C 92.90625 83.027344 92.832031 83.027344 92.78125 83.027344 C 92.039062 83.027344 91.394531 83.398438 90.699219 83.523438 C 89.90625 83.746094 89.039062 83.871094 88.46875 84.539062 C 88.121094 84.761719 87.796875 84.933594 87.5 85.304688 C 90.105469 86.222656 92.757812 87.261719 94.617188 89.441406 C 95.363281 89.890625 95.5625 90.632812 95.832031 91.375 C 96.628906 92.664062 95.113281 94.398438 93.875 94.695312 C 92.261719 94.992188 90.773438 94.398438 89.3125 93.804688 C 88.144531 93.183594 87.277344 92.21875 86.359375 91.324219 C 85.714844 90.632812 84.996094 89.890625 84.722656 88.949219 C 84.671875 88.574219 84.574219 88.179688 84.351562 87.882812 C 83.679688 87.238281 84.597656 85.949219 83.605469 85.902344 C 80.703125 85.578125 77.730469 85.675781 74.925781 86.542969 C 74.183594 86.769531 73.464844 87.015625 72.769531 87.386719 C 72.519531 87.535156 72.246094 87.660156 72.171875 87.933594 C 72.246094 88.15625 72.421875 88.203125 72.59375 88.230469 C 73.414062 88.527344 74.132812 89.097656 74.800781 89.640625 C 76.4375 90.804688 77.355469 94.347656 74.726562 94.820312 C 73.066406 94.96875 71.378906 94.125 70.140625 93.058594 C 69.644531 92.589844 68.949219 92.21875 68.925781 91.398438 C 68.925781 91.351562 68.875 91.277344 68.851562 91.25 C 68.03125 90.433594 68.703125 89.441406 68.800781 88.453125 C 67.636719 88.351562 66.519531 88.03125 65.351562 88.253906 C 65.054688 88.304688 64.734375 88.328125 64.4375 88.328125 C 64.015625 88.304688 63.59375 88.203125 63.21875 88.476562 C 63.144531 88.527344 63.023438 88.527344 62.949219 88.476562 C 62.003906 88.304688 61.210938 88.949219 60.320312 88.949219 C 59.945312 88.875 59.625 88.949219 59.328125 89.144531 C 58.855469 89.394531 58.285156 89.34375 57.914062 89.742188 C 57.367188 90.039062 56.425781 90.011719 55.929688 89.617188 C 55.878906 89.566406 55.78125 89.589844 55.707031 89.566406 C 54.960938 89.566406 54.539062 89.023438 54.070312 88.601562 C 53.820312 88.378906 53.894531 88.203125 54.167969 88.007812 Z M 87.574219 87.980469 C 87.625 88.03125 87.675781 88.082031 87.675781 88.128906 C 87.675781 88.726562 88.171875 89.070312 88.441406 89.542969 C 89.0625 90.878906 90.574219 91.398438 91.640625 92.316406 C 93.949219 94 94.074219 91.921875 92.882812 90.359375 C 92.0625 89.023438 88.667969 86.992188 87.152344 86.816406 C 87.203125 87.261719 87.253906 87.683594 87.601562 87.980469 Z M 71.105469 89.515625 C 71.179688 89.816406 71.28125 90.113281 71.179688 90.410156 C 71.132812 90.558594 71.179688 90.683594 71.304688 90.757812 C 71.800781 91.054688 71.976562 91.625 72.324219 92.042969 C 72.769531 92.640625 73.4375 92.984375 74.035156 93.429688 C 74.15625 93.53125 74.28125 93.605469 74.457031 93.605469 C 74.777344 93.628906 74.851562 93.605469 74.925781 93.257812 C 75.222656 91.128906 72.96875 89.441406 71.105469 89.046875 C 70.984375 89.195312 71.082031 89.34375 71.105469 89.492188 Z M 71.105469 89.515625 " fill-opacity="1" fill-rule="nonzero"/><path fill="#fc7c2c" d="M 14.4375 47.03125 C 15.453125 46.933594 16.445312 46.734375 17.488281 46.757812 C 18.628906 46.734375 19.472656 45.867188 20.09375 45 C 20.316406 44.753906 20.488281 44.578125 20.910156 44.605469 C 20.933594 44.234375 21.109375 44.035156 21.355469 43.835938 C 21.628906 43.589844 21.804688 43.21875 22.148438 43.042969 C 22.273438 42.96875 22.226562 42.796875 22.25 42.671875 C 22.347656 42.101562 22.496094 41.53125 22.992188 41.160156 C 23.390625 40.863281 25.101562 39.921875 25.226562 40.789062 C 25.273438 41.410156 25.871094 41.878906 25.5 42.523438 C 25.125 43.390625 25.523438 44.40625 25.695312 45.296875 C 26.265625 47.132812 27.160156 48.941406 28.847656 49.90625 C 29.167969 50.425781 29.886719 50.523438 30.433594 50.476562 C 31.128906 50.476562 31.597656 50.996094 31.476562 51.640625 C 31.300781 52.183594 31.375 53.175781 30.609375 53.226562 C 29.863281 53.300781 29.121094 53.398438 28.398438 53.050781 C 25.921875 53.050781 26.191406 53.175781 24.207031 54.464844 C 24.011719 54.984375 23.488281 55.257812 23.242188 55.753906 C 22.84375 56.496094 22.523438 57.238281 22.375 58.054688 C 22.074219 59.863281 21.382812 61.648438 19.570312 59.691406 C 19.371094 58.476562 19.296875 57.214844 19.324219 55.976562 C 19.324219 55.628906 19.324219 55.257812 19 54.984375 C 18.800781 54.835938 18.753906 54.5625 18.726562 54.289062 C 18.726562 54.117188 18.726562 53.945312 18.605469 53.796875 C 18.230469 53.273438 18.082031 52.628906 17.882812 52.035156 C 17.414062 50.550781 15.851562 49.957031 14.511719 49.460938 C 13.519531 49.164062 13.46875 48.988281 13.496094 47.972656 C 13.496094 47.527344 13.941406 47.007812 14.363281 47.007812 Z M 14.4375 47.03125 " fill-opacity="1" fill-rule="nonzero"/><g clip-path="url(#8c32b8b03a)"><path fill="#fc7c2c" d="M 1.34375 58.351562 C 2.707031 58.179688 4.09375 57.683594 5.039062 56.59375 C 5.484375 56.023438 6.105469 55.578125 6.179688 54.761719 C 6.179688 54.6875 6.253906 54.636719 6.300781 54.585938 C 6.601562 54.265625 6.550781 53.769531 6.722656 53.375 C 7.121094 53.226562 7.492188 53.25 7.890625 53.300781 C 7.964844 54.636719 8.089844 55.949219 8.359375 57.238281 C 8.535156 57.90625 9.105469 58.402344 9.277344 59.070312 C 9.328125 59.292969 9.578125 59.367188 9.773438 59.441406 C 10.617188 59.789062 11.164062 60.433594 11.558594 61.25 C 10.792969 62.265625 9.726562 61.625 9.007812 62.492188 C 7.667969 63.457031 6.625 64.644531 6.277344 66.304688 C 6.203125 66.652344 6.03125 66.949219 5.78125 67.222656 C 5.609375 67.421875 5.410156 67.445312 5.234375 67.222656 C 4.9375 66.800781 4.269531 66.675781 4.320312 66.058594 C 4.21875 64.347656 3.871094 62.539062 2.683594 61.25 C 2.410156 60.929688 2.234375 60.507812 1.839844 60.335938 C 1.070312 59.988281 0.574219 59.417969 0.226562 58.652344 C 0.574219 58.453125 0.921875 58.277344 1.367188 58.351562 Z M 1.34375 58.351562 " fill-opacity="1" fill-rule="nonzero"/></g><path fill="#febf00" d="M 113.21875 30.335938 C 113.34375 29.988281 114.261719 29.789062 114.609375 29.789062 C 115.351562 29.863281 116.097656 29.519531 116.839844 29.789062 C 117.558594 29.59375 118.328125 29.667969 119.070312 29.667969 C 119.371094 29.59375 119.640625 29.667969 119.964844 29.714844 C 120.261719 29.789062 120.558594 29.492188 120.90625 29.519531 C 121.128906 29.519531 121.378906 29.640625 121.578125 29.640625 C 122 29.46875 122.296875 29.714844 122.644531 29.890625 C 122.941406 30.039062 123.089844 30.308594 123.335938 30.484375 C 123.734375 30.78125 123.734375 31.226562 123.757812 31.625 C 123.757812 31.894531 123.757812 32.117188 123.90625 32.367188 C 124.179688 32.863281 123.683594 33.207031 123.636719 33.65625 C 123.636719 34 123.4375 34.226562 123.164062 34.398438 C 122.519531 34.867188 123.164062 35.835938 122.34375 36.355469 C 122.074219 36.578125 121.875 36.628906 121.578125 36.527344 C 119.195312 35.339844 116.914062 34 114.410156 33.085938 C 112.773438 32.390625 112.476562 32.070312 113.195312 30.386719 Z M 113.21875 30.335938 " fill-opacity="1" fill-rule="nonzero"/><g clip-path="url(#978ccba76c)"><path fill="#febf00" d="M 113.964844 21.566406 C 115.449219 21.019531 116.292969 19.683594 117.535156 18.765625 C 118.054688 18.46875 118.402344 17.925781 118.972656 17.625 C 119.121094 17.550781 119.320312 17.476562 119.394531 17.328125 C 119.691406 16.835938 120.238281 16.683594 120.683594 16.386719 C 120.980469 16.191406 121.230469 16.214844 121.527344 16.4375 C 122.074219 16.933594 122.269531 17.703125 122.617188 18.320312 C 122.867188 18.964844 123.511719 19.285156 123.933594 19.808594 C 124.726562 20.75 123.757812 21.738281 122.839844 21.960938 C 122.171875 22.0625 121.652344 22.480469 121.007812 22.65625 C 119.246094 23.101562 117.558594 23.722656 115.824219 24.265625 C 114.730469 24.4375 113.664062 25.132812 112.574219 24.414062 C 112.871094 23.574219 113.167969 22.804688 113.492188 22.085938 C 113.589844 21.863281 113.714844 21.640625 113.964844 21.539062 Z M 113.964844 21.566406 " fill-opacity="1" fill-rule="nonzero"/></g><path fill="#febf00" d="M 109.125 15.148438 C 109.277344 13.515625 109.472656 11.90625 109.621094 10.269531 C 109.722656 9.574219 110.515625 9.203125 111.109375 8.957031 C 111.410156 9.203125 111.855469 9.203125 112.152344 9.402344 C 112.773438 9.824219 113.589844 9.898438 114.113281 10.441406 C 114.160156 10.492188 114.261719 10.515625 114.335938 10.515625 C 114.632812 10.417969 114.78125 10.640625 115.003906 10.765625 C 115.277344 10.914062 115.425781 11.085938 115.328125 11.410156 C 115.328125 11.433594 115.328125 11.484375 115.375 11.507812 C 115.796875 11.753906 115.253906 12.25 115.105469 12.523438 C 113.988281 14.035156 112.746094 15.421875 111.507812 16.808594 C 111.0625 17.304688 110.492188 17.625 109.847656 17.800781 C 109.226562 17.972656 108.976562 17.925781 108.878906 17.15625 C 108.707031 16.488281 109.003906 15.84375 109.152344 15.199219 Z M 109.125 15.148438 " fill-opacity="1" fill-rule="nonzero"/><path fill="#000001" d="M 10.542969 99.277344 C 10.644531 97.320312 12.355469 96.058594 13.992188 95.289062 C 14.363281 95.066406 14.363281 95.066406 14.238281 94.644531 C 13.816406 93.65625 13.273438 92.488281 14.140625 91.574219 C 14.609375 90.90625 15.230469 90.359375 15.578125 89.640625 C 15.675781 89.417969 15.949219 89.292969 16.050781 88.949219 C 15.429688 89.246094 15.230469 89.9375 14.511719 90.0625 C 15.007812 88.625 16.296875 87.710938 17.164062 86.496094 C 20.785156 81.9375 24.929688 77.847656 28.425781 73.191406 C 29.464844 71.929688 30.558594 70.664062 31.597656 69.402344 C 32.144531 68.734375 32.566406 68.015625 33.210938 67.46875 C 33.757812 66.578125 34.425781 65.785156 35.320312 65.214844 C 36.113281 64.71875 36.707031 63.902344 37.699219 63.730469 C 38.074219 63.65625 38.371094 63.355469 38.71875 63.257812 C 39.460938 62.984375 40.253906 62.910156 41.023438 63.257812 C 41.199219 63.332031 41.347656 63.480469 41.59375 63.433594 C 41.742188 63.011719 42.039062 62.664062 42.488281 62.441406 C 42.585938 62.390625 42.636719 62.316406 42.636719 62.21875 C 42.785156 61.550781 43.355469 61.203125 43.726562 60.707031 C 44 60.308594 44.398438 59.964844 44.695312 59.566406 C 45.390625 58.699219 46.15625 57.90625 46.976562 57.164062 C 47.175781 56.992188 47.445312 56.816406 47.496094 56.46875 C 47.125 56.125 46.679688 55.777344 46.554688 55.230469 C 46.554688 55.183594 46.480469 55.15625 46.429688 55.109375 C 46.109375 54.886719 45.984375 54.5625 45.933594 54.167969 C 45.933594 54.042969 45.933594 53.871094 45.808594 53.796875 C 45.363281 53.546875 45.191406 53.078125 44.992188 52.65625 C 44.023438 51.390625 43.726562 49.90625 42.910156 48.566406 C 40.949219 45.125 39.609375 41.308594 39.4375 37.320312 C 39.460938 36.925781 39.363281 35.882812 39.90625 35.957031 C 40.253906 36.726562 40.105469 37.617188 40.328125 38.4375 C 40.476562 38.335938 40.476562 38.214844 40.453125 38.113281 C 40.378906 37.445312 40.328125 36.800781 40.527344 36.132812 C 40.601562 35.882812 40.625 35.613281 40.453125 35.339844 C 40.355469 35.191406 40.355469 35.042969 40.429688 34.894531 C 40.578125 34.496094 40.527344 34.101562 40.476562 33.703125 C 40.527344 32.613281 40.628906 31.5 40.75 30.386719 C 41.171875 28.277344 41.867188 26.222656 42.835938 24.289062 C 43.253906 23.496094 43.875 22.828125 44.222656 21.988281 C 46.40625 17.503906 49.902344 13.589844 53.996094 10.714844 C 56.175781 9.15625 58.730469 8.410156 61.238281 7.519531 C 64.015625 6.601562 66.890625 6.183594 69.792969 5.957031 C 71.355469 5.933594 72.941406 5.785156 74.503906 5.808594 C 77.058594 6.230469 79.589844 6.949219 81.996094 7.867188 C 84.796875 9.082031 87.898438 9.722656 90.253906 11.753906 C 90.476562 11.929688 90.75 12.054688 90.800781 12.425781 C 90.03125 12.546875 89.558594 11.878906 88.890625 11.730469 C 88.890625 11.90625 88.9375 12.027344 89.085938 12.101562 C 89.683594 12.398438 90.230469 12.820312 90.773438 13.191406 C 91.394531 13.636719 91.914062 14.183594 92.558594 14.605469 C 93.253906 15.050781 93.625 15.820312 94.269531 16.289062 C 94.371094 16.363281 94.394531 16.488281 94.445312 16.585938 C 94.570312 16.808594 94.667969 17.105469 94.867188 17.253906 C 95.484375 17.726562 95.785156 18.417969 96.207031 19.039062 C 96.628906 19.632812 97.046875 20.253906 97.371094 20.945312 C 97.496094 21.195312 97.71875 21.390625 97.644531 21.738281 C 97.621094 21.886719 97.769531 21.960938 97.867188 22.0625 C 98.238281 22.433594 98.636719 22.753906 98.6875 23.347656 C 98.6875 23.496094 98.785156 23.648438 98.910156 23.746094 C 99.800781 24.539062 99.703125 25.777344 100.273438 26.71875 C 100.695312 27.214844 100.867188 27.808594 100.96875 28.453125 C 101.6875 30.1875 101.6875 32.117188 101.933594 33.953125 C 101.933594 34.992188 102.109375 36.058594 102.132812 37.097656 C 102.132812 37.570312 101.859375 38.015625 101.960938 38.460938 C 102.058594 39.945312 101.710938 41.433594 101.636719 42.917969 C 101.6875 43.859375 101.089844 44.679688 101.042969 45.59375 C 101.015625 46.015625 100.941406 46.4375 100.695312 46.808594 C 100.621094 46.910156 100.621094 47.007812 100.59375 47.132812 C 100.472656 49.261719 99.15625 51.046875 98.414062 53.003906 C 98.363281 53.125 98.3125 53.25 98.214844 53.347656 C 97.667969 53.746094 97.570312 54.414062 97.171875 54.910156 C 96.898438 55.230469 96.675781 55.605469 96.476562 55.976562 C 96.058594 56.867188 95.3125 57.535156 94.816406 58.378906 C 94.617188 58.578125 94.371094 58.675781 94.269531 58.949219 C 93.699219 59.839844 92.78125 60.359375 92.015625 61.027344 C 91.320312 61.574219 90.898438 62.464844 89.980469 62.714844 C 89.90625 62.714844 89.832031 62.789062 89.808594 62.863281 C 89.507812 63.257812 88.988281 63.332031 88.667969 63.703125 C 88.144531 63.851562 87.675781 64.25 87.105469 64.324219 C 85.316406 65.910156 83.035156 66.800781 80.828125 67.644531 C 79.761719 67.964844 76.761719 69.152344 75.941406 68.734375 C 76.066406 68.511719 76.242188 68.460938 76.4375 68.4375 C 76.785156 68.386719 77.085938 68.210938 77.429688 68.113281 C 77.554688 68.089844 77.628906 68.015625 77.605469 67.890625 C 77.308594 68.039062 76.933594 67.691406 76.664062 67.941406 C 76.414062 68.164062 76.117188 68.164062 75.792969 68.164062 C 75.101562 68.089844 74.355469 68.484375 73.6875 68.210938 C 73.539062 68.136719 73.4375 68.238281 73.3125 68.289062 C 72.347656 68.707031 71.332031 68.386719 70.3125 68.460938 C 69.71875 68.484375 69.125 68.261719 68.503906 68.261719 C 68.378906 68.261719 68.304688 68.164062 68.207031 68.089844 C 68.105469 68.015625 68.007812 67.941406 67.882812 67.988281 C 67.4375 68.164062 66.988281 68.089844 66.542969 67.941406 C 65.972656 67.765625 65.351562 67.839844 64.757812 67.644531 C 64.1875 67.445312 63.59375 67.195312 62.996094 67.148438 C 62.253906 67.074219 61.65625 66.726562 61.011719 66.503906 C 59.648438 65.984375 58.308594 65.464844 57.019531 64.769531 C 56.324219 64.523438 55.855469 63.878906 55.136719 63.730469 C 54.117188 65.117188 52.902344 66.355469 51.863281 67.71875 C 52.582031 67.496094 52.976562 66.703125 53.796875 66.675781 C 53.871094 66.851562 53.769531 66.925781 53.695312 67 C 52.605469 68.089844 51.636719 69.277344 50.375 70.21875 C 49.65625 70.765625 49.65625 70.765625 49.953125 71.632812 C 50.226562 72.425781 50.621094 73.292969 49.953125 74.058594 C 49.902344 74.132812 49.902344 74.257812 49.878906 74.332031 C 49.628906 75 49.53125 75.71875 48.933594 76.214844 C 48.761719 76.363281 48.589844 76.609375 48.539062 76.832031 C 48.414062 77.28125 48.117188 77.601562 47.84375 77.949219 C 47.644531 78.195312 47.546875 78.519531 47.296875 78.742188 C 46.777344 79.1875 46.480469 79.855469 45.808594 80.179688 C 45.636719 80.253906 45.4375 80.476562 45.414062 80.648438 C 45.339844 81.121094 44.941406 81.292969 44.71875 81.613281 C 44.621094 81.738281 44.472656 81.8125 44.398438 81.9375 C 43.949219 82.65625 43.230469 83.125 42.710938 83.820312 C 41.519531 85.378906 40.105469 86.742188 38.71875 88.128906 C 38.542969 88.726562 37.972656 88.996094 37.699219 89.492188 C 37.179688 89.914062 36.632812 90.261719 36.285156 90.929688 C 36.113281 91.449219 35.394531 91.5 35.21875 92.019531 C 34.75 92.789062 34.105469 93.429688 33.433594 94.050781 C 32.816406 94.445312 32.246094 94.867188 31.824219 95.488281 C 31.203125 96.230469 30.1875 96.578125 29.691406 97.46875 C 29.664062 97.519531 29.566406 97.570312 29.492188 97.59375 C 28.597656 98.210938 28.078125 99.277344 27.183594 99.921875 C 26.714844 100.765625 26.167969 101.53125 25.101562 101.605469 C 24.554688 101.605469 24.605469 102.375 24.085938 102.425781 C 23.367188 102.546875 22.671875 102.648438 22 102.25 C 21.503906 101.953125 20.886719 101.878906 20.390625 101.410156 C 20.289062 102.546875 19.84375 103.390625 19.371094 104.355469 C 19.222656 104.726562 18.976562 104.949219 18.652344 105.125 C 18.230469 105.347656 17.785156 105.570312 17.539062 106.015625 C 17.4375 106.191406 17.265625 106.289062 17.066406 106.3125 C 15.601562 106.660156 12.550781 105.769531 11.808594 104.382812 C 12.800781 104.753906 13.691406 105.097656 14.636719 105.175781 C 14.609375 105.097656 14.5625 105.050781 14.511719 105.050781 C 13.421875 104.800781 12.578125 104.058594 11.609375 103.539062 C 10.519531 102.472656 10.644531 100.714844 10.570312 99.300781 Z M 78.820312 67.445312 C 78.523438 67.46875 78.226562 67.519531 77.976562 67.71875 C 77.878906 67.816406 77.753906 67.867188 77.628906 67.867188 C 78.101562 67.964844 78.472656 67.742188 78.820312 67.445312 Z M 53.101562 58.550781 C 54.515625 59.839844 55.980469 61.078125 57.617188 62.117188 C 58.878906 62.886719 60.34375 63.257812 61.65625 63.953125 C 63.617188 64.867188 65.800781 65.140625 67.933594 65.4375 C 69.84375 65.6875 71.75 65.882812 73.6875 65.808594 C 78.746094 65.117188 83.632812 63.53125 87.972656 60.804688 C 90.699219 59.171875 92.855469 56.792969 94.445312 54.066406 C 95.140625 52.976562 96.105469 52.011719 96.554688 50.773438 C 99.554688 43.515625 100.421875 34.992188 97.816406 27.488281 C 97.296875 26.890625 97.125 26.125 96.800781 25.429688 C 96.476562 24.738281 96.058594 24.09375 95.832031 23.347656 C 94.816406 22.109375 94.023438 20.625 92.90625 19.460938 C 92.410156 18.914062 91.890625 18.371094 91.34375 17.875 C 90.898438 17.476562 90.722656 16.882812 90.179688 16.609375 C 89.558594 16.164062 89.285156 15.324219 88.515625 15.050781 C 88.46875 15.050781 88.394531 15 88.367188 14.976562 C 88.070312 14.40625 87.449219 14.160156 87.003906 13.761719 C 86.582031 13.367188 86.113281 12.96875 85.566406 12.695312 C 84.550781 12.152344 83.730469 11.285156 82.664062 10.863281 C 82.390625 10.765625 82.191406 10.542969 81.945312 10.394531 C 81.375 10.046875 80.703125 9.847656 80.160156 9.453125 C 78.871094 9.03125 77.457031 8.980469 76.167969 8.558594 C 75.445312 8.363281 74.679688 8.535156 73.933594 8.289062 C 73.585938 8.214844 73.214844 8.140625 72.867188 8.289062 C 72.519531 8.386719 72.125 8.113281 71.777344 8.1875 C 69.171875 8.289062 66.519531 8.089844 63.988281 8.832031 C 63.246094 9.03125 62.476562 9.277344 61.78125 9.648438 C 60.320312 10.367188 58.707031 10.691406 57.34375 11.605469 C 56.523438 12.175781 55.507812 12.472656 54.789062 13.21875 C 54.441406 13.464844 54.117188 13.738281 53.769531 13.960938 C 53.25 14.332031 52.976562 14.976562 52.457031 15.324219 C 51.589844 15.96875 50.945312 16.808594 50.375 17.726562 C 49.828125 18.148438 49.503906 18.71875 49.234375 19.335938 C 49.109375 19.609375 48.8125 19.78125 48.589844 19.980469 C 48.09375 20.449219 47.820312 21.019531 47.546875 21.617188 C 47.324219 22.136719 46.828125 22.480469 46.554688 23.003906 C 45.6875 24.5625 44.96875 26.246094 44.421875 27.933594 C 44.171875 28.921875 43.800781 29.890625 43.726562 30.953125 C 43.703125 32.390625 43.28125 33.804688 43.332031 35.242188 C 43.332031 36.453125 42.808594 37.644531 43.082031 38.855469 C 43.253906 39.996094 43.332031 41.136719 43.628906 42.277344 C 43.949219 43.738281 44.570312 45.074219 45.066406 46.460938 C 45.164062 46.882812 45.4375 47.253906 45.6875 47.625 C 45.808594 47.773438 45.933594 47.949219 45.910156 48.148438 C 45.910156 48.542969 46.058594 48.867188 46.257812 49.164062 C 46.578125 49.683594 46.800781 50.277344 47.222656 50.722656 C 47.445312 50.945312 47.445312 51.292969 47.597656 51.566406 C 47.820312 51.988281 48.191406 52.332031 48.265625 52.828125 C 48.316406 53.003906 48.589844 53.125 48.6875 53.273438 C 48.960938 53.894531 49.53125 54.316406 49.828125 54.910156 C 50.226562 55.527344 50.871094 55.976562 51.191406 56.695312 C 51.242188 56.792969 51.316406 56.917969 51.414062 56.964844 C 52.085938 57.363281 52.457031 58.054688 53.050781 58.5 Z M 48.464844 67.46875 C 49.554688 66.28125 50.644531 65.066406 51.664062 63.804688 C 51.9375 63.457031 52.109375 63.011719 52.554688 62.789062 C 53.125 62.292969 52.257812 61.398438 51.738281 61.152344 C 51.636719 61.101562 51.539062 61.027344 51.488281 60.929688 C 51.390625 60.683594 51.191406 60.558594 50.96875 60.410156 C 50.722656 60.261719 50.496094 60.0625 50.375 59.789062 C 50.050781 59.320312 49.554688 58.972656 49.382812 58.378906 C 49.257812 58.054688 49.109375 58.03125 48.886719 58.277344 C 47.671875 59.667969 46.457031 61.078125 45.265625 62.464844 C 44.644531 63.207031 43.902344 63.851562 43.480469 64.746094 C 44.199219 65.390625 45.042969 65.984375 45.761719 66.628906 C 45.882812 67.195312 46.429688 67.347656 46.800781 67.644531 C 47.398438 68.113281 47.96875 68.015625 48.488281 67.421875 Z M 26.960938 97.816406 C 26.589844 97.816406 26.492188 98.089844 26.367188 98.386719 C 26.566406 98.1875 26.761719 98.015625 26.960938 97.816406 Z M 18.679688 96.355469 C 19.175781 96.800781 19.769531 97.097656 20.167969 97.617188 C 20.785156 98.609375 21.804688 99.203125 22.746094 99.796875 C 23.710938 100.167969 24.40625 99.003906 25.003906 98.4375 C 26.167969 97.296875 27.160156 95.882812 28.550781 94.992188 C 28.796875 95.117188 28.773438 95.414062 28.996094 95.511719 C 30.433594 93.878906 31.597656 92.042969 33.113281 90.484375 C 33.683594 89.667969 34.253906 88.847656 34.949219 88.128906 C 35.417969 87.3125 36.164062 86.769531 36.757812 86.074219 C 37.054688 85.480469 37.699219 85.183594 37.972656 84.5625 C 38.667969 83.621094 39.535156 82.804688 40.304688 81.9375 C 41.097656 80.871094 42.066406 79.929688 43.007812 78.964844 C 44.097656 77.601562 45.464844 76.414062 46.304688 74.851562 C 46.679688 73.6875 48.5625 72.300781 47.074219 71.261719 C 46.703125 71.035156 46.53125 70.589844 46.15625 70.417969 C 45.5625 70.195312 45.164062 69.75 44.769531 69.304688 C 44.148438 68.683594 43.429688 68.210938 42.835938 67.570312 C 42.710938 67.445312 42.609375 67.320312 42.4375 67.246094 C 41.84375 67.023438 41.421875 66.578125 41 66.132812 C 40.726562 65.835938 40.355469 65.6875 40.03125 65.511719 C 39.757812 65.363281 39.460938 65.5625 39.238281 65.710938 C 38.519531 66.230469 37.824219 66.777344 37.128906 67.296875 C 36.707031 67.941406 36.238281 68.484375 35.566406 68.855469 C 34.972656 69.203125 34.648438 69.824219 34.152344 70.246094 C 33.90625 70.367188 33.707031 70.515625 33.683594 70.839844 C 33.683594 70.960938 33.582031 71.035156 33.484375 71.109375 C 32.515625 71.828125 32.121094 73.042969 31.277344 73.859375 C 30.929688 74.207031 30.582031 74.503906 30.410156 74.976562 C 30.261719 75.371094 29.839844 75.59375 29.539062 75.867188 C 29.019531 76.339844 28.625 76.882812 28.101562 77.355469 C 27.953125 77.429688 27.855469 77.550781 27.828125 77.699219 C 27.753906 78.074219 27.484375 78.296875 27.183594 78.46875 C 26.515625 78.964844 26.316406 79.855469 25.621094 80.351562 C 24.628906 81.6875 23.488281 82.976562 22.496094 84.316406 C 21.703125 84.886719 21.207031 85.777344 20.488281 86.421875 C 19.769531 87.039062 19.296875 87.859375 18.554688 88.453125 C 17.910156 89.269531 17.5625 90.335938 16.667969 90.980469 C 16.421875 91.175781 16.246094 91.523438 16.050781 91.796875 C 16 91.871094 16.023438 91.96875 16.050781 92.070312 C 16.148438 93.902344 17.636719 95.015625 18.753906 96.304688 Z M 13.421875 101.433594 C 13.519531 101.679688 13.667969 101.878906 14.015625 101.902344 C 14.363281 101.902344 14.585938 102.277344 14.933594 102.375 C 15.15625 102.449219 15.332031 102.597656 15.578125 102.523438 C 15.628906 102.523438 15.703125 102.523438 15.75 102.523438 C 16.296875 102.84375 16.84375 102.597656 17.386719 102.574219 C 17.734375 102.574219 17.984375 102.324219 18.28125 102.226562 C 18.378906 102.199219 18.40625 102.101562 18.429688 102.003906 C 18.726562 101.359375 18.378906 100.664062 18.652344 100.019531 C 18.15625 99.351562 17.511719 98.929688 17.042969 98.335938 C 16.667969 98.039062 16.546875 97.320312 15.949219 97.542969 C 15.082031 97.816406 14.140625 97.421875 13.320312 97.964844 C 12.355469 98.585938 13.148438 100.542969 13.445312 101.410156 Z M 13.421875 101.433594 " fill-opacity="1" fill-rule="nonzero"/><path fill="#000001" d="M 50.199219 47.601562 C 49.804688 46.339844 49.332031 45.125 48.835938 43.910156 C 47.917969 41.582031 48.066406 39.105469 47.96875 36.675781 C 47.867188 36.132812 47.96875 35.5625 47.84375 35.015625 C 47.769531 34.570312 48.042969 34.101562 47.917969 33.65625 C 47.820312 33.109375 48.316406 32.714844 48.289062 32.167969 C 48.289062 30.757812 48.664062 29.320312 49.308594 28.082031 C 49.308594 27.636719 49.53125 27.3125 49.777344 26.992188 C 49.851562 26.890625 49.902344 26.769531 49.902344 26.667969 C 49.878906 26.199219 50.152344 25.902344 50.449219 25.628906 C 50.644531 25.453125 50.769531 25.257812 50.820312 25.007812 C 50.96875 24.464844 51.339844 24.019531 51.539062 23.496094 C 51.738281 23.125 52.257812 23.003906 52.207031 22.480469 C 52.308594 22.011719 53.078125 21.863281 53.152344 21.367188 C 53.273438 20.75 53.945312 20.523438 54.117188 19.980469 C 54.144531 19.90625 54.292969 19.832031 54.417969 19.808594 C 54.8125 19.707031 55.011719 19.433594 55.210938 19.113281 C 55.507812 18.617188 55.929688 18.195312 56.425781 17.898438 C 56.894531 17.625 57.316406 17.230469 57.886719 17.105469 C 58.804688 16.460938 59.699219 15.71875 60.839844 15.496094 C 61.582031 15.421875 62.054688 14.726562 62.800781 14.703125 C 65.128906 13.984375 67.609375 13.441406 70.089844 13.339844 C 71.179688 13.339844 72.246094 13.390625 73.339844 13.414062 C 74.679688 13.664062 76.019531 14.011719 77.355469 14.234375 C 78.25 14.382812 79.066406 14.703125 79.910156 14.925781 C 81.050781 15.199219 81.847656 16.089844 82.914062 16.460938 C 83.359375 17.105469 84.128906 17.230469 84.699219 17.703125 C 85.34375 18.320312 86.1875 18.765625 86.707031 19.507812 C 86.980469 19.980469 87.375 20.351562 87.796875 20.699219 C 88.492188 21.195312 88.890625 21.914062 89.359375 22.582031 C 89.609375 22.78125 89.808594 23.003906 89.882812 23.324219 C 90.425781 24.019531 91.023438 24.738281 91.320312 25.605469 C 91.417969 25.875 91.566406 26.171875 91.789062 26.394531 C 92.410156 27.289062 92.632812 28.402344 93.203125 29.34375 C 93.378906 29.691406 93.277344 30.0625 93.429688 30.410156 C 93.773438 31.203125 93.824219 32.09375 94.171875 32.886719 C 94.222656 32.984375 94.246094 33.109375 94.222656 33.234375 C 94.121094 34.546875 94.519531 35.835938 94.519531 37.148438 C 94.519531 37.46875 94.71875 37.765625 94.46875 38.0625 C 94.742188 38.460938 94.59375 38.832031 94.371094 39.179688 C 94.34375 39.230469 94.371094 39.304688 94.371094 39.351562 C 94.222656 40.738281 94.371094 42.226562 93.773438 43.539062 C 93.578125 43.910156 93.402344 44.308594 93.453125 44.753906 C 93.476562 44.953125 93.378906 45.101562 93.277344 45.273438 C 92.957031 45.769531 92.535156 46.214844 92.484375 46.832031 C 92.484375 47.007812 92.386719 47.132812 92.210938 47.179688 C 91.964844 47.28125 91.890625 47.476562 91.816406 47.699219 C 91.617188 48.34375 91.371094 49.015625 90.921875 49.558594 C 90.773438 49.730469 90.699219 49.957031 90.601562 50.152344 C 90.550781 50.253906 90.453125 50.328125 90.601562 50.449219 C 91.097656 50.054688 91.371094 49.460938 91.867188 48.914062 C 91.765625 49.808594 91.21875 50.300781 90.800781 50.996094 C 89.386719 53.175781 87.550781 54.859375 85.21875 56.074219 C 83.632812 57.4375 81.769531 58.425781 79.789062 59.070312 C 78.695312 59.765625 77.429688 59.914062 76.191406 60.210938 C 75.175781 60.507812 74.109375 60.460938 73.066406 60.707031 C 70.835938 61.128906 68.503906 60.730469 66.296875 60.410156 C 64.882812 60.1875 63.59375 59.519531 62.253906 59.070312 C 60.144531 58.351562 58.382812 56.917969 56.597656 55.628906 C 55.484375 54.910156 54.464844 54.042969 53.695312 52.953125 C 53.574219 52.679688 53.199219 52.628906 53.125 52.308594 C 53.003906 51.914062 52.753906 51.589844 52.507812 51.269531 C 51.636719 50.105469 50.695312 48.914062 50.175781 47.578125 Z M 53.351562 48.816406 C 54.316406 50.625 55.929688 52.011719 57.367188 53.472656 C 58.308594 54.664062 59.625 55.429688 60.890625 56.222656 C 61.832031 56.644531 62.847656 57.015625 63.839844 57.410156 C 65.054688 57.859375 66.148438 58.601562 67.460938 58.652344 C 69.792969 59.195312 72.125 58.972656 74.40625 58.453125 C 75.472656 58.601562 76.4375 58.253906 77.355469 57.832031 C 78.820312 57.289062 80.308594 56.816406 81.746094 56.222656 C 83.878906 55.304688 85.09375 53.152344 86.683594 51.515625 C 89.210938 48.148438 90.800781 44.132812 91.417969 39.996094 C 91.542969 39.203125 91.417969 38.410156 91.617188 37.644531 C 91.667969 37.421875 91.566406 37.222656 91.566406 37.023438 C 91.59375 35.089844 91.144531 33.207031 90.699219 31.351562 C 90.425781 30.484375 90.105469 29.667969 89.882812 28.773438 C 89.832031 28.578125 89.78125 28.402344 89.65625 28.253906 C 89.261719 27.785156 89.160156 27.1875 89.011719 26.546875 C 88.09375 26.148438 87.996094 25.007812 87.226562 24.414062 C 87.179688 24.363281 87.105469 24.289062 87.078125 24.242188 C 86.832031 23.597656 86.285156 23.226562 85.839844 22.753906 C 85.269531 21.988281 84.625 21.269531 83.980469 20.550781 C 83.828125 20.375 83.605469 20.253906 83.582031 20.003906 C 83.582031 19.980469 83.558594 19.929688 83.53125 19.90625 C 82.417969 19.089844 81.375 18.148438 80.085938 17.527344 C 79.539062 17.253906 78.945312 17.105469 78.375 16.910156 C 78.152344 16.835938 77.902344 17.03125 77.703125 16.957031 C 77.183594 16.761719 76.589844 16.882812 76.066406 16.660156 C 75.296875 16.511719 74.503906 16.609375 73.734375 16.3125 C 72.125 16.191406 70.4375 15.894531 68.777344 16.191406 C 68.179688 16.289062 67.5625 16.015625 67.015625 16.339844 C 66.964844 16.363281 66.890625 16.386719 66.839844 16.386719 C 66.394531 16.265625 66.023438 16.488281 65.625 16.585938 C 65.03125 16.808594 64.335938 16.710938 63.816406 17.132812 C 63.714844 17.230469 63.542969 17.304688 63.394531 17.328125 C 62.722656 17.402344 62.203125 17.824219 61.632812 18.121094 C 60.367188 18.765625 58.980469 19.089844 58.011719 20.179688 C 57.765625 20.425781 57.417969 20.523438 57.144531 20.722656 C 56.523438 21.21875 56.101562 21.886719 55.53125 22.433594 C 54.835938 23.125 54.417969 23.992188 53.871094 24.785156 C 52.457031 26.667969 51.5625 28.875 50.945312 31.152344 C 50.796875 31.820312 50.472656 32.464844 50.25 33.109375 C 50.226562 34.125 49.777344 35.117188 49.902344 36.132812 C 50 36.875 49.878906 37.644531 50.101562 38.363281 C 50.175781 38.609375 50.175781 38.882812 50.125 39.15625 C 50.074219 39.625 50.074219 40.070312 50.25 40.515625 C 50.375 41.679688 50.820312 42.769531 51.117188 43.910156 C 51.589844 45.644531 52.554688 47.179688 53.324219 48.792969 Z M 53.351562 48.816406 " fill-opacity="1" fill-rule="nonzero"/></g></g></g></svg>