<svg xmlns="http://www.w3.org/2000/svg" xmlns:xlink="http://www.w3.org/1999/xlink" width="500" zoomAndPan="magnify" viewBox="0 0 375 374.999991" height="500" preserveAspectRatio="xMidYMid meet" version="1.0"><defs><filter x="0%" y="0%" width="100%" height="100%" id="ed48cf9f91"><feColorMatrix values="0 0 0 0 1 0 0 0 0 1 0 0 0 0 1 0 0 0 1 0" color-interpolation-filters="sRGB"/></filter><mask id="d10058fa1c"><g filter="url(#ed48cf9f91)"><rect x="-37.5" width="450" fill="#000000" y="-37.499999" height="449.999989" fill-opacity="0.41"/></g></mask><clipPath id="4b5c854a23"><path d="M 0.40625 55 L 27 55 L 27 83 L 0.40625 83 Z M 0.40625 55 " clip-rule="nonzero"/></clipPath><clipPath id="88c385e3b8"><path d="M 0.40625 1 L 82 1 L 82 84 L 0.40625 84 Z M 0.40625 1 " clip-rule="nonzero"/></clipPath><clipPath id="cdc8eef300"><rect x="0" width="83" y="0" height="85"/></clipPath></defs><g mask="url(#d10058fa1c)"><g transform="matrix(1, 0, 0, 1, 146, 145)"><g clip-path="url(#cdc8eef300)"><path fill="#f5d7c4" d="M 3.3125 72.542969 C 3.550781 68.226562 4.683594 63.960938 6.617188 60.089844 C 6.929688 59.464844 7.296875 58.8125 7.90625 58.46875 C 8.949219 57.882812 10.339844 58.4375 11.070312 59.382812 C 11.796875 60.332031 12.03125 61.554688 12.242188 62.722656 C 14.273438 61.890625 16.769531 62.335938 18.386719 63.816406 C 20 65.296875 19.46875 66.832031 18.800781 68.917969 C 19.746094 67.992188 22.6875 69.273438 23.417969 70.371094 C 24.148438 71.472656 23.972656 72.992188 23.285156 74.117188 C 22.59375 75.242188 21.476562 76.039062 20.328125 76.699219 C 18.070312 77.996094 15.574219 78.878906 13 79.292969 C 12.285156 79.410156 11.511719 79.480469 10.875 79.140625 C 9.488281 78.40625 9.625 76.433594 9.117188 74.953125 C 8.355469 72.730469 5.542969 71.46875 3.3125 72.542969 Z M 3.3125 72.542969 " fill-opacity="1" fill-rule="nonzero"/><g clip-path="url(#4b5c854a23)"><path stroke-linecap="butt" transform="matrix(0.196803, 0, 0, 0.195883, -10.396547, -5.893701)" fill="none" stroke-linejoin="miter" d="M 69.658589 400.425741 C 70.869347 378.390127 76.625408 356.613755 86.45041 336.851499 C 88.038289 333.660821 89.904046 330.330552 93.000411 328.57568 C 98.299957 325.58442 105.366019 328.416146 109.077686 333.242045 C 112.769505 338.087886 113.960414 344.329648 115.032232 350.292226 C 125.353446 346.044637 138.03663 348.317995 146.253904 355.875911 C 154.451329 363.433828 151.751935 371.270928 148.357843 381.919813 C 153.161177 377.193623 168.107089 383.734511 171.818756 389.338138 C 175.530423 394.961706 174.637241 402.71904 171.143908 408.462259 C 167.630725 414.205478 161.954058 418.273591 156.118602 421.643744 C 144.646176 428.264399 131.962992 432.77123 118.882839 434.885054 C 115.250566 435.483306 111.320565 435.842257 108.085261 434.107326 C 101.039048 430.358281 101.733745 420.287706 99.153442 412.729789 C 95.282987 401.382944 80.992075 394.941764 69.658589 400.425741 Z M 69.658589 400.425741 " stroke="#000000" stroke-width="1" stroke-opacity="1" stroke-miterlimit="10"/></g><path fill="#f1c22a" d="M 7.636719 56.925781 C 20.773438 41.8125 34.011719 26.597656 49.753906 14.191406 C 50.859375 13.320312 52.066406 12.425781 53.472656 12.3125 C 55.410156 12.152344 57.113281 13.492188 58.59375 14.753906 C 62.066406 17.71875 65.539062 20.683594 69.011719 23.648438 C 70.289062 24.734375 71.691406 26.148438 71.402344 27.792969 C 71.226562 28.78125 70.472656 29.550781 69.757812 30.25 C 55.316406 44.347656 40.269531 57.816406 25.515625 71.601562 C 25.242188 71.875 24.96875 72.144531 24.710938 72.433594 C 24.75 71.921875 24.964844 71.421875 25.316406 71.042969 C 25.125 71.347656 24.9375 71.65625 24.746094 71.960938 C 23.5625 71.167969 22.382812 70.378906 21.199219 69.585938 C 20.453125 69.085938 19.679688 68.554688 19.257812 67.761719 C 18.785156 66.871094 18.769531 65.691406 17.96875 65.078125 " fill-opacity="1" fill-rule="nonzero"/><path fill="#424454" d="M 2.0625 82.222656 C 1.414062 78.683594 1.875 74.953125 3.371094 71.675781 C 5.203125 72.324219 6.972656 73.335938 8.109375 74.902344 C 9.246094 76.472656 9.632812 78.671875 8.710938 80.375 " fill-opacity="1" fill-rule="nonzero"/><path stroke-linecap="butt" transform="matrix(0.196803, 0, 0, 0.195883, -10.396547, -5.893701)" fill-opacity="1" fill="#c4d5f5" fill-rule="nonzero" stroke-linejoin="miter" d="M 423.517431 169.420716 C 388.048184 144.553376 358.69227 115.099437 330.72575 81.996162 C 328.800447 79.722804 327.788174 72.503897 329.455447 70.051064 C 330.844841 67.997066 332.730448 77.409563 331.77772 75.116264 C 325.505598 60.159965 357.362421 84.090044 366.03621 94.63922 C 374.690151 105.168455 384.872425 113.743399 393.724851 124.1131 C 401.148186 132.827637 409.921217 140.385554 419.627128 146.44784 C 423.021219 148.561664 426.633644 150.59572 428.936069 153.866164 C 431.238493 157.136609 431.734705 162.1021 423.517431 169.420716 Z M 423.517431 169.420716 " stroke="#000000" stroke-width="1" stroke-opacity="1" stroke-miterlimit="10"/><path fill="#ed7994" d="M 57.332031 8.453125 C 62.757812 13.730469 68.183594 19.011719 73.609375 24.292969 C 73.75 24.425781 73.90625 24.570312 74.101562 24.570312 C 74.292969 24.570312 74.449219 24.433594 74.589844 24.300781 C 76.648438 22.359375 78.773438 20.289062 79.628906 17.597656 C 80.632812 14.441406 79.644531 10.878906 77.601562 8.269531 C 75.554688 5.660156 72.570312 3.910156 69.453125 2.765625 C 67.652344 2.105469 65.683594 1.621094 63.832031 2.132812 C 62.476562 2.503906 61.324219 3.378906 60.25 4.285156 C 59.070312 5.289062 57.902344 6.414062 57.332031 8.453125 Z M 57.332031 8.453125 " fill-opacity="1" fill-rule="nonzero"/><g clip-path="url(#88c385e3b8)"><path fill="#000000" d="M 4.695312 83.652344 C 3.910156 83.792969 3.226562 83.945312 2.539062 83.976562 C 1.179688 84.035156 0.410156 83.25 0.433594 81.667969 C 0.472656 79.160156 0.808594 76.671875 1.269531 74.214844 C 2.167969 69.390625 3.496094 64.667969 5.1875 60.058594 C 5.914062 58.078125 7.230469 56.367188 8.605469 54.789062 C 10.554688 52.558594 12.460938 50.292969 14.4375 48.082031 C 18.34375 43.71875 22.371094 39.472656 26.433594 35.261719 C 31.40625 30.113281 36.617188 25.199219 41.886719 20.363281 C 45.476562 17.070312 48.976562 13.664062 52.894531 10.734375 C 53.277344 10.445312 53.191406 10.078125 53.136719 9.675781 C 52.910156 8.015625 54.003906 6.597656 55.671875 6.753906 C 57.019531 6.882812 57.671875 6.179688 58.464844 5.394531 C 59.457031 4.40625 60.210938 3.15625 61.496094 2.484375 C 64.550781 0.878906 67.679688 1.128906 70.800781 2.246094 C 73.410156 3.175781 75.832031 4.417969 77.757812 6.488281 C 82.226562 11.28125 82.910156 15.609375 79.015625 21.164062 C 78.332031 22.144531 77.542969 23.019531 76.609375 23.792969 C 75.851562 24.417969 75.171875 25.015625 75.21875 26.300781 C 75.273438 27.871094 73.480469 28.691406 71.71875 28.195312 C 67.183594 33.300781 61.921875 37.644531 57.015625 42.351562 C 53.605469 45.625 50.277344 48.984375 46.851562 52.238281 C 41.730469 57.105469 36.726562 62.085938 31.777344 67.121094 C 29.488281 69.449219 26.996094 71.570312 24.972656 74.171875 C 23.792969 75.6875 22.035156 76.691406 20.308594 77.535156 C 17.757812 78.78125 15.144531 79.894531 12.5 80.945312 C 9.964844 81.953125 7.351562 82.695312 4.695312 83.652344 Z M 57.3125 28.855469 C 59.828125 26.5625 62.34375 24.273438 64.960938 21.890625 C 63.328125 20.421875 61.742188 18.988281 60.066406 17.476562 C 44.351562 31.679688 28.945312 46.042969 14.414062 61.765625 C 17.484375 61.863281 18.875 63.710938 20.105469 65.828125 C 24.875 60.730469 29.679688 55.90625 34.503906 51.101562 C 41.980469 43.648438 49.375 36.109375 57.3125 28.855469 Z M 36.992188 36.75 C 40.96875 33.003906 44.910156 29.226562 48.925781 25.523438 C 52.199219 22.5 55.550781 19.558594 58.605469 16.820312 C 57.210938 15.265625 55.855469 13.75 54.488281 12.25 C 54.085938 11.808594 53.742188 12.015625 53.40625 12.398438 C 50.933594 15.214844 48.109375 17.679688 45.398438 20.25 C 41.164062 24.257812 36.84375 28.175781 32.652344 32.222656 C 28.882812 35.867188 25.195312 39.601562 21.542969 43.367188 C 17.214844 47.835938 12.96875 52.390625 8.707031 57.210938 C 10.839844 57.730469 12.324219 58.90625 13.320312 60.664062 C 15.644531 58.191406 17.871094 55.789062 20.128906 53.417969 C 25.542969 47.742188 31.179688 42.285156 36.992188 36.75 Z M 57.238281 38.933594 C 61.507812 35.015625 65.785156 31.097656 70.332031 26.933594 C 69.234375 25.9375 68.046875 25.007812 67.050781 23.90625 C 66.34375 23.128906 65.910156 23.269531 65.257812 23.886719 C 60.542969 28.339844 55.761719 32.730469 51.089844 37.226562 C 42.644531 45.351562 34.519531 53.796875 26.285156 62.132812 C 24.46875 63.972656 22.644531 65.808594 20.660156 67.75 C 22.675781 68.414062 23.582031 70.082031 24.730469 71.605469 C 35.160156 60.261719 46.003906 49.535156 57.238281 38.933594 Z M 63.75 12.347656 C 65.988281 14.601562 68.355469 16.730469 70.453125 19.121094 C 71.550781 20.375 72.683594 21.597656 73.800781 22.832031 C 74.160156 23.230469 74.636719 23.722656 75.054688 23.054688 C 75.738281 21.960938 76.832031 21.277344 77.570312 20.222656 C 80.539062 15.992188 79.875 11.476562 76.667969 7.832031 C 74.328125 5.175781 71.257812 3.84375 67.886719 3.058594 C 65.882812 2.589844 63.894531 2.921875 62.226562 3.910156 C 60.875 4.707031 59.882812 6.113281 58.757812 7.277344 C 58.449219 7.59375 58.445312 8.015625 58.855469 8.285156 C 60.585938 9.429688 62.007812 10.933594 63.75 12.347656 Z M 16.042969 77.011719 C 17.890625 76.199219 19.742188 75.378906 21.449219 74.300781 C 22.0625 73.910156 23.300781 73.558594 22.777344 72.558594 C 21.988281 71.054688 21.054688 69.496094 18.9375 69.53125 C 18.039062 69.546875 17.558594 69.117188 17.660156 68.160156 C 17.703125 67.777344 17.6875 67.382812 17.695312 66.992188 C 17.734375 64.917969 15.785156 63.328125 13.785156 63.921875 C 12.738281 64.234375 12.210938 63.921875 11.878906 62.996094 C 11.71875 62.550781 11.566406 62.097656 11.394531 61.65625 C 10.855469 60.253906 8.886719 58.914062 7.523438 59.011719 C 6.257812 62.976562 5.179688 66.984375 4.15625 71.070312 C 8.347656 72.097656 10.664062 74.746094 11.339844 78.832031 C 13.011719 78.53125 14.363281 77.625 16.042969 77.011719 Z M 55.441406 10.71875 C 57.652344 12.777344 59.8125 14.890625 62.085938 16.878906 C 65.019531 19.449219 67.847656 22.113281 70.472656 24.996094 C 70.957031 25.527344 71.300781 26.203125 72.03125 26.519531 C 72.613281 26.773438 73.152344 26.855469 73.550781 26.3125 C 73.949219 25.78125 73.773438 25.304688 73.300781 24.832031 C 72.136719 23.667969 71.023438 22.445312 69.878906 21.261719 C 65.585938 16.820312 61.410156 12.257812 56.460938 8.496094 C 56.007812 8.152344 55.765625 8.160156 55.34375 8.429688 C 54.230469 9.152344 54.730469 9.855469 55.441406 10.71875 Z M 4.714844 73.257812 C 4.242188 72.984375 3.859375 72.867188 3.683594 73.59375 C 3.078125 76.113281 2.972656 78.691406 2.660156 81.246094 C 2.648438 81.347656 2.765625 81.464844 2.882812 81.691406 C 4.902344 81.488281 6.71875 80.558594 8.625 79.953125 C 9.1875 79.773438 9.09375 79.246094 9.011719 78.847656 C 8.5 76.382812 7.300781 74.40625 4.714844 73.257812 Z M 4.714844 73.257812 " fill-opacity="1" fill-rule="nonzero"/></g></g></g></g></svg>