<svg xmlns="http://www.w3.org/2000/svg" xmlns:xlink="http://www.w3.org/1999/xlink" width="500" zoomAndPan="magnify" viewBox="0 0 375 374.999991" height="500" preserveAspectRatio="xMidYMid meet" version="1.0"><path fill="#000000" d="M 233.960938 166.347656 C 231.921875 165.054688 229.472656 164.675781 226.976562 164.632812 C 220.140625 153.972656 207.179688 144.785156 194.070312 145.546875 C 192.296875 145.703125 191.644531 148.402344 193.621094 148.855469 C 204.753906 150.566406 215.621094 155.511719 222.445312 164.789062 C 216.09375 165.109375 209.777344 165.222656 203.425781 165.441406 C 195.785156 165.25 188.917969 167.734375 187.925781 176.261719 C 187.574219 179.425781 188.453125 181.824219 189.582031 184.703125 C 190.125 186.082031 192.183594 185.582031 191.839844 184.082031 C 190.972656 180.253906 190.875 174.925781 193.507812 171.738281 C 196.078125 168.625 200.632812 168.820312 204.296875 168.699219 C 210.980469 168.476562 217.667969 168.261719 224.351562 168.042969 C 226.355469 167.976562 228.511719 167.785156 230.46875 168.34375 C 237.359375 170.183594 236.414062 183.578125 237.035156 189.402344 C 237.195312 193.609375 236.414062 196.96875 232.144531 198.488281 C 224.480469 201.148438 215.578125 199.652344 208.375 203.699219 C 205.1875 205.417969 203.535156 208.890625 200.429688 210.714844 C 203.167969 205.785156 203.667969 199.429688 196.9375 200.636719 C 195.417969 200.632812 194.414062 199.679688 193.605469 198.460938 C 191.640625 195.492188 192.550781 191.871094 192.644531 188.554688 C 192.699219 186.609375 189.746094 186.214844 189.257812 188.097656 C 187.277344 194.878906 189.054688 204.457031 197.957031 203.523438 C 199.039062 203.542969 199.171875 203.65625 199.242188 204.796875 C 199.164062 207.238281 198.070312 209.648438 196.527344 211.523438 C 195.914062 212.261719 195.980469 213.761719 197.167969 213.949219 C 201.953125 214.691406 204.601562 210.976562 207.449219 207.804688 C 208.171875 207 208.976562 206.125 210.023438 205.75 C 215.589844 204.890625 221.242188 204.191406 226.867188 203.316406 C 218.039062 225.308594 189.265625 234.753906 169.011719 222.46875 C 150.742188 212.132812 142.796875 188.664062 150.882812 169.3125 C 153.9375 169.78125 156.992188 170.269531 160.054688 170.683594 C 162.824219 171.058594 166.730469 170.839844 168.875 172.761719 C 172.453125 175.96875 174.921875 180.78125 180.496094 179.902344 C 181.667969 179.71875 181.765625 178.210938 181.136719 177.476562 C 180.082031 176.246094 176.351562 169.871094 179.261719 169.347656 C 188.65625 170.742188 190.777344 161.144531 188.691406 153.863281 C 188.203125 152.007812 185.230469 152.351562 185.300781 154.320312 C 185.417969 157.546875 186.324219 161.132812 184.46875 164.042969 C 183.605469 165.390625 182.4375 166.527344 180.753906 166.507812 C 179.597656 166.5 178.582031 166.136719 177.457031 166.589844 C 173.699219 168.113281 175.289062 173.253906 177.230469 176.769531 C 174.582031 175.636719 172.5625 172.289062 170.476562 170.6875 C 163.546875 165.800781 154.566406 166.96875 146.640625 165.035156 C 142.777344 164.238281 139.257812 162.636719 138.867188 158.242188 C 138.492188 153.949219 139.175781 149.359375 139.683594 145.09375 C 140.535156 133.410156 145.164062 132.761719 155.632812 133.746094 C 160.449219 133.898438 165.265625 134.050781 170.078125 134.203125 C 174.339844 134.335938 180.339844 133.644531 183.773438 136.730469 C 187.175781 139.785156 187.097656 145.722656 186.113281 149.8125 C 185.753906 151.316406 187.820312 151.804688 188.371094 150.4375 C 192.785156 141.84375 188.582031 131.859375 178.417969 131.238281 C 172.777344 130.667969 166.992188 130.824219 161.324219 130.652344 C 156.257812 130.496094 150.6875 129.664062 145.671875 130.632812 C 135.972656 132.507812 136.136719 145.417969 135.613281 153.070312 C 134.421875 163.101562 138.316406 167.648438 148.273438 168.914062 C 133.003906 207.621094 173.050781 245.304688 210.527344 226.515625 C 220.257812 221.582031 228.15625 212.941406 231.328125 202.414062 C 237.046875 201.242188 240.765625 196.808594 240.46875 190.921875 C 240.429688 185.992188 239.878906 180.9375 239.082031 176.074219 C 238.484375 172.410156 237.277344 168.445312 233.960938 166.347656 Z M 233.960938 166.347656 " fill-opacity="1" fill-rule="nonzero"/><path fill="#000000" d="M 167.507812 149.46875 C 169.539062 147.976562 170.789062 145.820312 170.226562 143.253906 C 169.058594 138.195312 162.519531 137.359375 158.75 140.070312 C 157.996094 140.542969 158.472656 141.898438 159.382812 141.574219 C 161.164062 140.933594 163.246094 140.449219 165.066406 141.214844 C 166.484375 141.8125 167.613281 143.34375 167.105469 144.839844 C 166.433594 146.335938 164.574219 146.835938 163.371094 147.847656 C 161.480469 149.132812 159.554688 152.171875 161.433594 154.210938 C 163.125 155.515625 164.523438 154.050781 164.480469 152.195312 C 164.6875 151.253906 166.425781 150.1875 167.507812 149.46875 Z M 167.507812 149.46875 " fill-opacity="1" fill-rule="nonzero"/><path fill="#000000" d="M 162.074219 162.371094 C 164.480469 163.710938 166.527344 160.199219 164.1875 158.75 C 161.78125 157.410156 159.734375 160.921875 162.074219 162.371094 Z M 162.074219 162.371094 " fill-opacity="1" fill-rule="nonzero"/><path fill="#000000" d="M 219.101562 185.515625 C 219.753906 184.75 220.382812 183.964844 220.996094 183.167969 C 221.6875 182.269531 222.613281 181.34375 222.226562 180.113281 C 222.007812 179.425781 221.367188 178.871094 220.621094 178.890625 C 219.382812 178.925781 218.859375 179.839844 218.195312 180.730469 C 216.554688 182.828125 214.832031 184.976562 212.800781 186.710938 C 211.609375 185.230469 210.425781 183.773438 208.996094 182.503906 C 208.003906 181.441406 206.265625 182.804688 207 184.046875 C 207.871094 185.78125 208.847656 187.453125 210.097656 188.949219 C 213.214844 192.664062 217.039062 188.039062 219.101562 185.515625 Z M 212.917969 186.792969 C 213.058594 186.890625 212.976562 186.839844 212.894531 186.792969 C 212.898438 186.792969 212.917969 186.792969 212.917969 186.792969 Z M 212.703125 186.769531 C 212.703125 186.769531 212.707031 186.769531 212.707031 186.769531 C 212.597656 186.828125 212.597656 186.828125 212.703125 186.769531 Z M 212.703125 186.769531 " fill-opacity="1" fill-rule="nonzero"/><path fill="#000000" d="M 227.484375 159.0625 C 227.753906 158.230469 227.84375 157.34375 227.976562 156.476562 C 227.949219 156.679688 227.921875 156.882812 227.894531 157.085938 C 228.011719 156.292969 228.296875 155.558594 228.089844 154.761719 C 228.113281 154.945312 228.140625 155.128906 228.164062 155.3125 C 228.238281 154.027344 227.042969 152.785156 225.726562 153.199219 C 223.3125 154.019531 222.285156 158.417969 224.195312 160.152344 C 225.292969 161.09375 227.136719 160.449219 227.484375 159.0625 Z M 227.484375 159.0625 " fill-opacity="1" fill-rule="nonzero"/><path fill="#000000" d="M 232.320312 161.382812 C 233.074219 160.257812 234.777344 159.070312 234.355469 157.542969 C 234.34375 156.644531 233.480469 155.886719 232.585938 156.152344 C 230.890625 156.230469 230.394531 158.078125 229.578125 159.265625 C 228.542969 160.980469 230.9375 162.824219 232.320312 161.382812 Z M 232.320312 161.382812 " fill-opacity="1" fill-rule="nonzero"/><path fill="#000000" d="M 240.128906 160.695312 C 238.648438 159.964844 237.132812 161.148438 235.796875 161.714844 C 234.636719 162.34375 234.640625 164.167969 235.796875 164.800781 C 236.777344 165.410156 237.820312 164.691406 238.785156 164.398438 C 240.492188 163.96875 242.003906 161.96875 240.128906 160.695312 Z M 240.128906 160.695312 " fill-opacity="1" fill-rule="nonzero"/></svg>