<svg xmlns="http://www.w3.org/2000/svg" xmlns:xlink="http://www.w3.org/1999/xlink" width="500" zoomAndPan="magnify" viewBox="0 0 375 374.999991" height="500" preserveAspectRatio="xMidYMid meet" version="1.0"><defs><filter x="0%" y="0%" width="100%" height="100%" id="ddd8d863a2"><feColorMatrix values="0 0 0 0 1 0 0 0 0 1 0 0 0 0 1 0 0 0 1 0" color-interpolation-filters="sRGB"/></filter><mask id="23d34d0fb2"><g filter="url(#ddd8d863a2)"><rect x="-37.5" width="450" fill="#000000" y="-37.499999" height="449.999989" fill-opacity="0.41"/></g></mask><clipPath id="95837145bf"><path d="M 2 1 L 108 1 L 108 102.839844 L 2 102.839844 Z M 2 1 " clip-rule="nonzero"/></clipPath><clipPath id="333336d091"><rect x="0" width="110" y="0" height="103"/></clipPath></defs><g mask="url(#23d34d0fb2)"><g transform="matrix(1, 0, 0, 1, 133, 129)"><g clip-path="url(#333336d091)"><g clip-path="url(#95837145bf)"><path fill="#000000" d="M 100.960938 37.347656 C 98.921875 36.054688 96.472656 35.675781 93.976562 35.632812 C 87.140625 24.972656 74.179688 15.785156 61.070312 16.546875 C 59.296875 16.703125 58.644531 19.402344 60.621094 19.855469 C 71.753906 21.566406 82.621094 26.511719 89.445312 35.789062 C 83.09375 36.109375 76.777344 36.222656 70.425781 36.441406 C 62.785156 36.25 55.917969 38.734375 54.925781 47.261719 C 54.574219 50.425781 55.453125 52.824219 56.582031 55.703125 C 57.125 57.082031 59.183594 56.582031 58.839844 55.082031 C 57.972656 51.253906 57.875 45.925781 60.507812 42.738281 C 63.078125 39.625 67.632812 39.820312 71.296875 39.699219 C 77.980469 39.476562 84.667969 39.261719 91.351562 39.042969 C 93.355469 38.976562 95.511719 38.785156 97.46875 39.34375 C 104.359375 41.183594 103.414062 54.578125 104.035156 60.402344 C 104.195312 64.609375 103.414062 67.96875 99.144531 69.488281 C 91.480469 72.148438 82.578125 70.652344 75.375 74.699219 C 72.1875 76.417969 70.535156 79.890625 67.429688 81.714844 C 70.167969 76.785156 70.667969 70.429688 63.9375 71.636719 C 62.417969 71.632812 61.414062 70.679688 60.605469 69.460938 C 58.640625 66.492188 59.550781 62.871094 59.644531 59.554688 C 59.699219 57.609375 56.746094 57.214844 56.257812 59.097656 C 54.277344 65.878906 56.054688 75.457031 64.957031 74.523438 C 66.039062 74.542969 66.171875 74.65625 66.242188 75.796875 C 66.164062 78.238281 65.070312 80.648438 63.527344 82.523438 C 62.914062 83.261719 62.980469 84.761719 64.167969 84.949219 C 68.953125 85.691406 71.601562 81.976562 74.449219 78.804688 C 75.171875 78 75.976562 77.125 77.023438 76.75 C 82.589844 75.890625 88.242188 75.191406 93.867188 74.316406 C 85.039062 96.308594 56.265625 105.753906 36.011719 93.46875 C 17.742188 83.132812 9.796875 59.664062 17.882812 40.3125 C 20.9375 40.78125 23.992188 41.269531 27.054688 41.683594 C 29.824219 42.058594 33.730469 41.839844 35.875 43.761719 C 39.453125 46.96875 41.921875 51.78125 47.496094 50.902344 C 48.667969 50.71875 48.765625 49.210938 48.136719 48.476562 C 47.082031 47.246094 43.351562 40.871094 46.261719 40.347656 C 55.65625 41.742188 57.777344 32.144531 55.691406 24.863281 C 55.203125 23.007812 52.230469 23.351562 52.300781 25.320312 C 52.417969 28.546875 53.324219 32.132812 51.46875 35.042969 C 50.605469 36.390625 49.4375 37.527344 47.753906 37.507812 C 46.597656 37.5 45.582031 37.136719 44.457031 37.589844 C 40.699219 39.113281 42.289062 44.253906 44.230469 47.769531 C 41.582031 46.636719 39.5625 43.289062 37.476562 41.6875 C 30.546875 36.800781 21.566406 37.96875 13.640625 36.035156 C 9.777344 35.238281 6.257812 33.636719 5.867188 29.242188 C 5.492188 24.949219 6.175781 20.359375 6.683594 16.09375 C 7.535156 4.410156 12.164062 3.761719 22.632812 4.746094 C 27.449219 4.898438 32.265625 5.050781 37.078125 5.203125 C 41.339844 5.335938 47.339844 4.644531 50.773438 7.730469 C 54.175781 10.785156 54.097656 16.722656 53.113281 20.8125 C 52.753906 22.316406 54.820312 22.804688 55.371094 21.4375 C 59.785156 12.84375 55.582031 2.859375 45.417969 2.238281 C 39.777344 1.667969 33.992188 1.824219 28.324219 1.652344 C 23.257812 1.496094 17.6875 0.664062 12.671875 1.632812 C 2.972656 3.507812 3.136719 16.417969 2.613281 24.070312 C 1.421875 34.101562 5.316406 38.648438 15.273438 39.914062 C 0.00390625 78.621094 40.050781 116.304688 77.527344 97.515625 C 87.257812 92.582031 95.15625 83.941406 98.328125 73.414062 C 104.046875 72.242188 107.765625 67.808594 107.46875 61.921875 C 107.429688 56.992188 106.878906 51.9375 106.082031 47.074219 C 105.484375 43.410156 104.277344 39.445312 100.960938 37.347656 Z M 100.960938 37.347656 " fill-opacity="1" fill-rule="nonzero"/></g><path fill="#000000" d="M 34.507812 20.46875 C 36.539062 18.976562 37.789062 16.820312 37.226562 14.253906 C 36.058594 9.195312 29.519531 8.359375 25.75 11.070312 C 24.996094 11.542969 25.472656 12.898438 26.382812 12.574219 C 28.164062 11.933594 30.246094 11.449219 32.066406 12.214844 C 33.484375 12.8125 34.613281 14.34375 34.105469 15.839844 C 33.433594 17.335938 31.574219 17.835938 30.371094 18.847656 C 28.480469 20.132812 26.554688 23.171875 28.433594 25.210938 C 30.125 26.515625 31.523438 25.050781 31.480469 23.195312 C 31.6875 22.253906 33.425781 21.1875 34.507812 20.46875 Z M 34.507812 20.46875 " fill-opacity="1" fill-rule="nonzero"/><path fill="#000000" d="M 29.074219 33.371094 C 31.480469 34.710938 33.527344 31.199219 31.1875 29.75 C 28.78125 28.410156 26.734375 31.921875 29.074219 33.371094 Z M 29.074219 33.371094 " fill-opacity="1" fill-rule="nonzero"/><path fill="#000000" d="M 86.101562 56.515625 C 86.753906 55.75 87.382812 54.964844 87.996094 54.167969 C 88.6875 53.269531 89.613281 52.34375 89.226562 51.113281 C 89.007812 50.425781 88.367188 49.871094 87.621094 49.890625 C 86.382812 49.925781 85.859375 50.839844 85.195312 51.730469 C 83.554688 53.828125 81.832031 55.976562 79.800781 57.710938 C 78.609375 56.230469 77.425781 54.773438 75.996094 53.503906 C 75.003906 52.441406 73.265625 53.804688 74 55.046875 C 74.871094 56.78125 75.847656 58.453125 77.097656 59.949219 C 80.214844 63.664062 84.039062 59.039062 86.101562 56.515625 Z M 79.917969 57.792969 C 80.058594 57.890625 79.976562 57.839844 79.894531 57.792969 C 79.898438 57.792969 79.917969 57.792969 79.917969 57.792969 Z M 79.703125 57.769531 C 79.703125 57.769531 79.707031 57.769531 79.707031 57.769531 C 79.597656 57.828125 79.597656 57.828125 79.703125 57.769531 Z M 79.703125 57.769531 " fill-opacity="1" fill-rule="nonzero"/><path fill="#000000" d="M 94.484375 30.0625 C 94.753906 29.230469 94.84375 28.34375 94.976562 27.476562 C 94.949219 27.679688 94.921875 27.882812 94.894531 28.085938 C 95.011719 27.292969 95.296875 26.558594 95.089844 25.761719 C 95.113281 25.945312 95.140625 26.128906 95.164062 26.3125 C 95.238281 25.027344 94.042969 23.785156 92.726562 24.199219 C 90.3125 25.019531 89.285156 29.417969 91.195312 31.152344 C 92.292969 32.09375 94.136719 31.449219 94.484375 30.0625 Z M 94.484375 30.0625 " fill-opacity="1" fill-rule="nonzero"/><path fill="#000000" d="M 99.320312 32.382812 C 100.074219 31.257812 101.777344 30.070312 101.355469 28.542969 C 101.34375 27.644531 100.480469 26.886719 99.585938 27.152344 C 97.890625 27.230469 97.394531 29.078125 96.578125 30.265625 C 95.542969 31.980469 97.9375 33.824219 99.320312 32.382812 Z M 99.320312 32.382812 " fill-opacity="1" fill-rule="nonzero"/><path fill="#000000" d="M 107.128906 31.695312 C 105.648438 30.964844 104.132812 32.148438 102.796875 32.714844 C 101.636719 33.34375 101.640625 35.167969 102.796875 35.800781 C 103.777344 36.410156 104.820312 35.691406 105.785156 35.398438 C 107.492188 34.96875 109.003906 32.96875 107.128906 31.695312 Z M 107.128906 31.695312 " fill-opacity="1" fill-rule="nonzero"/></g></g></g></svg>