<svg xmlns="http://www.w3.org/2000/svg" xmlns:xlink="http://www.w3.org/1999/xlink" width="500" zoomAndPan="magnify" viewBox="0 0 375 374.999991" height="500" preserveAspectRatio="xMidYMid meet" version="1.0"><defs><filter x="0%" y="0%" width="100%" height="100%" id="767cdff96d"><feColorMatrix values="0 0 0 0 1 0 0 0 0 1 0 0 0 0 1 0 0 0 1 0" color-interpolation-filters="sRGB"/></filter><mask id="fe77dc5f41"><g filter="url(#767cdff96d)"><rect x="-37.5" width="450" fill="#000000" y="-37.499999" height="449.999989" fill-opacity="0.41"/></g></mask><clipPath id="3cde16b57c"><path d="M 12 13 L 123 13 L 123 138 L 12 138 Z M 12 13 " clip-rule="nonzero"/></clipPath><clipPath id="45ae2a8c94"><path d="M 0.621094 32.070312 L 96.976562 0.976562 L 134.292969 116.601562 L 37.9375 147.699219 Z M 0.621094 32.070312 " clip-rule="nonzero"/></clipPath><clipPath id="14e4aeffd0"><path d="M 0.621094 32.070312 L 96.976562 0.976562 L 134.292969 116.601562 L 37.9375 147.699219 Z M 0.621094 32.070312 " clip-rule="nonzero"/></clipPath><clipPath id="b681e65100"><path d="M 62 68 L 120 68 L 120 137 L 62 137 Z M 62 68 " clip-rule="nonzero"/></clipPath><clipPath id="86c001ed91"><path d="M 0.621094 32.070312 L 96.976562 0.976562 L 134.292969 116.601562 L 37.9375 147.699219 Z M 0.621094 32.070312 " clip-rule="nonzero"/></clipPath><clipPath id="e692f3b40a"><path d="M 0.621094 32.070312 L 96.976562 0.976562 L 134.292969 116.601562 L 37.9375 147.699219 Z M 0.621094 32.070312 " clip-rule="nonzero"/></clipPath><clipPath id="dfaae56ea9"><path d="M 26 26 L 82 26 L 82 84 L 26 84 Z M 26 26 " clip-rule="nonzero"/></clipPath><clipPath id="ef35f76151"><path d="M 0.621094 32.070312 L 96.976562 0.976562 L 134.292969 116.601562 L 37.9375 147.699219 Z M 0.621094 32.070312 " clip-rule="nonzero"/></clipPath><clipPath id="6a818956bf"><path d="M 0.621094 32.070312 L 96.976562 0.976562 L 134.292969 116.601562 L 37.9375 147.699219 Z M 0.621094 32.070312 " clip-rule="nonzero"/></clipPath><clipPath id="efd3350f97"><path d="M 12 12 L 124 12 L 124 139 L 12 139 Z M 12 12 " clip-rule="nonzero"/></clipPath><clipPath id="2cde1abe7c"><path d="M 0.621094 32.070312 L 96.976562 0.976562 L 134.292969 116.601562 L 37.9375 147.699219 Z M 0.621094 32.070312 " clip-rule="nonzero"/></clipPath><clipPath id="ca9cd8ff86"><path d="M 0.621094 32.070312 L 96.976562 0.976562 L 134.292969 116.601562 L 37.9375 147.699219 Z M 0.621094 32.070312 " clip-rule="nonzero"/></clipPath><clipPath id="b854ffd4fb"><path d="M 34 21 L 68 21 L 68 84 L 34 84 Z M 34 21 " clip-rule="nonzero"/></clipPath><clipPath id="7aa82b46eb"><path d="M 0.621094 32.070312 L 96.976562 0.976562 L 134.292969 116.601562 L 37.9375 147.699219 Z M 0.621094 32.070312 " clip-rule="nonzero"/></clipPath><clipPath id="f5e8f7f8a0"><path d="M 0.621094 32.070312 L 96.976562 0.976562 L 134.292969 116.601562 L 37.9375 147.699219 Z M 0.621094 32.070312 " clip-rule="nonzero"/></clipPath><clipPath id="6305b9063b"><rect x="0" width="135" y="0" height="149"/></clipPath></defs><g mask="url(#fe77dc5f41)"><g transform="matrix(1, 0, 0, 1, 120, 113)"><g clip-path="url(#6305b9063b)"><g clip-path="url(#3cde16b57c)"><g clip-path="url(#45ae2a8c94)"><g clip-path="url(#14e4aeffd0)"><path fill="#ff914d" d="M 122.425781 82.546875 L 66.90625 137.851562 L 15.335938 73.519531 C 13.085938 68.84375 12.890625 61.964844 12.890625 61.964844 C 12.890625 61.964844 31.273438 43.074219 34.371094 40.050781 C 37.496094 37.046875 61.558594 13.609375 62.042969 13.121094 L 114.226562 67.136719 L 112.269531 69.40625 L 115.046875 76.910156 Z M 122.425781 82.546875 " fill-opacity="1" fill-rule="nonzero"/></g></g></g><g clip-path="url(#b681e65100)"><g clip-path="url(#86c001ed91)"><g clip-path="url(#e692f3b40a)"><path fill="#ffffff" d="M 62.488281 124.167969 C 65.617188 121.722656 74.890625 112.761719 77.71875 109.699219 C 80.542969 106.636719 98.574219 86.246094 103.128906 79.808594 C 107.683594 73.371094 113.039062 68.542969 113.039062 68.542969 L 114.773438 70.417969 L 114.0625 71.160156 L 116.027344 72.726562 C 116.058594 77.738281 119.109375 83.308594 119.109375 83.308594 L 65.992188 136.683594 C 61.582031 130.476562 62.488281 124.167969 62.488281 124.167969 Z M 62.488281 124.167969 " fill-opacity="1" fill-rule="nonzero"/></g></g></g><g clip-path="url(#dfaae56ea9)"><g clip-path="url(#ef35f76151)"><g clip-path="url(#6a818956bf)"><path fill="#ffffff" d="M 26.667969 66.328125 C 28.023438 64.507812 51.632812 40.140625 56.734375 35.394531 C 61.835938 30.652344 66.71875 26.335938 66.71875 26.335938 C 66.71875 26.335938 78.964844 39.769531 81.023438 41.308594 C 81.023438 41.308594 44.960938 80.808594 40.910156 83.882812 Z M 26.667969 66.328125 " fill-opacity="1" fill-rule="nonzero"/></g></g></g><g clip-path="url(#efd3350f97)"><g clip-path="url(#2cde1abe7c)"><g clip-path="url(#ca9cd8ff86)"><path fill="#000000" d="M 117.855469 77.4375 C 117.398438 76.023438 116.953125 74.402344 116.632812 72.609375 L 116.585938 72.394531 L 114.964844 71.097656 C 115.042969 71.023438 115.121094 70.945312 115.191406 70.847656 L 115.597656 70.433594 L 113.851562 68.515625 C 114.128906 68.191406 114.402344 67.847656 114.707031 67.519531 L 115.082031 67.09375 L 62.042969 12.25 L 61.601562 12.699219 C 54.710938 19.6875 48.03125 26.117188 41.574219 32.300781 C 31.601562 41.867188 22.199219 50.894531 12.445312 61.546875 L 12.089844 61.941406 L 12.257812 62.144531 C 11.742188 66.507812 14.652344 73.457031 14.773438 73.753906 L 14.796875 73.820312 L 66.058594 137.765625 C 66.238281 138.011719 66.394531 138.167969 66.40625 138.214844 L 66.828125 138.71875 L 123.257812 82.507812 Z M 120.042969 82.546875 C 119.664062 81.847656 119.265625 81.003906 118.839844 80.015625 L 121.5625 82.566406 L 66.960938 136.910156 C 66.914062 136.847656 66.867188 136.785156 66.824219 136.722656 L 120.246094 82.941406 Z M 115.65625 73.949219 C 115.734375 74.359375 115.832031 74.738281 115.929688 75.117188 C 113.851562 77.324219 104.351562 87.25 95.039062 95.453125 C 94.785156 95.691406 94.773438 96.054688 94.988281 96.316406 C 95.222656 96.574219 95.59375 96.609375 95.847656 96.371094 C 104.554688 88.671875 113.445312 79.476562 116.292969 76.484375 C 116.480469 77.140625 116.683594 77.765625 116.890625 78.339844 C 115.476562 79.898438 107.945312 88.0625 104.730469 91.046875 C 104.5 91.273438 104.464844 91.644531 104.699219 91.902344 C 104.9375 92.15625 105.332031 92.183594 105.585938 91.949219 C 108.621094 89.125 115.261719 81.9375 117.386719 79.636719 C 117.855469 80.84375 118.339844 81.867188 118.761719 82.703125 L 66.109375 135.699219 C 65.144531 134.21875 63.886719 131.910156 63.332031 129.324219 L 74.15625 118.738281 C 74.386719 118.507812 74.390625 118.121094 74.15625 117.867188 C 73.925781 117.632812 73.542969 117.628906 73.285156 117.867188 L 63.085938 127.839844 C 62.992188 126.921875 63.019531 125.96875 63.199219 125.011719 C 68.273438 120.429688 73.253906 115.390625 78.136719 110.128906 L 92.566406 96.125 C 93.058594 95.660156 93.066406 94.886719 92.601562 94.398438 L 92.445312 94.550781 C 98.382812 88.355469 107.710938 78.613281 114.070312 71.976562 L 115.066406 72.757812 C 112.40625 75.382812 99.699219 87.832031 96.503906 90.9375 C 96.269531 91.164062 96.265625 91.550781 96.492188 91.785156 C 96.722656 92.019531 97.117188 92.042969 97.371094 91.808594 C 100.507812 88.824219 112.425781 77.117188 115.65625 73.949219 Z M 100.050781 84.875 C 100.550781 84.277344 101.050781 83.683594 101.546875 83.085938 C 105.5 78.351562 109.289062 73.828125 113.054688 69.460938 L 113.925781 70.410156 C 111.96875 72.449219 105.992188 78.679688 100.050781 84.875 Z M 42.421875 33.179688 C 48.761719 27.113281 55.308594 20.824219 62.042969 13.992188 L 113.410156 67.144531 C 109.207031 71.984375 105.035156 76.992188 100.625 82.28125 C 95.804688 88.0625 90.910156 93.917969 85.9375 99.621094 C 85.9375 99.621094 85.914062 99.628906 85.914062 99.628906 C 83.070312 102.875 80.21875 106.101562 77.328125 109.210938 C 72.5625 114.359375 67.714844 119.253906 62.761719 123.746094 C 48.796875 105.460938 33.199219 85.78125 13.722656 62.003906 C 23.300781 51.539062 32.589844 42.625 42.421875 33.179688 Z M 48.925781 114.433594 L 34.746094 96.757812 C 32.488281 92.386719 32.253906 88.800781 32.339844 86.929688 C 37.621094 93.523438 42.589844 99.808594 47.335938 105.855469 C 47.320312 106.757812 47.425781 110.257812 48.925781 114.433594 Z M 19.410156 70.898438 C 23.523438 75.949219 27.445312 80.800781 31.222656 85.523438 C 31.082031 86.441406 30.769531 89.359375 32.027344 93.332031 L 22.566406 81.558594 C 19.890625 76.992188 19.417969 72.996094 19.410156 70.898438 Z M 13.4375 63.582031 C 15.074219 65.5625 16.660156 67.535156 18.226562 69.460938 C 18.140625 70.386719 17.957031 73.46875 19.390625 77.589844 L 15.878906 73.214844 C 15.601562 72.511719 13.539062 67.390625 13.4375 63.582031 Z M 52.390625 118.746094 C 49.632812 114.410156 48.851562 109.925781 48.636719 107.511719 C 53.296875 113.457031 57.742188 119.21875 62.019531 124.855469 C 61.589844 127.25 62.003906 129.574219 62.71875 131.621094 Z M 88.492188 109.757812 L 103.570312 94.75 C 103.804688 94.519531 104.191406 94.523438 104.441406 94.75 C 104.671875 94.984375 104.667969 95.371094 104.441406 95.621094 L 89.363281 110.628906 C 89.128906 110.859375 88.742188 110.855469 88.492188 110.628906 C 88.238281 110.402344 88.242188 110.015625 88.492188 109.757812 Z M 81.910156 41.203125 L 81.367188 40.789062 C 79.785156 39.609375 71.378906 30.542969 67.167969 25.910156 L 66.773438 25.472656 L 66.3125 25.878906 C 66.273438 25.914062 61.347656 30.246094 56.308594 34.945312 C 51.585938 39.363281 27.628906 63.996094 26.183594 65.945312 L 25.894531 66.320312 L 40.785156 84.691406 L 41.261719 84.332031 C 45.320312 81.28125 80.003906 43.304688 81.484375 41.699219 Z M 40.980469 82.988281 L 27.460938 66.328125 C 30.46875 62.875 52.039062 40.601562 57.132812 35.832031 C 61.285156 31.957031 65.320312 28.351562 66.65625 27.175781 C 68.675781 29.390625 77.371094 38.878906 80.113281 41.347656 C 76.179688 45.664062 46.304688 78.300781 40.980469 82.988281 Z M 63.566406 44.894531 C 63.003906 44.105469 62.371094 43.335938 61.589844 42.742188 C 60.738281 42.09375 59.679688 41.667969 58.59375 41.558594 C 56.570312 41.3125 54.425781 42.210938 53.109375 43.761719 C 53.046875 43.808594 52.976562 43.90625 52.835938 44.105469 C 52.609375 44.4375 52.050781 45.078125 51.882812 45.359375 C 51.632812 45.773438 51.546875 45.828125 51.855469 46.140625 C 52.777344 47.019531 53.738281 47.9375 54.625 48.855469 C 55.738281 50.007812 60.832031 54.917969 62.324219 56.128906 C 62.429688 56.222656 62.5625 56.308594 62.691406 56.316406 C 62.871094 56.308594 63.023438 56.15625 63.132812 56.019531 C 63.632812 55.421875 64.234375 54.667969 64.734375 54.070312 C 64.789062 54 64.84375 53.933594 64.851562 53.878906 C 66.636719 51.714844 65.492188 48.730469 64.953125 47.367188 C 64.628906 46.445312 64.113281 45.640625 63.566406 44.894531 Z M 62.453125 48.992188 C 62.640625 49.726562 62.492188 50.464844 62.234375 51.164062 C 60.203125 49.234375 57.535156 46.6875 55.777344 45.050781 C 56.5625 44.621094 57.542969 44.484375 58.433594 44.707031 C 59.710938 45.011719 60.621094 45.847656 61.417969 46.894531 C 61.882812 47.539062 62.261719 48.234375 62.453125 48.992188 Z M 50.953125 65.96875 C 51.105469 66.125 51.265625 66.304688 51.265625 66.535156 C 51.261719 66.765625 51.066406 66.957031 50.890625 67.117188 C 50.445312 67.488281 50.011719 67.886719 49.570312 68.257812 C 49.367188 68.425781 49.148438 68.625 48.878906 68.660156 C 48.414062 68.734375 48.019531 68.375 47.707031 68.042969 C 46.773438 67.0625 46.523438 66.679688 45.59375 65.703125 C 44.074219 64.089844 42.578125 62.472656 41.085938 60.855469 C 40.429688 61.453125 39.800781 62.039062 39.117188 62.617188 C 39.039062 62.695312 38.9375 62.777344 38.832031 62.761719 C 38.699219 62.753906 38.625 62.675781 38.539062 62.574219 C 37.960938 61.96875 37.378906 61.359375 36.777344 60.761719 C 36.59375 60.589844 36.417969 60.363281 36.445312 60.125 C 36.445312 59.894531 36.617188 59.710938 36.796875 59.550781 C 37.652344 58.710938 38.515625 57.894531 39.371094 57.054688 C 39.691406 56.695312 40.09375 56.363281 40.34375 56.101562 C 40.382812 56.0625 40.421875 56.027344 40.4375 55.996094 C 40.460938 55.988281 40.476562 55.957031 40.476562 55.957031 C 40.492188 55.925781 40.539062 55.910156 40.554688 55.878906 C 41.433594 55.035156 42.980469 53.484375 43.433594 53.695312 C 43.789062 53.839844 44.582031 54.632812 44.863281 54.875 C 45.269531 55.253906 45.988281 55.894531 45.714844 56.160156 C 45.574219 56.28125 45.273438 56.613281 45.164062 56.75 C 44.671875 57.292969 44.148438 57.820312 43.628906 58.34375 C 46.386719 61.015625 48.382812 63.160156 50.953125 65.96875 Z M 43.023438 66.785156 C 44.800781 67.773438 46.074219 69.976562 45.527344 71.6875 C 45.015625 72.800781 43.363281 74.742188 42.0625 75.316406 C 41.953125 75.378906 41.816406 75.421875 41.691406 75.359375 C 41.632812 75.328125 41.5625 75.273438 41.515625 75.210938 C 40.984375 74.589844 40.550781 74.039062 40.164062 73.316406 C 40.109375 73.230469 40.074219 73.117188 40.097656 73.03125 C 40.121094 72.949219 40.175781 72.878906 40.261719 72.824219 C 40.640625 72.496094 41.039062 72.214844 41.34375 71.8125 C 41.652344 71.429688 42.078125 70.675781 41.925781 70.214844 C 41.753906 69.679688 41.171875 69.382812 40.601562 69.285156 C 39.8125 69.128906 37.289062 69.96875 35.871094 69.9375 C 34.917969 69.914062 33.996094 69.519531 33.324219 68.867188 C 32.261719 67.878906 31.9375 66.242188 32.414062 64.859375 C 32.714844 63.96875 33.363281 63.195312 34.144531 62.6875 C 34.671875 62.335938 35.605469 61.574219 36.132812 62.171875 C 36.597656 62.664062 36.921875 63.273438 37.132812 63.925781 C 37.230469 64.226562 37.273438 64.597656 37.070312 64.839844 C 36.859375 65.0625 35.210938 65.59375 35.597656 66.46875 C 35.761719 66.824219 36.257812 66.84375 36.621094 66.777344 C 36.9375 66.726562 37.238281 66.628906 37.523438 66.5625 C 38.699219 66.234375 41.191406 65.789062 43.023438 66.785156 Z M 58.65625 55.082031 C 59.074219 55.894531 59.425781 56.832031 59.324219 57.785156 C 59.246094 58.734375 58.820312 59.792969 57.933594 60.617188 C 57.21875 61.257812 54.640625 62.707031 51.996094 60.867188 C 51.164062 60.265625 50.3125 59.695312 49.589844 58.957031 C 47.925781 57.292969 46.304688 55.613281 44.734375 53.839844 C 44.5 53.582031 44.472656 53.183594 44.683594 52.882812 C 45.292969 52.074219 45.933594 51.277344 46.65625 50.582031 C 46.695312 50.542969 46.757812 50.5 46.800781 50.484375 C 46.878906 50.484375 46.917969 50.523438 46.957031 50.5625 C 48.707031 52.097656 50.378906 53.707031 51.996094 55.390625 C 52.570312 55.972656 53.117188 56.5625 53.800781 57.007812 C 54.152344 57.230469 54.613281 57.386719 54.910156 57.113281 C 55.109375 56.945312 55.160156 56.621094 55.078125 56.367188 C 54.996094 56.113281 54.820312 55.886719 54.652344 55.683594 C 52.832031 53.53125 50.738281 51.648438 48.746094 49.679688 C 48.660156 49.578125 48.5625 49.507812 48.539062 49.359375 C 48.511719 49.191406 48.613281 49.027344 48.691406 48.875 C 49.144531 48.21875 49.804688 47.492188 50.421875 46.859375 C 50.726562 46.527344 51.257812 46.511719 51.570312 46.84375 C 53.507812 48.882812 55.394531 50.605469 57.152344 52.804688 C 57.769531 53.527344 58.265625 54.261719 58.65625 55.082031 Z M 64.804688 32.230469 C 67.003906 34.207031 69.152344 36.253906 71.242188 38.371094 C 72.304688 39.4375 73.285156 40.65625 73.601562 42.117188 C 73.921875 43.578125 73.636719 45.152344 72.8125 46.417969 C 72.5 46.875 72.121094 47.28125 71.648438 47.5625 C 71.152344 47.851562 70.570312 47.960938 69.984375 47.96875 C 69.707031 47.984375 69.441406 47.789062 69.382812 47.523438 C 69.269531 47.023438 69.222656 46.476562 69.164062 45.980469 C 69.144531 45.757812 69.085938 45.265625 69.050781 44.992188 C 69.035156 44.871094 69.101562 44.746094 69.214844 44.710938 C 69.394531 44.628906 69.570312 44.542969 69.734375 44.414062 C 69.960938 44.238281 70.171875 44.019531 70.234375 43.742188 C 70.28125 43.574219 70.269531 43.371094 70.238281 43.203125 C 70.128906 42.546875 69.78125 41.941406 69.308594 41.503906 C 68.902344 41.125 68.492188 40.71875 68.109375 40.328125 C 67.695312 40.796875 67.207031 41.183594 66.671875 41.511719 C 66.003906 41.90625 65.277344 42.191406 64.507812 42.261719 C 63.289062 42.371094 62.050781 41.953125 61.023438 41.308594 C 60.066406 40.722656 59.25 39.9375 58.457031 39.144531 C 58.34375 39.027344 58.335938 38.847656 58.445312 38.710938 C 59.105469 37.984375 59.832031 37.214844 60.539062 36.550781 C 60.632812 36.445312 60.808594 36.4375 60.917969 36.53125 C 61.621094 37.046875 62.347656 37.554688 63.105469 38 C 63.550781 38.265625 64.042969 38.519531 64.566406 38.476562 C 64.992188 38.441406 65.324219 38.207031 65.644531 37.925781 C 65.039062 37.324219 64.40625 36.710938 63.78125 36.117188 C 63.335938 35.699219 62.160156 34.746094 62.140625 34.371094 C 62.105469 33.789062 63.195312 32.800781 63.933594 32.226562 C 64.167969 32 64.550781 32.003906 64.804688 32.230469 Z M 64.804688 32.230469 " fill-opacity="1" fill-rule="nonzero"/></g></g></g><g clip-path="url(#b854ffd4fb)"><g clip-path="url(#7aa82b46eb)"><g clip-path="url(#f5e8f7f8a0)"><path fill="#f4c400" d="M 67.039062 26.695312 C 67.097656 26.800781 67.097656 26.957031 67.089844 27.085938 C 67.023438 27.59375 66.738281 28.070312 66.441406 28.5 C 66.332031 28.636719 66.214844 28.828125 66.089844 28.996094 C 66.609375 29.570312 67.003906 30.085938 67.1875 30.332031 C 67.539062 30.785156 67.871094 31.496094 67.425781 31.867188 C 66.917969 32.035156 66.402344 31.710938 65.992188 31.386719 C 65.792969 31.246094 65.339844 30.878906 64.804688 30.410156 C 64.074219 31.082031 63.207031 31.566406 62.4375 31.328125 C 61.640625 31.074219 62.476562 29.777344 63.171875 28.914062 C 62.0625 27.785156 61.1875 26.582031 61.824219 26.097656 C 62.394531 25.632812 63.519531 26.421875 64.59375 27.457031 C 65.09375 27.089844 65.65625 26.78125 66.269531 26.609375 C 66.539062 26.496094 66.886719 26.460938 67.039062 26.695312 Z M 35.296875 79.265625 C 36.578125 78.238281 37.882812 77.203125 39.164062 76.175781 C 39.53125 75.878906 39.128906 75.265625 38.761719 75.5625 C 37.480469 76.589844 36.175781 77.625 34.894531 78.65625 C 34.53125 78.953125 34.933594 79.5625 35.296875 79.265625 Z M 38.765625 82.628906 C 39.605469 80.71875 40.449219 78.808594 41.316406 76.890625 C 41.511719 76.46875 40.859375 76.113281 40.671875 76.558594 C 39.828125 78.46875 38.984375 80.382812 38.121094 82.300781 C 37.921875 82.722656 38.574219 83.074219 38.765625 82.628906 Z M 42.636719 77.332031 C 43.121094 79.304688 43.664062 81.226562 44.285156 83.152344 C 44.425781 83.59375 45.121094 83.367188 44.980469 82.929688 C 44.359375 81.003906 43.832031 79.046875 43.332031 77.109375 C 43.214844 76.660156 42.519531 76.886719 42.636719 77.332031 Z M 44.578125 75.964844 C 44.878906 76.507812 45.199219 77.019531 45.566406 77.515625 C 45.839844 77.886719 46.449219 77.484375 46.175781 77.113281 C 45.8125 76.617188 45.492188 76.105469 45.191406 75.5625 C 44.957031 75.152344 44.34375 75.554688 44.578125 75.964844 Z M 46.589844 79.105469 C 46.742188 79.414062 46.9375 79.710938 47.160156 79.996094 C 47.289062 80.160156 47.488281 80.222656 47.683594 80.109375 C 47.828125 80.011719 47.902344 79.757812 47.796875 79.585938 C 47.574219 79.300781 47.398438 78.996094 47.226562 78.695312 C 47.140625 78.515625 46.875 78.476562 46.703125 78.582031 C 46.515625 78.71875 46.507812 78.925781 46.589844 79.105469 Z M 63.890625 22.101562 C 64.164062 22.472656 64.492188 22.777344 64.859375 23.042969 C 65.03125 23.167969 65.238281 23.175781 65.386719 23 C 65.496094 22.863281 65.511719 22.601562 65.34375 22.476562 C 65.015625 22.25 64.746094 21.976562 64.496094 21.675781 C 64.207031 21.332031 63.59375 21.734375 63.890625 22.101562 Z M 66.9375 22.808594 C 67.109375 22.625 67.277344 22.441406 67.449219 22.257812 C 67.582031 22.113281 67.554688 21.867188 67.410156 21.734375 C 67.265625 21.601562 67.039062 21.621094 66.882812 21.773438 C 66.714844 21.957031 66.542969 22.140625 66.371094 22.324219 C 66.238281 22.46875 66.265625 22.71875 66.410156 22.851562 C 66.558594 22.980469 66.804688 22.953125 66.9375 22.808594 Z M 66.605469 24.246094 C 66.8125 24.488281 67.019531 24.726562 67.230469 24.992188 C 67.359375 25.15625 67.5625 25.21875 67.753906 25.105469 C 67.902344 25.007812 67.996094 24.746094 67.867188 24.582031 C 67.660156 24.339844 67.457031 24.101562 67.242188 23.835938 C 67.113281 23.671875 66.914062 23.609375 66.71875 23.722656 C 66.550781 23.828125 66.476562 24.082031 66.605469 24.246094 Z M 64.679688 25.023438 C 64.90625 24.691406 65.226562 24.410156 65.566406 24.199219 C 65.976562 23.964844 65.574219 23.351562 65.164062 23.585938 C 64.691406 23.867188 64.324219 24.238281 64.003906 24.675781 C 63.902344 24.835938 64.007812 25.085938 64.164062 25.164062 C 64.378906 25.273438 64.578125 25.183594 64.679688 25.023438 Z M 64.679688 25.023438 " fill-opacity="1" fill-rule="nonzero"/></g></g></g></g></g></g></svg>